SplineFontDB: 3.0
FontName: AVMerrow-Italic
FullName: AV Merrow Italic
FamilyName: AV Merrow
Weight: Italic
Copyright: AV Merrow Italic. Copyright 2018, Avante Vangard Type Foundry (https://github.com/Avante-Vangard)
Version: 2018.001
ItalicAngle: -7.5
UnderlinePosition: -133
UnderlineWidth: 20
Ascent: 800
Descent: 200
InvalidEm: 0
sfntRevision: 0x07e20000
LayerCount: 2
Layer: 0 0 "Back" 1
Layer: 1 0 "Fore" 0
XUID: [1021 894 1065283359 4134119]
StyleMap: 0x0001
FSType: 0
OS2Version: 3
OS2_WeightWidthSlopeOnly: 1
OS2_UseTypoMetrics: 0
CreationTime: 1324052804
ModificationTime: 1540929707
PfmFamily: 33
TTFWeight: 400
TTFWidth: 5
LineGap: 0
VLineGap: 0
Panose: 2 11 6 6 4 0 0 9 0 2
OS2TypoAscent: 966
OS2TypoAOffset: 0
OS2TypoDescent: -254
OS2TypoDOffset: 0
OS2TypoLinegap: 0
OS2WinAscent: 966
OS2WinAOffset: 0
OS2WinDescent: 254
OS2WinDOffset: 0
HheadAscent: 966
HheadAOffset: 0
HheadDescent: -254
HheadDOffset: 0
OS2SubXSize: 700
OS2SubYSize: 650
OS2SubXOff: 0
OS2SubYOff: 140
OS2SupXSize: 700
OS2SupYSize: 650
OS2SupXOff: 0
OS2SupYOff: 477
OS2StrikeYSize: 50
OS2StrikeYPos: 250
OS2CapHeight: 664
OS2XHeight: 474
OS2Vendor: 'pyrs'
OS2CodePages: 20000001.00000000
OS2UnicodeRanges: 800000af.5000204a.00000000.00000000
Lookup: 1 0 0 "'smcp' Lowercase to Small Capitals in Latin lookup 0" { "'smcp' Lowercase to Small Capitals in Latin lookup 0 subtable"  } ['smcp' ('DFLT' <'dflt' > 'latn' <'dflt' > ) ]
Lookup: 1 0 0 "'c2sc' Capitals to Small Capitals in Latin lookup 1" { "'c2sc' Capitals to Small Capitals in Latin lookup 1 subtable"  } ['c2sc' ('DFLT' <'dflt' > 'latn' <'dflt' > ) ]
Lookup: 1 0 0 "'sups' Superscript in Latin lookup 2" { "'sups' Superscript in Latin lookup 2 subtable" ("superior") } ['sups' ('DFLT' <'dflt' > 'latn' <'dflt' > ) ]
Lookup: 4 0 1 "'liga' Standard Ligatures lookup 3" { "'liga' Standard Ligatures lookup 3 subtable"  } ['liga' ('DFLT' <'dflt' > 'grek' <'dflt' > 'latn' <'dflt' > ) ]

StartChar: exclam
Encoding: 33 33 2
Width: 251
GlyphClass: 2
Flags: MW
HStem: -10 127<107.5 109>
VStem: 50 115<35 70.5> 93 70<213.5 249.5> 133 93<640.5 656.5>
LayerCount: 2
Fore
SplineSet
100 -10 m 0xc0
 86 -10 74 -5 65 4 c 0
 55 14 50 27 50 43 c 0
 50 62 57 79 70 94 c 0
 83 109 99 117 116 117 c 0
 130 117 142 112 151 101 c 0
 160 91 165 78 165 63 c 0
 165 43 159 26 146 12 c 0
 133 -3 118 -10 100 -10 c 0xc0
226 646 m 0x90
 226 635 223 617 218 590 c 0
 212 563 205 529 196 486 c 0
 188 444 181 404 176 367 c 0
 167 297 163 256 163 243 c 0
 163 226 164 212 167 199 c 1
 152 192 139 189 128 189 c 0
 105 189 93 201 93 226 c 0xa0
 93 231 100 291 113 408 c 0
 126 525 133 606 133 650 c 0
 133 663 133 671 132 676 c 1
 153 681 171 684 185 684 c 0
 212 684 226 671 226 646 c 0x90
EndSplineSet
Validated: 1
Substitution2: "'c2sc' Capitals to Small Capitals in Latin lookup 1 subtable" exclam.sc
EndChar

StartChar: quotedbl
Encoding: 34 34 3
Width: 344
GlyphClass: 2
Flags: MW
HStem: 485 250<110.5 161 144 286.5>
VStem: 118 80 284 80
LayerCount: 2
Fore
SplineSet
118 711 m 0
 121 727 133 735 155 735 c 0
 167 735 177 732 185 725 c 0
 194 718 198 708 198 695 c 0
 198 686 192 660 179 619 c 0
 167 577 156 544 147 520 c 0
 138 497 127 485 114 485 c 0
 107 485 97 488 85 494 c 1
 92 511 98 536 103 567 c 0
 108 598 111 628 113 658 c 0
 115 686 117 704 118 711 c 0
284 711 m 0
 287 727 299 735 321 735 c 0
 333 735 343 732 351 725 c 0
 360 718 364 708 364 695 c 0
 364 686 358 660 345 619 c 0
 333 577 322 544 313 520 c 0
 304 497 293 485 280 485 c 0
 273 485 263 488 251 494 c 1
 258 511 264 536 269 567 c 0
 274 598 277 629 279 658 c 0
 281 687 283 704 284 711 c 0
EndSplineSet
Validated: 1
EndChar

StartChar: numbersign
Encoding: 35 35 4
Width: 574
GlyphClass: 2
Flags: MW
HStem: 213 60 220 53 382 60 390 52<263 276 247 371>
VStem: 116 56<56.5 61.5 49 71.5> 215 48<442 442> 253 52 272 56<56.5 61.5 49 71.5> 409 52
LayerCount: 2
Fore
SplineSet
311 220 m 1x4d80
 295 221 269 221 232 221 c 2
 201 221 l 1
 193 187 l 2
 188 170 184 154 181 139 c 0
 178 125 176 114 175 106 c 0
 173 93 172 74 172 49 c 1
 163 44 153 41 140 41 c 0
 124 41 116 49 116 64 c 0
 116 79 129 131 155 220 c 1
 104 217 62 211 29 202 c 1
 28 207 28 213 28 221 c 0
 28 256 47 274 86 274 c 0
 123 274 152 274 171 273 c 1
 201 389 l 1
 150 386 108 380 75 371 c 1
 74 376 74 382 74 390 c 0
 74 425 93 443 132 443 c 0
 168 443 196 443 215 442 c 1x5d80
 217 451 223 478 234 521 c 0
 245 565 251 595 253 610 c 1
 262 612 271 613 279 613 c 0
 296 613 305 605 305 590 c 0x5a80
 305 585 303 573 298 556 c 0
 293 539 287 518 279 493 c 0
 271 468 266 451 263 442 c 1
 371 442 l 1x5c80
 373 451 379 478 390 521 c 0
 401 565 407 595 409 610 c 1
 418 612 427 613 435 613 c 0
 452 613 461 605 461 590 c 0
 461 585 459 573 454 556 c 0
 449 539 443 518 435 493 c 0
 427 468 422 451 419 442 c 1
 468 444 510 446 546 449 c 1
 545 428 541 412 534 400 c 0
 527 388 513 382 494 382 c 0
 491 382 485 382 476 383 c 0
 467 384 455 384 440 385 c 0
 425 386 412 386 401 387 c 1
 386 336 376 298 370 273 c 1x6c80
 423 275 467 277 500 280 c 1
 499 259 494 243 488 231 c 0
 480 219 467 213 448 213 c 0x8c80
 445 213 438 213 430 214 c 0
 420 215 409 215 394 216 c 0
 380 217 367 217 356 218 c 1
 355 213 352 202 348 185 c 0
 344 168 340 153 337 139 c 0
 334 125 332 114 331 106 c 0
 329 93 328 74 328 49 c 1
 319 44 309 41 296 41 c 0
 280 41 272 49 272 64 c 0
 272 79 285 131 311 220 c 1x4d80
215 272 m 1
 273 272 310 272 326 273 c 1
 333 297 343 336 356 389 c 1
 339 390 313 390 276 390 c 2
 247 390 l 1
 234 345 223 305 215 272 c 1
EndSplineSet
Validated: 1
EndChar

StartChar: dollar
Encoding: 36 36 5
Width: 574
GlyphClass: 2
Flags: MW
HStem: -9 58 610 58 719 20G<334 344>
VStem: 131 71<460 484.5> 213 40<-76 -54.5> 318 42 389 73<193.5 207>
LayerCount: 2
Fore
SplineSet
202 481 m 0
 202 439 226 407 274 386 c 1
 306 610 l 1
 277 607 252 594 232 571 c 0
 212 548 202 518 202 481 c 0
389 194 m 0
 389 220 381 240 366 254 c 0
 350 268 328 280 299 290 c 1
 294 259 288 215 281 160 c 0
 274 105 269 68 266 49 c 1
 300 51 329 65 353 90 c 0
 377 116 389 151 389 194 c 0
238 -78 m 2
 221 -78 213 -71 213 -57 c 0
 213 -52 215 -36 219 -9 c 1
 178 -7 142 2 113 17 c 0
 84 33 69 52 69 75 c 0
 69 90 73 101 82 110 c 0
 91 119 103 127 120 135 c 1
 127 114 140 97 160 82 c 0
 180 67 203 57 228 52 c 1
 229 59 240 143 263 302 c 1
 247 307 234 312 223 316 c 0
 213 321 201 327 188 335 c 0
 175 344 165 353 158 363 c 0
 151 373 144 386 139 401 c 0
 134 417 131 435 131 455 c 0
 131 514 148 562 181 599 c 0
 215 637 259 660 312 668 c 1
 315 692 317 715 318 736 c 1
 326 738 332 739 336 739 c 0
 352 739 360 732 360 719 c 0
 360 715 358 699 354 671 c 1
 389 670 422 663 451 648 c 0
 481 633 496 614 496 589 c 0
 496 558 477 539 440 532 c 1
 433 551 421 568 404 581 c 0
 387 595 367 604 345 608 c 1
 324 463 313 384 311 371 c 1
 335 362 352 356 363 351 c 0
 374 347 387 341 402 332 c 0
 418 323 429 315 436 306 c 0
 443 298 449 287 454 273 c 0
 459 260 462 244 462 227 c 0
 462 160 443 105 406 62 c 0
 369 20 320 -4 259 -9 c 1
 256 -33 254 -55 253 -76 c 1
 238 -78 l 2
EndSplineSet
Validated: 1
Substitution2: "'onum' Oldstyle Figures lookup 5 subtable" dollaroldstyle
Substitution2: "'c2sc' Capitals to Small Capitals in Latin lookup 1 subtable" dollar.sc
EndChar

StartChar: percent
Encoding: 37 37 6
Width: 712
GlyphClass: 2
Flags: MW
HStem: -10 50<481 504 481 508.5> 273 49<508.5 531.5> 333 50<181 204 181 208.5> 616 49<208.5 231.5>
VStem: 70 62<467.5 493.5> 94 39 279 63<505.5 535.5> 370 62<124.5 150.5> 579 63<162.5 192.5>
LayerCount: 2
Fore
SplineSet
485 -10 m 0xf380
 449 -10 421 2 400 26 c 0
 380 49 370 81 370 122 c 0
 370 179 385 226 414 265 c 0
 443 303 481 322 528 322 c 0
 564 322 592 311 612 288 c 0
 632 265 642 232 642 191 c 0
 642 134 628 87 598 48 c 0
 570 9 532 -10 485 -10 c 0xf380
522 273 m 0
 495 273 474 259 457 232 c 0
 440 204 432 173 432 138 c 0
 432 111 437 88 447 68 c 0
 456 50 471 40 491 40 c 0
 517 40 538 54 555 83 c 0
 571 112 579 144 579 179 c 0
 579 206 574 228 565 246 c 0
 555 264 541 273 522 273 c 0
104 25 m 2
 583 692 l 1
 593 691 602 688 610 683 c 0
 618 677 622 670 622 662 c 0
 622 657 618 648 609 635 c 0
 600 622 573 584 526 520 c 0
 438 400 353 284 272 171 c 0
 232 116 186 50 133 -29 c 1
 107 -24 94 -14 94 1 c 0xf780
 95 10 99 18 104 25 c 2
185 333 m 0
 149 333 121 345 101 369 c 0
 80 392 70 424 70 465 c 0xfb80
 70 522 85 569 114 608 c 0
 143 646 181 665 228 665 c 0
 264 665 292 654 312 631 c 0
 332 608 342 575 342 534 c 0
 342 477 328 430 299 391 c 0
 270 352 232 333 185 333 c 0
222 616 m 0
 195 616 174 602 157 575 c 0
 140 547 132 516 132 481 c 0
 132 454 137 431 147 412 c 0
 156 393 171 383 191 383 c 0
 217 383 238 397 255 426 c 0
 271 455 279 487 279 522 c 0
 279 549 274 571 265 589 c 0
 255 607 241 616 222 616 c 0
EndSplineSet
Validated: 1
EndChar

StartChar: ampersand
Encoding: 38 38 7
Width: 700
GlyphClass: 2
Flags: MW
HStem: -11 59<251 296.5> 291 59<595.5 645> 322 58<433.5 485.5> 364 54<267 293> 616 59<288 316>
VStem: 39 82<174 198.5> 108 77<495.5 516.5> 346 55<230.5 284.5> 673 57<379.5 440.5>
LayerCount: 2
Fore
SplineSet
415 235 m 1xad80
 405 214 391 204 373 204 c 0
 355 204 346 217 346 244 c 0
 346 275 359 306 384 336 c 0
 409 365 440 380 476 380 c 0xad80
 495 380 522 375 558 365 c 0
 594 355 618 350 631 350 c 0
 659 350 673 365 673 394 c 0
 673 410 669 424 660 437 c 1
 669 457 684 467 703 467 c 0
 721 467 730 454 730 427 c 0
 730 397 717 367 692 336 c 0
 667 306 636 291 601 291 c 0
 590 291 578 292 565 295 c 1
 541 185 503 106 452 60 c 0
 401 12 336 -11 257 -11 c 0
 190 -11 137 8 98 45 c 0
 59 82 39 127 39 179 c 0xcd80
 39 218 52 256 77 291 c 0
 102 326 139 354 188 375 c 1
 135 402 108 441 108 492 c 0
 108 541 128 584 168 620 c 0
 207 657 256 675 314 675 c 0
 352 675 385 666 412 648 c 0
 439 631 452 611 452 590 c 0
 452 565 437 551 406 547 c 1
 397 570 383 587 365 598 c 0
 347 610 327 616 305 616 c 0
 271 616 243 606 220 586 c 0
 197 566 185 540 185 507 c 0
 185 484 194 464 211 445 c 0
 228 427 254 418 289 418 c 0
 297 418 303 418 308 419 c 1
 309 410 310 404 310 401 c 0
 310 396 309 391 308 387 c 2
 305 378 l 2
 304 376 301 374 297 372 c 0
 292 370 290 369 289 368 c 0
 288 368 284 367 278 366 c 0
 271 365 268 364 267 364 c 0xdb80
 220 353 184 332 159 300 c 0
 134 268 121 233 121 194 c 0
 121 154 135 120 162 91 c 0
 189 62 227 48 275 48 c 0
 339 48 389 68 426 108 c 0
 463 147 488 215 501 311 c 1
 476 318 456 322 440 322 c 0
 427 322 418 318 411 310 c 0
 404 302 401 291 401 278 c 0
 401 260 406 246 415 235 c 1xad80
EndSplineSet
Validated: 1
Substitution2: "'c2sc' Capitals to Small Capitals in Latin lookup 1 subtable" ampersand.sc
EndChar

StartChar: quotesingle
Encoding: 39 39 8
Width: 178
GlyphClass: 2
Flags: MW
HStem: 485 250<110.5 161>
VStem: 118 80
LayerCount: 2
Fore
SplineSet
118 711 m 0
 121 727 133 735 155 735 c 0
 167 735 177 732 185 725 c 0
 194 718 198 708 198 695 c 0
 198 686 192 660 179 619 c 0
 167 577 156 544 147 520 c 0
 138 497 127 485 114 485 c 0
 107 485 97 488 85 494 c 1
 92 511 98 536 103 567 c 0
 108 598 111 628 113 658 c 0
 115 686 117 704 118 711 c 0
EndSplineSet
Validated: 1
EndChar

StartChar: parenleft
Encoding: 40 40 9
Width: 332
GlyphClass: 2
Flags: MW
HStem: 711 20G<324 337.5>
VStem: 82 72<112 191.5>
LayerCount: 2
Fore
SplineSet
237 -180 m 1
 224 -195 212 -203 201 -203 c 0
 177 -203 151 -166 124 -92 c 0
 96 -18 82 65 82 158 c 0
 82 225 92 294 113 366 c 0
 133 438 157 500 184 552 c 0
 211 603 239 646 266 680 c 0
 294 714 316 731 332 731 c 0
 343 731 353 723 362 708 c 1
 300 645 250 561 212 457 c 0
 173 353 154 249 154 146 c 0
 154 78 162 16 176 -42 c 0
 192 -98 212 -145 237 -180 c 1
EndSplineSet
Validated: 1
Substitution2: "'sups' Superscript in Latin lookup 2 subtable" parenleft.superior
Substitution2: "'c2sc' Capitals to Small Capitals in Latin lookup 1 subtable" parenleft.sc
EndChar

StartChar: parenright
Encoding: 41 41 10
Width: 332
GlyphClass: 2
Flags: MW
HStem: 711 20G<124.5 142>
VStem: 178 71<332.5 412>
LayerCount: 2
Fore
SplineSet
94 708 m 1
 107 723 119 731 130 731 c 0
 154 731 180 693 208 618 c 0
 235 543 249 459 249 367 c 0
 249 298 239 227 218 154 c 0
 197 81 172 19 144 -31 c 0
 116 -81 89 -122 62 -154 c 0
 35 -187 14 -203 0 -203 c 0
 -11 -203 -21 -195 -30 -180 c 1
 33 -115 83 -31 121 72 c 0
 159 175 178 278 178 379 c 0
 178 445 171 508 156 566 c 0
 141 626 121 673 94 708 c 1
EndSplineSet
Validated: 1
Substitution2: "'sups' Superscript in Latin lookup 2 subtable" parenright.superior
Substitution2: "'c2sc' Capitals to Small Capitals in Latin lookup 1 subtable" parenright.sc
EndChar

StartChar: asterisk
Encoding: 42 42 11
Width: 450
GlyphClass: 2
Flags: MW
HStem: 602 60 723 20G<274.5 293.5>
VStem: 247 74
LayerCount: 2
Fore
SplineSet
247 738 m 1
 258 741 269 743 280 743 c 0
 307 743 321 732 321 711 c 0
 321 701 314 667 299 610 c 1
 326 625 362 648 408 679 c 1
 423 664 430 648 430 631 c 0
 430 623 428 616 424 610 c 0
 420 603 413 597 403 592 c 0
 393 586 385 582 378 578 c 0
 371 576 359 571 342 565 c 0
 325 559 313 555 306 552 c 1
 328 525 357 493 392 458 c 1
 373 431 353 417 332 417 c 0
 328 417 324 418 321 420 c 0
 317 421 313 424 310 428 c 0
 306 431 302 435 300 439 c 0
 296 443 293 449 289 456 c 0
 285 463 282 469 279 474 c 0
 276 479 272 487 268 496 c 0
 262 505 258 513 255 520 c 1
 229 490 198 452 163 405 c 1
 134 416 119 432 119 453 c 0
 119 468 151 502 214 555 c 1
 177 573 139 589 100 602 c 1
 105 617 112 631 122 644 c 0
 132 656 143 662 156 662 c 0
 167 662 195 646 241 613 c 1
 244 658 246 700 247 738 c 1
EndSplineSet
Validated: 1
EndChar

StartChar: plus
Encoding: 43 43 12
Width: 574
GlyphClass: 2
Flags: MW
HStem: 216 72 224 61
VStem: 251 72 254 61
LayerCount: 2
Fore
SplineSet
316 280 m 1x60
 395 280 457 283 503 288 c 1
 505 282 506 272 506 258 c 0
 506 246 503 236 496 228 c 0
 489 220 481 216 470 216 c 0
 459 216 434 217 396 220 c 0
 359 222 332 223 315 223 c 1x90
 315 150 318 85 323 26 c 1
 313 24 303 23 293 23 c 0
 282 23 272 26 264 33 c 0
 255 39 251 48 251 59 c 0xa0
 251 64 252 86 254 124 c 0
 256 161 257 195 258 224 c 1x50
 192 223 130 221 72 216 c 1
 70 226 69 236 69 246 c 0
 69 257 72 266 78 275 c 0
 84 284 93 288 105 288 c 0x90
 110 288 130 287 166 285 c 0
 200 283 232 282 259 281 c 1
 259 366 256 432 251 478 c 1
 257 480 267 481 281 481 c 0
 293 481 303 478 311 471 c 0
 319 464 323 456 323 445 c 0
 323 434 322 408 320 366 c 0
 317 326 316 297 316 280 c 1x60
EndSplineSet
Validated: 1
Substitution2: "'sups' Superscript in Latin lookup 2 subtable" plus.superior
EndChar

StartChar: comma
Encoding: 44 44 13
Width: 201
GlyphClass: 2
Flags: MW
HStem: -143 42<-1.5 3.5 -12 22.5>
VStem: 74 67<-23 64.5>
LayerCount: 2
Fore
SplineSet
74 -12 m 0
 74 15 61 31 35 37 c 1
 32 46 30 54 30 61 c 0
 30 77 36 91 49 102 c 0
 61 114 75 120 92 120 c 0
 106 120 118 114 127 104 c 0
 136 92 141 76 141 53 c 0
 141 9 127 -35 98 -78 c 0
 69 -121 39 -143 6 -143 c 0
 -9 -143 -16 -135 -16 -119 c 0
 -16 -115 -15 -109 -12 -101 c 1
 -8 -101 l 2
 15 -101 34 -92 50 -73 c 0
 66 -54 74 -34 74 -12 c 0
EndSplineSet
Validated: 1
EndChar

StartChar: hyphen
Encoding: 45 45 14
Width: 224
GlyphClass: 2
Flags: MW
HStem: 228 62<136.5 184>
VStem: 25 194<236.5 288.5>
LayerCount: 2
Fore
SplineSet
218 297 m 0
 219 294 219 291 219 286 c 0
 219 271 215 258 208 246 c 0
 201 234 191 228 177 228 c 0
 173 228 163 229 148 230 c 0
 133 232 119 233 106 233 c 0
 76 233 49 230 26 225 c 0
 25 228 25 233 25 240 c 0
 25 276 39 294 66 294 c 0
 67 294 76 293 94 292 c 0
 113 291 129 290 144 290 c 0
 173 290 197 292 218 297 c 0
EndSplineSet
Validated: 1
Substitution2: "'sups' Superscript in Latin lookup 2 subtable" hyphen.superior
EndChar

StartChar: period
Encoding: 46 46 15
Width: 204
GlyphClass: 2
Flags: MW
HStem: -10 127<87.5 89>
VStem: 30 115<35 70.5>
LayerCount: 2
Fore
SplineSet
80 -10 m 0
 66 -10 54 -5 45 4 c 0
 35 14 30 27 30 43 c 0
 30 62 37 79 50 94 c 0
 63 109 79 117 96 117 c 0
 110 117 122 112 131 101 c 0
 140 91 145 78 145 63 c 0
 145 43 139 26 126 12 c 0
 113 -3 98 -10 80 -10 c 0
EndSplineSet
Validated: 1
EndChar

StartChar: slash
Encoding: 47 47 16
Width: 243
GlyphClass: 2
Flags: MW
HStem: 722 20G<246 256.5>
VStem: -15 52 225 53<717.5 739>
LayerCount: 2
Fore
SplineSet
246 742 m 2
 267 742 278 735 278 721 c 0
 278 714 266 671 243 592 c 0
 220 514 198 440 177 368 c 0
 156 298 144 259 142 254 c 0
 127 205 107 138 82 53 c 0
 58 -32 43 -90 37 -119 c 1
 28 -121 20 -122 13 -122 c 0
 -6 -122 -15 -114 -15 -99 c 0
 -15 -91 44 111 162 507 c 0
 193 612 214 690 225 739 c 1
 246 742 l 2
EndSplineSet
Validated: 1
EndChar

StartChar: zero
Encoding: 48 48 17
Width: 574
GlyphClass: 2
Flags: MW
HStem: -10 59<229.5 269.5> 614 59<304.5 344.5>
VStem: 58 75<242.5 283.5> 442 75<380 421.5>
LayerCount: 2
Fore
SplineSet
242 -10 m 0
 184 -10 139 13 107 58 c 0
 74 104 58 167 58 246 c 0
 58 321 69 390 91 454 c 0
 112 519 144 571 187 612 c 0
 229 653 277 673 332 673 c 0
 390 673 435 650 468 605 c 0
 501 560 517 497 517 417 c 0
 517 343 506 274 485 210 c 0
 463 146 431 93 388 52 c 0
 345 11 297 -10 242 -10 c 0
133 275 m 0
 133 210 143 156 162 113 c 0
 181 70 210 49 249 49 c 0
 306 49 352 83 388 152 c 0
 424 221 442 301 442 390 c 0
 442 453 432 506 413 549 c 0
 393 592 364 614 325 614 c 0
 270 614 225 581 188 514 c 0
 151 448 133 368 133 275 c 0
EndSplineSet
Validated: 1
Substitution2: "'onum' Oldstyle Figures lookup 5 subtable" zerooldstyle
Substitution2: "'sups' Superscript in Latin lookup 2 subtable" zero.superior
EndChar

StartChar: one
Encoding: 49 49 18
Width: 574
GlyphClass: 2
Flags: MW
HStem: -1 58 653 20G<343 360.5>
VStem: 109 296<27.5 29>
LayerCount: 2
Fore
SplineSet
305 54 m 1
 348 54 381 55 403 58 c 1
 404 51 405 46 405 42 c 0
 405 13 391 -2 362 -2 c 0
 358 -2 339 -2 304 -1 c 0
 270 0 239 0 212 0 c 0
 164 0 130 0 111 -1 c 1
 110 7 109 12 109 15 c 0
 109 43 129 57 169 57 c 2
 233 57 l 1
 251 188 l 2
 260 255 268 311 274 354 c 0
 289 467 299 551 304 606 c 1
 234 599 194 594 185 592 c 1
 185 602 185 609 186 614 c 0
 189 639 203 654 228 657 c 0
 297 668 337 673 349 673 c 0
 372 673 383 663 383 642 c 0
 383 636 380 618 375 587 c 0
 370 556 363 514 354 462 c 0
 345 408 338 358 332 311 c 2
 324 249 l 2
 313 173 307 108 305 54 c 1
EndSplineSet
Validated: 1
Substitution2: "'onum' Oldstyle Figures lookup 5 subtable" oneoldstyle
Substitution2: "'sups' Superscript in Latin lookup 2 subtable" one.superior
EndChar

StartChar: two
Encoding: 50 50 19
Width: 574
GlyphClass: 2
Flags: MW
HStem: -2 63<174 296.5> 613 60<290 311.5>
VStem: 397 73<510.5 515.5>
LayerCount: 2
Fore
SplineSet
143 528 m 1
 122 531 112 541 112 557 c 0
 112 584 134 610 178 635 c 0
 222 660 267 673 313 673 c 0
 357 673 394 660 424 633 c 0
 455 606 470 569 470 520 c 0
 470 501 468 482 464 463 c 0
 461 444 454 426 445 407 c 0
 436 388 427 371 418 356 c 0
 409 341 396 324 379 305 c 0
 362 286 347 271 336 258 c 0
 324 246 306 230 283 210 c 0
 260 189 242 174 229 162 c 0
 216 152 196 135 168 112 c 0
 141 90 121 74 108 63 c 1
 129 62 157 61 191 61 c 0
 257 61 306 63 337 66 c 0
 368 69 400 77 433 89 c 1
 438 77 440 65 440 52 c 0
 440 32 431 19 412 12 c 0
 387 3 335 -2 258 -2 c 0
 233 -2 199 -2 156 -1 c 0
 113 0 83 0 66 0 c 0
 41 0 29 12 29 37 c 0
 29 43 30 51 32 60 c 1
 60 86 96 118 140 156 c 0
 185 193 219 223 244 246 c 0
 269 268 294 294 321 324 c 0
 348 353 367 382 379 410 c 0
 391 438 397 467 397 498 c 0
 397 533 388 561 368 582 c 0
 350 603 326 613 297 613 c 0
 271 613 244 605 216 590 c 0
 188 574 164 553 143 528 c 1
EndSplineSet
Validated: 1
Substitution2: "'onum' Oldstyle Figures lookup 5 subtable" twooldstyle
Substitution2: "'sups' Superscript in Latin lookup 2 subtable" two.superior
EndChar

StartChar: three
Encoding: 51 51 20
Width: 574
GlyphClass: 2
Flags: MW
HStem: -10 59<158 208.5 158 210> 326 49<184 202 170 218.5> 614 59<278 299.5>
VStem: 348 75<192 221.5> 371 75<523 537.5>
LayerCount: 2
Fore
SplineSet
324 364 m 1xe8
 390 330 423 283 423 223 c 0
 423 161 400 107 354 60 c 0
 309 13 248 -10 172 -10 c 0
 127 -10 94 -4 72 8 c 0
 49 19 38 33 38 48 c 0
 38 59 42 69 50 76 c 0
 57 83 67 88 78 89 c 1
 97 62 132 49 184 49 c 0
 233 49 273 65 303 96 c 0
 333 128 348 164 348 204 c 0xf0
 348 239 335 268 309 291 c 0
 283 314 244 326 193 326 c 0
 175 326 166 335 166 352 c 0
 166 359 167 367 170 375 c 1
 234 375 284 390 318 419 c 0
 354 449 371 484 371 525 c 0xe8
 371 550 364 571 348 588 c 0xf0
 334 605 313 614 286 614 c 0
 263 614 239 607 216 594 c 0
 192 581 172 561 155 536 c 1
 144 536 135 539 128 544 c 0
 122 549 119 556 119 564 c 0
 119 589 138 613 176 637 c 0
 215 661 256 673 300 673 c 0
 347 673 384 660 408 635 c 0
 434 610 446 578 446 541 c 0
 446 505 436 472 415 441 c 0
 394 410 364 385 324 364 c 1xe8
EndSplineSet
Validated: 1
Substitution2: "'onum' Oldstyle Figures lookup 5 subtable" threeoldstyle
Substitution2: "'sups' Superscript in Latin lookup 2 subtable" three.superior
EndChar

StartChar: four
Encoding: 52 52 21
Width: 574
GlyphClass: 2
Flags: MW
HStem: -10 21G<335.5 350.5> 208 65 654 20G<421 437.5>
VStem: 303 76<21.5 75>
LayerCount: 2
Fore
SplineSet
129 273 m 1
 161 271 194 270 229 270 c 0
 267 270 303 271 336 273 c 1
 349 369 364 471 380 579 c 1
 309 508 225 406 129 273 c 1
383 661 m 0
 394 670 410 674 432 674 c 0
 443 674 453 673 461 671 c 1
 431 496 411 365 401 276 c 1
 448 280 479 286 495 293 c 1
 498 284 499 275 499 267 c 0
 499 240 491 223 474 218 c 0
 459 213 432 210 393 209 c 1
 384 144 379 93 379 57 c 0
 379 34 380 15 383 -2 c 1
 371 -7 358 -10 343 -10 c 0
 328 -10 317 -7 312 -1 c 0
 306 5 303 15 303 28 c 0
 303 36 311 96 328 208 c 1
 195 208 111 210 76 215 c 0
 65 217 59 227 59 244 c 0
 59 258 61 271 66 284 c 0
 99 334 153 403 226 490 c 0
 299 578 352 635 383 661 c 0
EndSplineSet
Validated: 1
Substitution2: "'onum' Oldstyle Figures lookup 5 subtable" fouroldstyle
Substitution2: "'sups' Superscript in Latin lookup 2 subtable" four.superior
EndChar

StartChar: five
Encoding: 53 53 22
Width: 574
GlyphClass: 2
Flags: MW
HStem: -10 59<169.5 221 169.5 222.5> 372 57<203.5 285.5> 592 70<374 388 313 422.5> 650 20G
VStem: 366 75<222.5 252>
LayerCount: 2
Fore
SplineSet
398 592 m 0xe8
 350 592 292 594 224 598 c 1
 189 423 l 1
 212 427 234 429 255 429 c 0
 316 429 363 413 394 382 c 0
 425 351 441 310 441 259 c 0
 441 186 417 122 369 69 c 0
 322 16 260 -10 185 -10 c 0
 140 -10 106 -4 83 8 c 0
 61 20 50 34 50 49 c 0
 50 60 54 69 62 76 c 0
 70 83 80 88 91 89 c 1
 108 62 143 49 196 49 c 0
 246 49 287 68 318 105 c 0
 350 143 366 185 366 232 c 0
 366 272 353 305 327 332 c 0
 301 359 264 372 217 372 c 0
 190 372 164 370 139 367 c 1
 135 372 133 381 133 394 c 0
 133 395 149 485 180 664 c 1
 198 663 260 662 366 662 c 0xe8
 410 662 445 665 472 670 c 1xd8
 475 663 477 651 477 636 c 0
 474 607 447 592 398 592 c 0xe8
EndSplineSet
Validated: 1
Substitution2: "'onum' Oldstyle Figures lookup 5 subtable" fiveoldstyle
Substitution2: "'sups' Superscript in Latin lookup 2 subtable" five.superior
EndChar

StartChar: six
Encoding: 54 54 23
Width: 574
GlyphClass: 2
Flags: MW
HStem: -10 59<225 277.5> 334 57<294.5 310.5> 613 60<413.5 433.5>
VStem: 82 71<149 210 149 225.5> 399 75<204.5 236>
LayerCount: 2
Fore
SplineSet
295 334 m 0
 250 334 205 314 158 274 c 1
 155 246 153 221 153 199 c 0
 153 99 189 49 261 49 c 0
 303 49 336 66 362 100 c 0
 386 135 399 174 399 218 c 0
 399 254 390 282 370 303 c 0
 352 324 326 334 295 334 c 0
245 -10 m 0
 136 -10 82 59 82 198 c 0
 82 253 91 308 108 364 c 0
 125 419 148 470 178 516 c 0
 207 562 245 600 291 629 c 0
 337 658 387 673 440 673 c 0
 463 673 475 663 475 644 c 0
 475 633 472 621 466 609 c 1
 450 612 438 613 429 613 c 0
 362 613 305 586 260 531 c 0
 214 476 183 409 166 330 c 1
 217 371 268 391 321 391 c 0
 365 391 402 377 431 349 c 0
 460 321 474 283 474 235 c 0
 474 174 452 118 408 66 c 0
 364 16 310 -10 245 -10 c 0
EndSplineSet
Validated: 1
Substitution2: "'onum' Oldstyle Figures lookup 5 subtable" sixoldstyle
Substitution2: "'sups' Superscript in Latin lookup 2 subtable" six.superior
EndChar

StartChar: seven
Encoding: 55 55 24
Width: 574
GlyphClass: 2
Flags: MW
HStem: -10 21G<116 129.5> 592 70<215.5 223> 650 20G
LayerCount: 2
Fore
SplineSet
448 597 m 1xc0
 353 594 264 592 182 592 c 0xc0
 139 592 117 605 117 630 c 0
 117 643 121 657 130 670 c 1xa0
 161 665 196 662 235 662 c 0
 393 662 488 663 520 664 c 1
 522 655 523 646 523 637 c 0
 523 619 519 603 512 589 c 0
 484 524 377 348 191 59 c 0
 162 13 138 -10 121 -10 c 0
 111 -10 100 -6 89 3 c 0
 77 11 68 20 63 29 c 1
 124 88 195 178 274 300 c 0
 353 420 411 520 448 597 c 1xc0
EndSplineSet
Validated: 1
Substitution2: "'sups' Superscript in Latin lookup 2 subtable" seven.superior
EndChar

StartChar: eight
Encoding: 56 56 25
Width: 574
GlyphClass: 2
Flags: MW
HStem: -10 59<239 279 239 285> 614 59<314.5 344.5>
VStem: 71 72<143 171.5> 143 70<504.5 527> 403 73<176.5 212.5> 429 68<511.5 552.5>
LayerCount: 2
Fore
SplineSet
331 614 m 0xd4
 298 614 270 605 247 587 c 0
 224 569 213 546 213 518 c 0
 213 491 222 469 239 450 c 0
 257 431 283 414 318 398 c 1
 392 433 429 481 429 542 c 0
 429 563 420 581 400 594 c 0
 382 607 358 614 331 614 c 0xd4
257 49 m 0
 301 49 336 64 363 93 c 0
 390 122 403 157 403 196 c 0
 403 229 393 255 373 276 c 0
 353 297 322 317 280 337 c 1
 189 296 143 237 143 158 c 0xe8
 143 128 153 102 173 81 c 0
 193 60 221 49 257 49 c 0
249 -10 m 0
 191 -10 147 5 116 35 c 0
 86 64 71 101 71 145 c 0xe8
 71 198 86 244 115 281 c 0
 144 318 181 346 226 367 c 1
 171 400 143 445 143 502 c 0
 143 552 162 593 200 625 c 0
 237 657 284 673 339 673 c 0
 384 673 421 662 452 639 c 0
 482 616 497 586 497 549 c 0xd4
 497 470 455 409 371 367 c 1
 404 348 430 326 448 301 c 0
 467 276 476 243 476 204 c 0
 476 146 456 96 416 54 c 0
 377 11 321 -10 249 -10 c 0
EndSplineSet
Validated: 1
Substitution2: "'onum' Oldstyle Figures lookup 5 subtable" eightoldstyle
Substitution2: "'sups' Superscript in Latin lookup 2 subtable" eight.superior
EndChar

StartChar: nine
Encoding: 57 57 26
Width: 574
GlyphClass: 2
Flags: MW
HStem: -9 60<147 166> 273 57<269.5 285.5> 615 59<301.5 355>
VStem: 106 75<428 459.5> 427 71<454 515>
LayerCount: 2
Fore
SplineSet
285 330 m 0
 330 330 375 350 422 390 c 1
 425 418 427 443 427 465 c 0
 427 565 391 615 319 615 c 0
 277 615 244 598 218 564 c 0
 194 529 181 490 181 446 c 0
 181 410 190 382 210 361 c 0
 228 340 254 330 285 330 c 0
334 674 m 0
 443 674 498 605 498 468 c 0
 498 413 490 358 473 303 c 0
 456 247 433 196 403 149 c 0
 373 102 335 64 289 35 c 0
 243 6 193 -9 139 -9 c 0
 117 -9 106 0 106 18 c 0
 106 29 108 41 113 55 c 1
 130 52 143 51 151 51 c 0
 218 51 275 78 320 133 c 0
 366 188 397 255 414 334 c 1
 363 293 312 273 259 273 c 0
 215 273 178 287 149 315 c 0
 120 343 106 381 106 429 c 0
 106 490 128 546 171 598 c 0
 215 648 269 674 334 674 c 0
EndSplineSet
Validated: 1
Substitution2: "'onum' Oldstyle Figures lookup 5 subtable" nineoldstyle
Substitution2: "'sups' Superscript in Latin lookup 2 subtable" nine.superior
EndChar

StartChar: colon
Encoding: 58 58 27
Width: 224
GlyphClass: 2
Flags: MW
HStem: -10 127<87.5 89> 351 127<135.5 137>
VStem: 30 115<35 70.5> 78 115<396 431.5>
LayerCount: 2
Fore
SplineSet
80 -10 m 0xe0
 66 -10 54 -5 45 4 c 0
 35 14 30 27 30 43 c 0
 30 62 37 79 50 94 c 0
 63 109 79 117 96 117 c 0
 110 117 122 112 131 101 c 0
 140 91 145 78 145 63 c 0
 145 43 139 26 126 12 c 0
 113 -3 98 -10 80 -10 c 0xe0
128 351 m 0
 114 351 102 356 93 365 c 0
 83 375 78 388 78 404 c 0
 78 423 85 440 98 455 c 0
 111 470 127 478 144 478 c 0
 158 478 170 473 179 462 c 0
 188 452 193 439 193 424 c 0xd0
 193 404 187 387 174 372 c 0
 161 358 146 351 128 351 c 0
EndSplineSet
Validated: 1
EndChar

StartChar: semicolon
Encoding: 59 59 28
Width: 221
GlyphClass: 2
Flags: MW
HStem: -143 42<-1.5 3.5 -12 22.5> 351 127<116.5 118>
VStem: 59 115<396 431.5> 74 67<-23 64.5>
LayerCount: 2
Fore
SplineSet
109 351 m 0xe0
 95 351 83 356 74 365 c 0xd0
 64 375 59 388 59 404 c 0
 59 423 66 440 79 455 c 0
 92 470 108 478 125 478 c 0
 139 478 151 473 160 462 c 0
 169 452 174 439 174 424 c 0
 174 404 168 387 155 372 c 0
 142 358 127 351 109 351 c 0xe0
74 -12 m 0
 74 15 61 31 35 37 c 1
 32 46 30 54 30 61 c 0
 30 77 36 91 49 102 c 0
 61 114 75 120 92 120 c 0
 106 120 118 114 127 103 c 0
 136 92 141 76 141 53 c 0
 141 9 127 -35 98 -78 c 0
 69 -121 39 -143 6 -143 c 0
 -9 -143 -16 -135 -16 -119 c 0
 -16 -115 -15 -109 -12 -101 c 1
 -8 -101 l 2
 15 -101 34 -92 50 -73 c 0
 66 -54 74 -34 74 -12 c 0
EndSplineSet
Validated: 1
EndChar

StartChar: less
Encoding: 60 60 29
Width: 574
GlyphClass: 2
Flags: MW
VStem: 130 320<251 438>
LayerCount: 2
Fore
SplineSet
206 251 m 1
 231 223 294 157 395 52 c 1
 381 29 363 18 342 18 c 0
 333 18 325 22 318 29 c 2
 130 251 l 1
 379 461 l 2
 388 468 397 472 405 472 c 0
 415 472 424 468 433 462 c 0
 441 454 447 447 450 438 c 1
 372 378 l 1
 261 293 l 2
 227 267 209 253 206 251 c 1
EndSplineSet
Validated: 1
EndChar

StartChar: equal
Encoding: 61 61 30
Width: 574
GlyphClass: 2
Flags: MW
HStem: 116 72 124 57<277.5 303.5> 316 72 324 57<277.5 303.5>
LayerCount: 2
Fore
SplineSet
486 158 m 0x80
 486 146 483 136 476 128 c 0
 469 120 461 116 450 116 c 0x80
 439 116 415 117 378 120 c 0
 341 123 313 124 294 124 c 0x40
 218 124 151 121 92 116 c 1
 90 126 89 136 89 146 c 0
 89 157 92 166 98 175 c 0
 104 184 113 188 125 188 c 0x80
 127 188 148 187 188 184 c 0
 228 182 263 181 292 181 c 0x40
 379 181 442 183 483 188 c 1
 485 182 486 172 486 158 c 0x80
486 358 m 0
 486 346 483 336 476 328 c 0
 469 320 461 316 450 316 c 0x20
 439 316 415 317 378 320 c 0
 341 323 313 324 294 324 c 0x10
 218 324 151 321 92 316 c 1
 90 326 89 336 89 346 c 0
 89 357 92 366 98 375 c 0
 104 384 113 388 125 388 c 0x20
 127 388 148 387 188 384 c 0
 228 382 263 381 292 381 c 0x10
 379 381 442 383 483 388 c 1x20
 485 382 486 372 486 358 c 0
EndSplineSet
Validated: 1
EndChar

StartChar: greater
Encoding: 62 62 31
Width: 574
GlyphClass: 2
Flags: MW
VStem: 115 321
LayerCount: 2
Fore
SplineSet
360 251 m 1
 358 253 344 267 317 293 c 0
 291 319 262 347 231 378 c 0
 200 408 180 428 170 438 c 1
 175 447 183 455 193 462 c 0
 203 469 213 472 223 472 c 0
 232 472 240 468 247 461 c 2
 436 251 l 1
 186 29 l 2
 178 22 169 18 160 18 c 0
 151 18 142 21 134 28 c 0
 125 34 119 42 115 52 c 1
 254 163 336 230 360 251 c 1
EndSplineSet
Validated: 1
EndChar

StartChar: question
Encoding: 63 63 32
Width: 359
GlyphClass: 2
Flags: MW
HStem: -10 127<132 133.5> 628 56<207.5 230.5>
VStem: 76 115<36.5 72> 101 73<230.5 247.5 230.5 249.5> 289 73<549.5 576.5>
LayerCount: 2
Fore
SplineSet
141 117 m 0xe8
 155 117 167 112 176 103 c 0
 186 93 191 80 191 64 c 0
 191 45 184 28 171 13 c 0
 158 -2 142 -10 125 -10 c 0
 111 -10 99 -5 90 6 c 0
 81 16 76 29 76 44 c 0
 76 64 82 81 95 96 c 0
 108 110 123 117 141 117 c 0xe8
178 199 m 1
 163 192 149 189 138 189 c 0
 113 189 101 205 101 238 c 0
 101 261 106 283 117 305 c 0
 128 326 139 344 152 359 c 0
 165 373 182 390 202 411 c 0
 222 431 237 448 247 461 c 0
 275 498 289 533 289 566 c 0
 289 587 283 602 270 613 c 0
 257 623 241 628 220 628 c 0
 195 628 170 621 146 607 c 0
 123 593 107 575 100 553 c 1
 73 558 60 570 60 590 c 0
 60 617 75 640 106 658 c 0
 137 675 173 684 213 684 c 0
 254 684 289 674 318 653 c 0
 347 632 362 601 362 560 c 0
 362 513 342 468 303 425 c 0
 294 416 280 402 261 385 c 0
 242 368 227 354 216 343 c 0
 206 332 196 317 187 298 c 0
 178 279 174 258 174 237 c 0xd8
 174 224 175 212 178 199 c 1
EndSplineSet
Validated: 1
Substitution2: "'c2sc' Capitals to Small Capitals in Latin lookup 1 subtable" question.sc
EndChar

StartChar: at
Encoding: 64 64 33
Width: 836
GlyphClass: 2
Flags: MW
HStem: -109 61<316.5 365.5 316.5 368.5> 54 61<347 359> 69 48<525.5 576.5> 391 52<429.5 457> 534 56<499.5 567 499.5 568.5>
VStem: 90 68<112.5 158> 246 73<162.5 198.5> 692 74<350.5 407.5 350.5 417.5>
LayerCount: 2
Fore
SplineSet
336 54 m 0xdf
 309 54 287 63 270 82 c 0
 254 101 246 128 246 164 c 0
 246 233 267 297 310 356 c 0
 353 414 402 443 457 443 c 0
 514 443 561 428 597 397 c 1
 554 278 532 198 532 156 c 0
 532 130 542 117 561 117 c 0
 592 117 621 141 649 190 c 0
 678 238 692 294 692 359 c 0
 692 476 630 534 507 534 c 0
 444 534 385 513 330 472 c 0
 275 430 233 379 203 319 c 0
 173 258 158 199 158 140 c 0
 158 85 174 40 205 5 c 0
 237 -30 285 -48 348 -48 c 0
 383 -48 415 -41 445 -26 c 0
 475 -11 497 8 511 32 c 1
 536 22 549 8 549 -11 c 0
 549 -38 528 -61 485 -80 c 0
 443 -99 395 -109 342 -109 c 0
 259 -109 196 -86 154 -41 c 0
 111 4 90 61 90 132 c 0
 90 184 101 237 124 292 c 0
 146 346 176 395 214 439 c 0
 252 483 299 519 354 548 c 0
 410 576 469 590 530 590 c 0
 604 590 662 570 704 531 c 0
 745 491 766 439 766 376 c 0
 766 325 753 276 727 227 c 0
 701 178 670 140 634 112 c 0
 598 83 565 69 535 69 c 0xbf
 516 69 501 76 489 88 c 0
 477 102 470 121 467 146 c 1
 426 85 382 54 336 54 c 0xdf
468 204 m 1
 473 223 481 254 491 297 c 0
 502 339 507 361 508 363 c 0
 489 382 468 391 446 391 c 0
 412 391 382 370 357 329 c 0
 332 287 319 239 319 186 c 0
 319 139 333 115 361 115 c 0xdf
 377 115 395 123 414 138 c 0
 434 153 452 175 468 204 c 1
EndSplineSet
Validated: 1
EndChar

StartChar: A
Encoding: 65 65 34
Width: 528
GlyphClass: 2
Flags: MW
HStem: -13 21G 209 59
VStem: -10 87 425 86
LayerCount: 2
Fore
SplineSet
313 569 m 1
 306 553 294 526 278 488 c 0
 261 450 245 412 228 376 c 0
 211 338 195 303 178 268 c 1
 226 267 263 266 288 266 c 0
 325 266 353 267 371 268 c 1
 359 322 340 422 313 569 c 1
384 209 m 1
 317 208 277 207 264 207 c 0
 249 207 211 208 150 209 c 1
 143 193 131 168 116 134 c 0
 101 100 88 71 77 48 c 0
 66 24 58 4 53 -13 c 1
 38 -12 24 -9 11 -2 c 0
 -3 5 -10 15 -10 28 c 0
 -10 34 -3 51 11 79 c 0
 24 107 45 148 72 202 c 0
 99 256 122 301 139 336 c 0
 216 497 263 604 278 659 c 1
 302 662 317 663 323 663 c 0
 339 663 351 659 358 652 c 0
 365 645 371 631 375 610 c 0
 377 601 382 573 390 525 c 0
 399 477 407 433 415 394 c 0
 423 354 431 316 440 280 c 0
 469 151 493 61 511 10 c 1
 492 -3 476 -10 462 -10 c 0
 441 -10 429 -1 425 17 c 0
 416 59 402 123 384 209 c 1
EndSplineSet
Validated: 1
Substitution2: "'c2sc' Capitals to Small Capitals in Latin lookup 1 subtable" a.sc
EndChar

StartChar: B
Encoding: 66 66 35
Width: 509
GlyphClass: 2
Flags: MW
HStem: -10 61<226.5 256.5 226.5 275.5> 331 50<235.5 272.5> 612 61<258 309 252.5 310.5>
VStem: 384 82<191.5 230.5> 401 82<511 547.5>
LayerCount: 2
Fore
SplineSet
265 612 m 0xe8
 251 612 231 611 206 608 c 1
 197 520 189 445 182 383 c 1
 201 382 216 381 227 381 c 0
 343 381 401 426 401 515 c 0
 401 580 356 612 265 612 c 0xe8
236 51 m 0
 277 51 312 66 341 95 c 0
 370 124 384 163 384 211 c 0xf0
 384 250 372 280 347 300 c 0
 322 321 291 331 254 331 c 0
 217 331 191 329 174 326 c 1
 164 255 150 176 131 87 c 1
 140 78 155 69 176 62 c 0
 197 55 217 51 236 51 c 0
51 56 m 1
 70 130 88 240 107 387 c 0
 123 510 131 601 131 660 c 1
 177 669 226 673 279 673 c 0
 339 673 388 662 426 640 c 0
 464 618 483 581 483 530 c 0xe8
 483 492 475 458 458 427 c 0
 441 396 417 375 386 362 c 1
 439 334 466 289 466 227 c 0xf0
 466 156 444 98 401 55 c 0xe8
 358 12 306 -10 245 -10 c 0
 156 -10 92 12 51 56 c 1
EndSplineSet
Validated: 1
Substitution2: "'c2sc' Capitals to Small Capitals in Latin lookup 1 subtable" b.sc
EndChar

StartChar: C
Encoding: 67 67 36
Width: 517
GlyphClass: 2
Flags: MW
HStem: -10 61<267.5 307.5> 612 61<329.5 368.5>
VStem: 48 83<252.5 324.5> 473 59
LayerCount: 2
Fore
SplineSet
427 134 m 1
 456 122 470 106 470 87 c 0
 470 62 451 39 414 20 c 0
 377 0 333 -10 282 -10 c 0
 209 -10 152 15 111 64 c 0
 69 114 48 181 48 264 c 0
 48 385 79 483 140 559 c 0
 201 635 281 673 378 673 c 0
 422 673 459 664 488 644 c 0
 517 626 532 602 532 574 c 0
 532 557 526 544 516 534 c 0
 504 523 490 517 473 514 c 1
 466 547 451 571 429 588 c 0
 407 604 382 612 355 612 c 0
 290 612 236 579 194 514 c 0
 152 449 131 373 131 287 c 0
 131 218 145 161 172 117 c 0
 200 73 241 51 294 51 c 0
 349 51 393 79 427 134 c 1
EndSplineSet
Validated: 1
Substitution2: "'c2sc' Capitals to Small Capitals in Latin lookup 1 subtable" c.sc
EndChar

StartChar: D
Encoding: 68 68 37
Width: 582
GlyphClass: 2
Flags: MW
HStem: -10 61<223.5 267 223.5 268.5> 612 61<258 298.5>
VStem: 479 84<368 420.5>
LayerCount: 2
Fore
SplineSet
51 53 m 1
 70 142 88 244 104 359 c 0
 120 474 129 575 131 661 c 1
 167 669 214 673 273 673 c 0
 466 673 563 583 563 404 c 0
 563 332 551 265 526 204 c 0
 501 142 464 91 412 50 c 0
 362 10 302 -10 235 -10 c 0
 152 -10 91 11 51 53 c 1
208 608 m 1
 193 424 168 250 134 87 c 1
 163 63 201 51 246 51 c 0
 288 51 325 62 357 84 c 0
 389 105 413 133 430 168 c 0
 447 202 459 237 467 274 c 0
 475 310 479 346 479 382 c 0
 479 459 460 516 424 554 c 0
 386 593 333 612 264 612 c 0
 252 612 233 611 208 608 c 1
EndSplineSet
Validated: 1
Substitution2: "'c2sc' Capitals to Small Capitals in Latin lookup 1 subtable" d.sc
EndChar

StartChar: E
Encoding: 69 69 38
Width: 453
GlyphClass: 2
Flags: MW
HStem: -3 62<206 227 197 277.5> 323 63<181 209.5> 601 64<287.5 328.5>
VStem: 60 85<28 78> 127 78
LayerCount: 2
Fore
SplineSet
454 580 m 1xe8
 422 594 367 601 290 601 c 0
 267 601 239 600 205 598 c 1xe8
 204 567 196 496 181 386 c 1
 272 386 329 387 351 390 c 1
 352 379 353 372 353 368 c 0
 353 341 338 326 308 324 c 0
 292 323 247 323 172 323 c 1
 154 182 145 95 145 61 c 1
 164 60 185 59 209 59 c 0
 245 59 282 61 318 66 c 0
 356 71 380 76 392 82 c 1
 397 64 400 50 400 40 c 0
 400 21 390 9 368 4 c 0
 348 -1 307 -3 248 -3 c 0
 164 -3 113 -2 96 -1 c 0
 83 0 73 3 68 8 c 0
 63 13 60 22 60 34 c 0xf0
 60 53 71 143 94 306 c 0
 116 469 127 577 127 631 c 0
 127 643 127 651 126 656 c 1
 191 662 256 665 319 665 c 0
 405 665 453 660 463 650 c 0
 466 646 468 640 468 631 c 0
 468 614 463 597 454 580 c 1xe8
EndSplineSet
Validated: 1
Substitution2: "'c2sc' Capitals to Small Capitals in Latin lookup 1 subtable" e.sc
EndChar

StartChar: F
Encoding: 70 70 39
Width: 434
GlyphClass: 2
Flags: MW
HStem: -3 21G<88 112> 323 63<182 211> 601 64<291.5 334.5>
VStem: 60 86<25 82> 128 78
LayerCount: 2
Fore
SplineSet
150 5 m 1xf0
 138 0 122 -3 102 -3 c 0
 74 -3 60 11 60 39 c 0xf0
 60 44 62 58 65 81 c 0
 68 104 74 144 82 201 c 0
 89 258 97 316 104 376 c 0
 120 498 128 583 128 631 c 0
 128 643 128 651 127 656 c 1
 192 662 258 665 325 665 c 0
 411 665 459 660 469 650 c 0
 472 646 474 640 474 631 c 0
 474 614 469 597 460 580 c 1
 428 594 373 601 296 601 c 0
 270 601 240 600 206 598 c 1xe8
 205 567 197 496 182 386 c 1
 273 386 330 387 352 390 c 1
 353 379 354 372 354 368 c 0
 354 341 339 326 309 324 c 0
 293 323 248 323 174 323 c 1
 155 184 146 98 146 66 c 0
 146 43 147 23 150 5 c 1xf0
EndSplineSet
Validated: 1
Substitution2: "'c2sc' Capitals to Small Capitals in Latin lookup 1 subtable" f.sc
EndChar

StartChar: G
Encoding: 71 71 40
Width: 549
GlyphClass: 2
Flags: MW
HStem: -10 61<267.5 307.5> 612 61<329.5 368.5>
VStem: 48 83<252.5 324.5> 428 81 473 59
LayerCount: 2
Fore
SplineSet
428 301 m 1xf0
 440 303 452 304 465 304 c 0
 494 304 509 294 509 273 c 0xf0
 509 269 507 258 504 241 c 0
 501 224 496 200 492 170 c 0
 486 141 482 112 479 85 c 0
 474 58 452 35 415 17 c 0
 378 -1 333 -10 282 -10 c 0
 209 -10 152 15 111 64 c 0
 69 114 48 181 48 264 c 0
 48 385 79 483 140 559 c 0
 201 635 281 673 378 673 c 0
 422 673 459 664 488 644 c 0
 517 626 532 602 532 574 c 0
 532 557 526 544 516 534 c 0
 504 523 490 517 473 514 c 1xe8
 466 547 451 571 429 588 c 0
 407 604 382 612 355 612 c 0
 290 612 236 579 194 514 c 0
 152 449 131 373 131 287 c 0
 131 218 145 161 172 117 c 0
 200 73 241 51 294 51 c 0
 338 51 376 64 408 91 c 1
 417 173 424 243 428 301 c 1xf0
EndSplineSet
Validated: 1
Substitution2: "'c2sc' Capitals to Small Capitals in Latin lookup 1 subtable" g.sc
EndChar

StartChar: H
Encoding: 72 72 41
Width: 599
GlyphClass: 2
Flags: MW
HStem: -3 21G<88 112 451 475> 332 59 646 20G<166.5 189.5 529.5 552.5>
VStem: 60 86<25 82.5> 134 85 423 86<25 82.5>
LayerCount: 2
Fore
SplineSet
538 666 m 0xec
 567 666 582 655 582 633 c 0
 582 630 580 619 577 601 c 0
 574 582 569 555 563 518 c 0
 557 481 552 443 547 404 c 2
 521 203 l 2
 513 144 509 99 509 66 c 0
 509 43 510 23 513 5 c 1
 501 0 485 -3 465 -3 c 0
 437 -3 423 11 423 39 c 0
 423 44 424 57 427 78 c 0
 430 99 434 125 438 156 c 0
 443 187 446 212 449 231 c 2
 461 332 l 1
 430 331 383 330 319 330 c 0
 250 330 202 331 174 332 c 1
 158 203 l 2
 150 144 146 99 146 66 c 0
 146 43 147 23 150 5 c 1
 138 0 122 -3 102 -3 c 0
 74 -3 60 11 60 39 c 0xf4
 60 44 61 56 64 78 c 0
 67 98 71 125 75 156 c 0
 80 187 83 212 86 231 c 2
 111 431 l 2
 124 531 131 608 134 663 c 1
 145 665 158 666 175 666 c 0
 204 666 219 655 219 633 c 0
 219 630 217 619 214 600 c 0
 211 581 206 552 199 513 c 0
 193 474 187 433 182 391 c 1
 211 390 259 389 328 389 c 0
 393 389 440 390 469 391 c 1
 485 518 494 609 497 663 c 1
 508 665 521 666 538 666 c 0xec
EndSplineSet
Validated: 1
Substitution2: "'c2sc' Capitals to Small Capitals in Latin lookup 1 subtable" h.sc
EndChar

StartChar: I
Encoding: 73 73 42
Width: 236
GlyphClass: 2
Flags: MW
HStem: -3 21G<88 112> 646 20G<166.5 189.5>
VStem: 60 86<25 82.5> 134 85
LayerCount: 2
Fore
SplineSet
175 666 m 0xd0
 204 666 219 655 219 633 c 0xd0
 219 630 217 619 214 601 c 0
 211 582 206 555 200 518 c 0
 194 481 189 443 184 404 c 2
 158 203 l 2
 150 144 146 99 146 66 c 0
 146 43 147 23 150 5 c 1
 138 0 122 -3 102 -3 c 0
 74 -3 60 11 60 39 c 0xe0
 60 44 62 58 65 83 c 0
 68 107 74 152 83 219 c 0
 92 285 102 356 111 431 c 0
 124 531 131 608 134 663 c 1
 145 665 158 666 175 666 c 0xd0
EndSplineSet
Validated: 1
Substitution2: "'c2sc' Capitals to Small Capitals in Latin lookup 1 subtable" i.sc
EndChar

StartChar: J
Encoding: 74 74 43
Width: 310
GlyphClass: 2
Flags: MW
HStem: -119 63 646 20G<242 264.5>
VStem: 208 85
LayerCount: 2
Fore
SplineSet
36 -119 m 0
 12 -119 0 -103 0 -72 c 0
 0 -65 0 -60 1 -56 c 0
 52 -51 86 -36 103 -9 c 0
 120 18 133 66 142 136 c 2
 183 431 l 2
 196 522 204 600 208 663 c 1
 220 665 234 666 250 666 c 0
 279 666 293 656 293 635 c 0
 293 628 291 615 287 594 c 0
 283 574 278 548 272 514 c 0
 265 482 260 450 256 421 c 2
 213 111 l 2
 208 74 199 42 187 13 c 0
 175 -16 162 -38 149 -54 c 0
 135 -70 120 -83 104 -94 c 0
 89 -104 76 -111 64 -114 c 0
 54 -117 44 -119 36 -119 c 0
EndSplineSet
Validated: 1
Substitution2: "'c2sc' Capitals to Small Capitals in Latin lookup 1 subtable" j.sc
EndChar

StartChar: K
Encoding: 75 75 44
Width: 497
GlyphClass: 2
Flags: MW
HStem: -10 65<441.5 443.5> -3 21G<88 112> 646 20G<166.5 189.5>
VStem: 60 86<25 82.5> 134 85 439 58
LayerCount: 2
Fore
SplineSet
175 666 m 0x6c
 204 666 219 655 219 633 c 0
 219 630 217 619 214 600 c 0
 211 582 206 554 200 517 c 0
 194 480 189 443 184 404 c 2
 180 375 l 1
 268 444 330 500 366 543 c 0
 402 587 426 629 439 668 c 1
 478 663 497 649 497 628 c 0
 497 603 472 564 423 512 c 0
 374 459 317 405 252 350 c 1
 268 313 292 264 324 205 c 0
 356 146 381 105 399 83 c 0
 415 64 432 55 451 55 c 0
 464 55 474 56 481 58 c 1
 484 48 485 39 485 32 c 0
 485 4 464 -10 423 -10 c 0xac
 392 -10 363 9 336 47 c 0
 315 78 289 120 260 173 c 0
 231 226 209 269 194 304 c 1
 191 301 186 297 179 293 c 0
 172 288 169 286 168 285 c 2
 158 203 l 2
 150 144 146 99 146 66 c 0
 146 43 147 23 150 5 c 1
 138 0 122 -3 102 -3 c 0
 74 -3 60 11 60 39 c 0x74
 60 44 62 58 65 83 c 0
 68 107 74 152 83 219 c 0
 92 285 102 356 111 431 c 0
 124 531 131 608 134 663 c 1
 145 665 158 666 175 666 c 0x6c
EndSplineSet
Validated: 1
Substitution2: "'c2sc' Capitals to Small Capitals in Latin lookup 1 subtable" k.sc
EndChar

StartChar: L
Encoding: 76 76 45
Width: 386
GlyphClass: 2
Flags: MW
HStem: -2 62<196.5 213 187.5 263.5> 646 20G<164.5 188>
VStem: 60 85<29.5 81> 133 85
LayerCount: 2
Fore
SplineSet
113 450 m 0xe0
 121 510 128 581 133 663 c 1
 143 665 156 666 173 666 c 0
 203 666 218 655 218 634 c 0xd0
 218 630 216 617 212 594 c 0
 209 572 204 543 198 506 c 0
 192 469 187 435 183 404 c 0
 158 218 146 110 145 81 c 2
 145 62 l 1
 164 61 180 60 195 60 c 0
 231 60 267 62 304 67 c 0
 341 72 366 77 378 83 c 1
 383 65 386 51 386 41 c 0
 386 22 375 10 354 5 c 0
 333 0 293 -2 234 -2 c 0
 159 -2 113 -1 96 0 c 0
 83 1 73 4 68 10 c 0
 63 15 60 24 60 35 c 0
 60 48 78 186 113 450 c 0xe0
EndSplineSet
Validated: 1
Substitution2: "'c2sc' Capitals to Small Capitals in Latin lookup 1 subtable" l.sc
EndChar

StartChar: M
Encoding: 77 77 46
Width: 760
GlyphClass: 2
Flags: MW
HStem: -3 21G<84.5 105 589.5 613.5> 647 20G<180.5 203.5 673.5 701.5>
VStem: 60 75<20.5 59> 562 87<22.5 76.5>
LayerCount: 2
Fore
SplineSet
696 436 m 2
 663 203 l 2
 654 142 649 94 649 59 c 0
 649 46 650 28 653 5 c 1
 641 0 624 -3 603 -3 c 0
 576 -3 562 10 562 35 c 0
 562 38 565 63 572 108 c 0
 579 153 589 218 601 302 c 0
 614 386 625 465 635 538 c 1
 555 402 471 223 382 2 c 1
 375 -1 365 -2 352 -2 c 0
 328 -2 314 7 310 24 c 0
 301 59 285 136 262 256 c 0
 240 376 218 471 197 541 c 1
 192 505 186 467 180 426 c 0
 175 385 170 354 167 332 c 0
 164 310 160 286 156 260 c 0
 153 234 150 215 148 203 c 0
 147 190 145 176 143 161 c 0
 141 145 140 134 139 127 c 0
 138 120 137 111 136 102 c 0
 135 93 135 85 135 79 c 2
 135 59 l 2
 135 46 136 28 139 5 c 1
 127 0 113 -3 97 -3 c 0
 72 -3 60 9 60 32 c 0
 60 37 69 104 88 231 c 2
 124 483 l 2
 131 531 134 573 134 610 c 0
 134 627 133 644 131 659 c 1
 151 664 171 667 190 667 c 0
 217 667 237 651 250 619 c 0
 264 582 277 542 289 498 c 0
 301 454 310 416 316 386 c 0
 323 354 331 313 341 260 c 0
 351 208 359 169 364 142 c 1
 443 331 525 490 609 619 c 0
 630 651 657 667 690 667 c 0
 713 667 730 664 743 659 c 1
 727 619 711 545 696 436 c 2
EndSplineSet
Validated: 1
Substitution2: "'c2sc' Capitals to Small Capitals in Latin lookup 1 subtable" m.sc
EndChar

StartChar: N
Encoding: 78 78 47
Width: 580
GlyphClass: 2
Flags: MW
HStem: -3 21G<94 108.5 439.5 456> 647 20G<160.5 179.5>
VStem: 60 76<28.5 68.5> 489 74
LayerCount: 2
Fore
SplineSet
483 1 m 1
 473 -2 462 -3 450 -3 c 0
 429 -3 414 6 406 24 c 0
 389 63 357 140 311 254 c 0
 265 367 225 461 192 534 c 1
 187 499 181 452 173 392 c 0
 165 332 159 285 154 251 c 0
 149 216 145 180 141 143 c 0
 138 106 136 78 136 59 c 0
 136 46 137 28 140 5 c 1
 128 0 115 -3 102 -3 c 0
 86 -3 75 0 69 6 c 0
 63 12 60 22 60 35 c 0
 60 41 61 55 64 76 c 0
 67 97 71 124 75 155 c 0
 80 186 83 212 86 231 c 0
 91 268 96 309 102 355 c 0
 108 401 112 436 115 459 c 0
 118 482 121 507 123 534 c 0
 126 560 127 583 127 604 c 0
 127 625 126 644 123 659 c 1
 136 664 151 667 170 667 c 0
 189 667 205 657 218 638 c 0
 269 561 340 401 432 157 c 1
 466 431 l 2
 477 518 485 596 489 663 c 1
 499 665 510 666 521 666 c 0
 549 666 563 655 563 632 c 0
 563 627 561 614 557 592 c 0
 553 571 548 542 542 506 c 0
 537 469 532 435 528 404 c 0
 524 371 518 324 510 262 c 0
 502 201 496 150 492 112 c 0
 488 72 485 36 483 1 c 1
EndSplineSet
Validated: 1
Substitution2: "'c2sc' Capitals to Small Capitals in Latin lookup 1 subtable" n.sc
EndChar

StartChar: O
Encoding: 79 79 48
Width: 628
GlyphClass: 2
Flags: MW
HStem: -10 60<265.5 317.5 265.5 332.5> 612 62<326.5 390>
VStem: 48 83<253.5 321.5> 525 84<352 414>
LayerCount: 2
Fore
SplineSet
284 -10 m 0
 210 -10 152 14 110 63 c 0
 69 112 48 179 48 263 c 0
 48 380 78 477 138 556 c 0
 197 635 275 674 370 674 c 0
 445 674 503 650 546 602 c 0
 588 553 609 487 609 402 c 0
 609 287 579 190 519 110 c 0
 459 30 381 -10 284 -10 c 0
362 612 m 0
 291 612 235 581 194 518 c 0
 152 455 131 379 131 288 c 0
 131 219 144 162 171 117 c 0
 197 72 238 50 293 50 c 0
 342 50 385 66 421 98 c 0
 457 131 483 171 500 220 c 0
 517 269 525 323 525 381 c 0
 525 447 512 502 486 546 c 0
 459 590 418 612 362 612 c 0
EndSplineSet
Validated: 1
Substitution2: "'c2sc' Capitals to Small Capitals in Latin lookup 1 subtable" o.sc
EndChar

StartChar: P
Encoding: 80 80 49
Width: 497
GlyphClass: 2
Flags: MW
HStem: -3 21G<88 112> 243 61<247 279.5 240 295.5> 612 61<258.5 291.5>
VStem: 60 86<25 79.5> 405 82<466.5 516.5>
LayerCount: 2
Fore
SplineSet
255 304 m 0
 304 304 341 322 366 358 c 0
 392 393 405 439 405 494 c 0
 405 539 393 570 370 586 c 0
 347 604 313 612 270 612 c 0
 247 612 225 611 206 608 c 1
 202 550 195 482 184 404 c 2
 174 329 l 1
 198 312 225 304 255 304 c 0
86 231 m 2
 111 431 l 2
 123 534 129 611 129 661 c 1
 174 669 220 673 268 673 c 0
 414 673 487 614 487 496 c 0
 487 418 465 356 420 311 c 0
 375 266 324 243 267 243 c 0
 227 243 194 254 167 275 c 1
 158 203 l 2
 150 143 146 96 146 63 c 0
 146 41 147 22 150 5 c 1
 138 0 122 -3 102 -3 c 0
 74 -3 60 11 60 39 c 0
 60 45 61 58 64 80 c 0
 67 100 71 126 76 158 c 0
 81 188 84 213 86 231 c 2
EndSplineSet
Validated: 1
Substitution2: "'c2sc' Capitals to Small Capitals in Latin lookup 1 subtable" p.sc
EndChar

StartChar: Q
Encoding: 81 81 50
Width: 629
GlyphClass: 2
Flags: MW
HStem: -198 67<509.5 552.5 494.5 567.5> 612 62<326.5 390>
VStem: 48 83<253.5 321.5> 525 84<352 414>
LayerCount: 2
Fore
SplineSet
362 612 m 0
 291 612 235 581 194 518 c 0
 152 455 131 379 131 288 c 0
 131 219 144 162 171 118 c 0
 197 72 238 50 293 50 c 0
 342 50 385 66 421 98 c 0
 457 131 483 172 500 220 c 0
 517 270 525 323 525 381 c 0
 525 447 512 502 486 546 c 0
 459 590 418 612 362 612 c 0
315 -8 m 1
 330 -44 356 -74 394 -96 c 0
 431 -120 472 -131 517 -131 c 0
 588 -131 637 -104 664 -49 c 1
 693 -64 707 -82 707 -103 c 0
 707 -133 692 -156 661 -173 c 0
 630 -190 591 -198 544 -198 c 0
 475 -198 414 -183 361 -152 c 0
 308 -121 272 -73 253 -8 c 1
 188 -1 138 26 102 74 c 0
 66 122 48 185 48 263 c 0
 48 380 78 477 138 556 c 0
 197 635 275 674 370 674 c 0
 445 674 503 650 546 602 c 0
 588 553 609 487 609 402 c 0
 609 294 582 201 529 123 c 0
 475 44 404 1 315 -8 c 1
EndSplineSet
Validated: 1
Substitution2: "'c2sc' Capitals to Small Capitals in Latin lookup 1 subtable" q.sc
EndChar

StartChar: R
Encoding: 82 82 51
Width: 516
GlyphClass: 2
Flags: MW
HStem: -10 65<446 452> -3 21G<88 112> 612 61<259.5 283.5 244.5 296.5>
VStem: 60 86<25 79> 405 82<473.5 518.5>
LayerCount: 2
Fore
SplineSet
401 84 m 0x78
 415 65 434 55 458 55 c 0
 471 55 482 56 492 58 c 1
 495 51 496 43 496 36 c 0
 496 5 474 -10 430 -10 c 0xb8
 389 -10 358 6 339 38 c 0
 323 65 304 103 283 152 c 0
 262 201 245 243 234 278 c 1
 216 282 207 289 207 299 c 0
 207 307 211 317 218 328 c 1
 229 324 241 322 254 322 c 0
 301 322 338 337 365 368 c 0
 392 399 405 442 405 495 c 0
 405 542 395 573 374 588 c 0
 353 604 320 612 273 612 c 0
 246 612 224 611 206 608 c 1
 202 556 196 496 187 429 c 2
 158 203 l 2
 150 143 146 96 146 62 c 0
 146 40 147 21 150 5 c 1
 138 0 122 -3 102 -3 c 0
 74 -3 60 11 60 39 c 0
 60 46 62 59 65 80 c 0
 68 101 71 127 76 158 c 0
 81 189 84 213 86 231 c 2
 111 431 l 2
 123 528 129 605 129 661 c 1
 174 669 220 673 269 673 c 0
 298 673 325 670 350 665 c 0
 374 660 397 651 419 638 c 0
 440 626 457 608 469 586 c 0
 481 562 487 535 487 503 c 0
 487 444 471 393 438 351 c 0
 405 309 363 284 313 277 c 1
 324 243 338 206 355 168 c 0
 372 128 388 101 401 84 c 0x78
EndSplineSet
Validated: 1
Substitution2: "'c2sc' Capitals to Small Capitals in Latin lookup 1 subtable" r.sc
EndChar

StartChar: S
Encoding: 83 83 52
Width: 460
GlyphClass: 2
Flags: MW
HStem: -10 63<202.5 229.5> 607 64<277.5 291.5>
VStem: 85 73<465.5 490.5> 354 72<185.5 207>
LayerCount: 2
Fore
SplineSet
402 531 m 1
 395 553 379 571 355 586 c 0
 331 600 305 607 278 607 c 0
 245 607 216 596 193 574 c 0
 170 552 158 520 158 479 c 0
 158 452 167 431 186 415 c 0
 204 399 226 387 252 379 c 0
 279 371 305 362 331 353 c 0
 358 343 380 327 398 306 c 0
 417 285 426 257 426 222 c 0
 426 149 405 92 363 51 c 0
 321 10 265 -10 194 -10 c 0
 149 -10 110 -1 76 16 c 0
 42 33 25 53 25 76 c 0
 25 101 42 122 77 137 c 1
 86 112 104 92 131 76 c 0
 158 61 187 53 218 53 c 0
 255 53 286 65 313 90 c 0
 340 115 354 150 354 194 c 0
 354 220 345 240 326 255 c 0
 308 270 286 282 259 289 c 0
 233 297 207 306 180 316 c 0
 153 325 131 342 112 365 c 0
 94 388 85 419 85 457 c 0
 85 524 106 577 149 614 c 0
 192 652 245 671 310 671 c 0
 347 671 381 664 412 649 c 0
 444 634 460 614 460 588 c 0
 460 557 441 538 402 531 c 1
EndSplineSet
Validated: 1
Substitution2: "'c2sc' Capitals to Small Capitals in Latin lookup 1 subtable" s.sc
EndChar

StartChar: T
Encoding: 84 84 53
Width: 408
GlyphClass: 2
Flags: MW
HStem: -3 21G<170 194> 602 59<187 212 296 329>
VStem: 142 86<25 82.5>
LayerCount: 2
Fore
SplineSet
46 598 m 1
 45 602 45 607 45 613 c 0
 45 630 49 642 56 648 c 0
 63 656 74 659 90 660 c 0
 105 661 138 661 187 661 c 2
 293 661 l 2
 387 661 445 662 466 664 c 1
 467 657 468 651 468 644 c 0
 468 630 464 620 458 614 c 0
 450 608 439 604 423 603 c 0
 404 602 362 602 296 602 c 1
 281 513 271 447 266 404 c 2
 240 203 l 2
 232 144 228 99 228 66 c 0
 228 43 229 23 232 5 c 1
 220 0 204 -3 184 -3 c 0
 156 -3 142 11 142 39 c 0
 142 47 146 79 154 136 c 0
 162 193 172 266 184 357 c 0
 195 448 205 529 212 602 c 1
 130 602 75 601 46 598 c 1
EndSplineSet
Validated: 1
Substitution2: "'c2sc' Capitals to Small Capitals in Latin lookup 1 subtable" t.sc
EndChar

StartChar: U
Encoding: 85 85 54
Width: 596
GlyphClass: 2
Flags: MW
HStem: -10 72<219 237.5> -3 21G<448 472> 646 20G<166.5 189.5 526.5 549.5>
VStem: 79 77<150 165.5> 134 85 420 86<25 82.5>
LayerCount: 2
Fore
SplineSet
450 274 m 1xb4
 477 477 491 607 494 663 c 1
 505 665 518 666 535 666 c 0
 564 666 579 655 579 633 c 0
 579 630 577 619 574 601 c 0
 571 582 566 555 560 518 c 0
 554 481 549 443 544 404 c 2
 518 203 l 2
 510 144 506 99 506 66 c 0
 506 43 507 23 510 5 c 1
 498 0 482 -3 462 -3 c 0x74
 434 -3 420 11 420 39 c 0
 420 45 424 76 432 132 c 1
 403 87 370 52 332 27 c 0
 293 2 256 -10 219 -10 c 0xac
 174 -10 140 6 116 38 c 0
 91 70 79 110 79 157 c 0xb4
 79 174 87 245 104 372 c 0
 121 498 131 595 134 663 c 1
 145 665 158 666 175 666 c 0
 204 666 219 655 219 633 c 0xac
 219 631 218 621 215 603 c 0
 212 585 207 558 202 524 c 0
 196 488 191 454 186 421 c 0
 166 274 156 188 156 164 c 0
 156 136 162 112 174 92 c 0
 187 72 206 62 232 62 c 0
 269 62 309 82 352 122 c 0
 395 163 428 213 450 274 c 1xb4
EndSplineSet
Validated: 1
Substitution2: "'c2sc' Capitals to Small Capitals in Latin lookup 1 subtable" u.sc
EndChar

StartChar: V
Encoding: 86 86 55
Width: 550
GlyphClass: 2
Flags: MW
HStem: -10 21G<180 209.5> 654 20G<140 166 499 525.5>
VStem: 80 74<155.5 212.5 155.5 212.5> 113 87<493.5 610.5> 465 95<515.5 620.5>
LayerCount: 2
Fore
SplineSet
113 521 m 0xd8
 113 570 104 613 86 650 c 1
 110 666 131 674 149 674 c 0
 183 674 200 642 200 579 c 0xd8
 200 545 192 483 177 392 c 0
 162 301 154 234 154 191 c 0
 154 120 166 73 191 48 c 1
 236 54 281 85 324 142 c 0
 368 199 402 265 428 340 c 0
 452 415 465 484 465 547 c 0
 465 588 459 624 448 653 c 1
 470 667 490 674 508 674 c 0
 543 674 560 647 560 594 c 0
 560 557 554 514 544 462 c 0
 532 412 516 358 494 304 c 0
 471 248 446 198 416 151 c 0
 388 104 353 66 312 36 c 0
 272 5 231 -10 188 -10 c 0
 172 -10 157 -6 142 1 c 1
 101 45 80 108 80 191 c 0xe8
 80 234 86 286 96 347 c 0
 108 408 113 466 113 521 c 0xd8
EndSplineSet
Validated: 1
Substitution2: "'c2sc' Capitals to Small Capitals in Latin lookup 1 subtable" v.sc
EndChar

StartChar: W
Encoding: 87 87 56
Width: 877
GlyphClass: 2
Flags: MW
HStem: -10 21G<179.5 229 517.5 545.5> 654 20G<140 166 826 852.5>
VStem: 80 74<155.5 212.5 155.5 212.5> 113 87<493.5 610.5> 454 95<530 540.5> 792 95<515.5 620.5>
LayerCount: 2
Fore
SplineSet
113 521 m 0xdc
 113 570 104 613 86 650 c 1
 110 666 131 674 149 674 c 0
 183 674 200 642 200 579 c 0xdc
 200 545 192 483 177 392 c 0
 162 301 154 234 154 191 c 0
 154 120 166 73 191 48 c 1
 235 54 278 84 319 138 c 0
 361 191 394 254 418 325 c 0
 442 396 454 461 454 521 c 0
 454 560 448 594 437 621 c 1
 460 634 480 641 497 641 c 0
 532 641 549 616 549 565 c 0
 549 495 531 413 495 318 c 1
 492 274 491 240 491 217 c 0
 491 129 504 73 529 48 c 1
 573 54 616 85 657 142 c 0
 699 199 732 265 756 340 c 0
 780 415 792 484 792 547 c 0
 792 588 786 624 775 653 c 1
 797 667 817 674 835 674 c 0
 870 674 887 647 887 594 c 0
 887 557 881 514 870 462 c 0
 859 412 843 358 821 304 c 0
 800 248 775 198 747 151 c 0
 719 104 685 66 646 36 c 0
 607 5 566 -10 525 -10 c 0
 510 -10 495 -6 480 1 c 1
 443 39 423 92 419 159 c 1
 348 46 271 -10 187 -10 c 0
 172 -10 157 -6 142 1 c 1
 101 45 80 108 80 191 c 0xec
 80 234 86 286 96 347 c 0
 108 408 113 466 113 521 c 0xdc
EndSplineSet
Validated: 1
Substitution2: "'c2sc' Capitals to Small Capitals in Latin lookup 1 subtable" w.sc
EndChar

StartChar: X
Encoding: 88 88 57
Width: 515
GlyphClass: 2
Flags: MW
HStem: -10 21G<436.5 452> 654 20G<141.5 149.5>
VStem: 6 63 464 66
LayerCount: 2
Fore
SplineSet
505 46 m 1
 484 9 463 -10 441 -10 c 0
 432 -10 423 -7 414 -1 c 0
 405 5 396 14 387 27 c 0
 378 40 370 53 363 66 c 0
 355 79 347 96 338 117 c 0
 329 137 322 155 316 170 c 0
 309 185 302 205 293 228 c 0
 284 251 276 268 271 281 c 1
 233 243 193 194 151 134 c 0
 109 74 82 26 69 -10 c 1
 27 0 6 16 6 37 c 0
 6 49 12 65 23 84 c 0
 34 103 50 127 73 154 c 0
 95 181 114 204 129 222 c 0
 144 239 167 264 196 295 c 0
 225 326 241 343 245 348 c 1
 206 440 178 501 160 532 c 0
 142 563 116 591 81 618 c 1
 96 644 110 661 125 669 c 0
 131 672 138 674 145 674 c 0
 154 674 164 671 173 664 c 0
 182 657 192 646 202 630 c 0
 213 614 222 600 228 588 c 0
 236 575 244 556 256 531 c 0
 266 505 274 486 279 475 c 0
 284 463 291 443 302 415 c 1
 340 460 375 507 406 558 c 0
 437 608 457 647 464 674 c 1
 508 663 530 646 530 623 c 0
 530 590 463 498 330 348 c 1
 349 297 363 259 374 232 c 0
 384 206 401 174 426 134 c 0
 451 96 477 66 505 46 c 1
EndSplineSet
Validated: 1
Substitution2: "'c2sc' Capitals to Small Capitals in Latin lookup 1 subtable" x.sc
EndChar

StartChar: Y
Encoding: 89 89 58
Width: 461
GlyphClass: 2
Flags: MW
HStem: -3 21G<199 223> 647 20G<110.5 122>
VStem: 171 86<25 82.5> 437 74
LayerCount: 2
Fore
SplineSet
50 619 m 1
 53 622 57 627 64 634 c 0
 70 641 74 646 77 648 c 2
 87 657 l 2
 92 661 96 664 100 665 c 0
 104 666 108 667 113 667 c 0
 131 667 145 656 154 633 c 0
 182 578 218 490 261 369 c 1
 295 412 332 467 371 534 c 0
 410 601 432 647 437 672 c 1
 486 672 511 658 511 631 c 0
 511 614 484 569 430 494 c 0
 376 419 327 355 282 302 c 1
 269 203 l 2
 261 144 257 99 257 66 c 0
 257 43 258 23 261 5 c 1
 249 0 233 -3 213 -3 c 0
 185 -3 171 11 171 39 c 0
 171 43 172 53 175 70 c 0
 177 87 181 118 188 163 c 0
 194 208 200 255 206 302 c 1
 143 479 91 584 50 619 c 1
EndSplineSet
Validated: 1
Substitution2: "'c2sc' Capitals to Small Capitals in Latin lookup 1 subtable" y.sc
EndChar

StartChar: Z
Encoding: 90 90 59
Width: 511
GlyphClass: 2
Flags: MW
HStem: -10 68<373.5 399.5 368.5 414.5> 15 68<135.5 153.5 135.5 161> 575 65<414.5 428> 600 67<118.5 185>
LayerCount: 2
Fore
SplineSet
141 667 m 0x10
 160 667 203 662 270 653 c 0
 337 644 386 640 418 640 c 0
 448 640 471 644 486 653 c 1
 501 638 509 618 509 595 c 0
 509 568 502 546 489 531 c 2
 210 206 l 2
 172 161 141 119 116 82 c 1
 121 83 130 83 141 83 c 0x60
 166 83 206 79 262 71 c 0
 317 62 357 58 380 58 c 0
 419 58 448 63 469 74 c 1
 476 61 480 50 480 41 c 0
 480 7 447 -10 382 -10 c 0x80
 365 -10 329 -6 274 3 c 0
 219 11 176 15 146 15 c 0
 115 15 88 11 67 3 c 1
 49 26 40 46 40 61 c 0
 40 76 46 96 58 119 c 0
 97 189 221 341 428 575 c 1x60
 401 575 359 579 302 588 c 0
 244 596 200 600 170 600 c 0
 139 600 111 594 86 581 c 1
 78 600 74 613 74 619 c 0
 74 651 96 667 141 667 c 0x10
EndSplineSet
Validated: 1
Substitution2: "'c2sc' Capitals to Small Capitals in Latin lookup 1 subtable" z.sc
EndChar

StartChar: bracketleft
Encoding: 91 91 60
Width: 381
GlyphClass: 2
Flags: MW
HStem: -190 56<159 159 159 272> 664 56<272 272>
VStem: 86 313
LayerCount: 2
Fore
SplineSet
272 664 m 1
 159 -134 l 1
 185 -133 212 -132 240 -132 c 0
 267 -132 280 -141 280 -159 c 0
 280 -168 277 -178 272 -190 c 1
 86 -190 l 1
 213 720 l 1
 399 720 l 1
 400 713 401 708 401 704 c 0
 401 676 385 662 353 662 c 0
 323 662 296 663 272 664 c 1
EndSplineSet
Validated: 1
EndChar

StartChar: backslash
Encoding: 92 92 61
Width: 258
GlyphClass: 2
Flags: MW
HStem: 722 20G<59 75>
VStem: 35 57 159 57
LayerCount: 2
Fore
SplineSet
129 113 m 0
 66 504 35 705 35 715 c 0
 35 733 47 742 71 742 c 0
 79 742 86 741 92 739 c 1
 97 682 107 604 122 507 c 2
 171 194 l 2
 201 7 216 -89 216 -94 c 0
 216 -113 205 -122 183 -122 c 0
 176 -122 168 -121 159 -119 c 1
 154 -62 144 16 129 113 c 0
EndSplineSet
Validated: 1
EndChar

StartChar: bracketright
Encoding: 93 93 62
Width: 360
GlyphClass: 2
Flags: MW
HStem: -190 58<12 42 12 166 -19 42> 662 58<125.5 153.5>
VStem: -19 312
LayerCount: 2
Fore
SplineSet
107 -134 m 1
 220 664 l 1
 195 663 168 662 139 662 c 0
 112 662 99 671 99 689 c 0
 99 698 102 708 107 720 c 1
 293 720 l 1
 166 -190 l 1
 -19 -190 l 1
 -20 -186 -20 -181 -20 -174 c 0
 -20 -146 -4 -132 28 -132 c 0
 56 -132 82 -133 107 -134 c 1
EndSplineSet
Validated: 1
EndChar

StartChar: asciicircum
Encoding: 94 94 63
Width: 470
GlyphClass: 2
Flags: MW
HStem: 417 258
LayerCount: 2
Fore
SplineSet
236 582 m 1
 133 472 72 417 52 417 c 0
 45 417 36 422 25 433 c 1
 40 459 72 499 120 552 c 0
 167 605 206 646 235 675 c 1
 264 646 303 605 350 552 c 0
 398 499 430 459 445 433 c 1
 434 422 426 417 419 417 c 0
 415 417 409 419 402 424 c 0
 395 428 386 434 376 443 c 0
 367 451 357 459 348 468 c 0
 339 476 328 486 316 498 c 0
 304 511 294 521 286 529 c 0
 279 537 269 547 258 559 c 0
 247 571 239 579 236 582 c 1
EndSplineSet
Validated: 1
EndChar

StartChar: underscore
Encoding: 95 95 64
Width: 535
GlyphClass: 2
Flags: MW
HStem: -152 72 -144 57<203 205 205 345 345 348>
LayerCount: 2
Fore
SplineSet
535 -110 m 0x80
 535 -122 532 -132 525 -140 c 0
 518 -148 510 -152 499 -152 c 0x80
 489 -152 466 -151 430 -148 c 0
 394 -145 367 -144 348 -144 c 2
 205 -144 l 2x40
 129 -144 62 -147 3 -152 c 1
 1 -142 0 -132 0 -122 c 0
 0 -111 3 -102 9 -93 c 0
 15 -84 24 -80 36 -80 c 0x80
 38 -80 59 -81 99 -84 c 0
 139 -86 174 -87 203 -87 c 2
 345 -87 l 2x40
 430 -87 492 -85 532 -80 c 1
 534 -86 535 -96 535 -110 c 0x80
EndSplineSet
Validated: 1
EndChar

StartChar: grave
Encoding: 96 96 65
Width: 201
GlyphClass: 2
Flags: MW
HStem: 525 176
VStem: -51 190<551.5 664>
LayerCount: 2
Fore
SplineSet
-26 619 m 0
 -43 630 -51 642 -51 655 c 0
 -51 673 -39 688 -16 701 c 1
 -8 691 3 680 17 667 c 0
 31 654 44 643 56 634 c 0
 68 625 81 615 95 604 c 0
 109 593 117 587 120 585 c 0
 133 576 139 566 139 557 c 0
 139 546 134 536 123 525 c 1
 114 532 91 547 54 570 c 0
 17 592 -10 608 -26 619 c 0
EndSplineSet
Validated: 1
EndChar

StartChar: a
Encoding: 97 97 66
Width: 476
GlyphClass: 2
Flags: MW
HStem: -10 50<169 176> 424 50<231 269.5>
VStem: 28 78<163 208> 318 66<44 130.5>
LayerCount: 2
Fore
SplineSet
319 104 m 1
 300 67 276 39 248 20 c 0
 220 0 191 -10 161 -10 c 0
 122 -10 90 5 65 36 c 0
 40 66 28 109 28 166 c 0
 28 250 50 322 92 383 c 0
 136 444 188 474 251 474 c 0
 319 474 379 455 430 417 c 1
 399 268 384 162 384 99 c 0
 384 72 395 51 416 36 c 1
 407 5 390 -10 365 -10 c 0
 334 -10 318 17 318 71 c 0
 318 86 318 97 319 104 c 1
326 189 m 1
 335 249 344 312 355 379 c 1
 321 409 287 424 252 424 c 0
 210 424 175 402 148 357 c 0
 120 312 106 254 106 183 c 0
 106 143 112 109 126 82 c 0
 138 54 157 40 181 40 c 0
 203 40 228 54 256 82 c 0
 284 109 307 145 326 189 c 1
EndSplineSet
Validated: 1
Substitution2: "'sups' Superscript in Latin lookup 2 subtable" a.superior
Substitution2: "'smcp' Lowercase to Small Capitals in Latin lookup 0 subtable" a.sc
EndChar

StartChar: b
Encoding: 98 98 67
Width: 474
GlyphClass: 2
Flags: MW
HStem: -10 49<200 237.5 200 246.5> 424 50<291.5 296.5> 722 20G<148.5 169.5>
VStem: 367 78<250 291.5>
LayerCount: 2
Fore
SplineSet
43 46 m 1
 57 125 74 235 94 378 c 0
 114 520 124 606 124 637 c 0
 124 670 117 688 103 691 c 1
 104 701 110 712 121 724 c 0
 131 736 142 742 155 742 c 0
 184 742 199 720 199 676 c 0
 199 631 187 535 164 389 c 1
 181 416 203 436 229 452 c 0
 254 466 279 474 304 474 c 0
 345 474 379 458 406 426 c 0
 432 393 445 348 445 290 c 0
 445 210 424 140 381 80 c 0
 338 20 282 -10 211 -10 c 0
 153 -10 97 9 43 46 c 1
150 294 m 0
 150 291 139 221 118 84 c 1
 150 54 183 39 217 39 c 0
 258 39 294 60 323 101 c 0
 352 142 367 199 367 271 c 0
 367 312 360 347 345 378 c 0
 330 409 309 424 284 424 c 0
 264 424 241 412 216 388 c 0
 191 364 169 333 150 294 c 0
EndSplineSet
Validated: 1
Substitution2: "'sups' Superscript in Latin lookup 2 subtable" b.superior
Substitution2: "'smcp' Lowercase to Small Capitals in Latin lookup 0 subtable" b.sc
EndChar

StartChar: c
Encoding: 99 99 68
Width: 413
GlyphClass: 2
Flags: MW
HStem: -10 50<209.5 240.5> 419 55<249 272>
VStem: 39 79<169 225.5 169 226.5>
LayerCount: 2
Fore
SplineSet
355 354 m 1
 349 376 337 392 318 403 c 0
 299 414 281 419 263 419 c 0
 219 419 184 397 158 353 c 0
 131 309 118 256 118 195 c 0
 118 143 128 104 149 78 c 0
 169 53 194 40 225 40 c 0
 268 40 303 61 330 102 c 1
 351 89 361 75 361 60 c 0
 361 40 347 23 319 10 c 0
 291 -3 259 -10 222 -10 c 0
 163 -10 118 6 87 39 c 0
 55 72 39 119 39 180 c 0
 39 273 64 345 113 396 c 0
 162 448 218 474 280 474 c 0
 309 474 337 468 364 456 c 0
 390 444 403 426 403 403 c 0
 403 376 387 359 355 354 c 1
EndSplineSet
Validated: 1
Substitution2: "'sups' Superscript in Latin lookup 2 subtable" c.superior
Substitution2: "'smcp' Lowercase to Small Capitals in Latin lookup 0 subtable" c.sc
EndChar

StartChar: d
Encoding: 100 100 69
Width: 477
GlyphClass: 2
Flags: MW
HStem: -10 50<170 177> 425 49<234 270.5 220.5 271.5> 722 20G<417.5 438.5>
VStem: 29 78<163 208> 319 69<44 106.5> 391 76<627.5 700>
LayerCount: 2
Fore
SplineSet
365 426 m 1
 382 545 391 616 391 639 c 0
 391 670 384 688 371 691 c 1
 372 700 378 711 389 724 c 0
 400 736 411 742 424 742 c 0
 453 742 467 721 467 679 c 0
 467 654 454 555 428 382 c 0
 401 209 388 114 388 99 c 0
 388 72 399 51 420 36 c 1
 411 5 394 -10 369 -10 c 0
 336 -10 319 17 319 71 c 0
 319 86 319 97 320 104 c 1
 301 67 277 39 249 20 c 0
 221 0 192 -10 162 -10 c 0
 123 -10 91 5 66 36 c 0
 41 66 29 109 29 166 c 0
 29 250 50 322 94 383 c 0
 136 444 189 474 252 474 c 0
 289 474 327 458 365 426 c 1
329 189 m 1
 357 378 l 1
 320 409 287 425 256 425 c 0
 212 425 176 403 148 358 c 0
 121 313 107 255 107 183 c 0
 107 143 113 109 126 82 c 0
 139 54 158 40 182 40 c 0
 204 40 229 54 258 82 c 0
 287 109 310 145 329 189 c 1
EndSplineSet
Validated: 1
Substitution2: "'sups' Superscript in Latin lookup 2 subtable" d.superior
Substitution2: "'smcp' Lowercase to Small Capitals in Latin lookup 0 subtable" d.sc
EndChar

StartChar: e
Encoding: 101 101 70
Width: 421
GlyphClass: 2
Flags: MW
HStem: -10 50<200 230.5> 185 43<109 150> 425 49<237.5 260>
VStem: 29 79 313 78<353.5 368.5>
LayerCount: 2
Fore
SplineSet
320 102 m 1
 341 89 351 75 351 60 c 0
 351 40 337 23 309 10 c 0
 281 -3 249 -10 212 -10 c 0
 153 -10 108 6 76 39 c 0
 45 72 29 119 29 180 c 0
 29 272 54 344 103 396 c 0
 153 448 208 474 267 474 c 0
 307 474 338 464 359 444 c 0
 380 425 391 400 391 370 c 0
 391 337 384 309 371 285 c 0
 358 261 342 243 323 230 c 0
 305 218 283 208 258 201 c 0
 233 194 211 189 194 188 c 0
 177 186 159 185 141 185 c 0
 132 185 121 186 108 187 c 1
 111 137 122 100 141 76 c 0
 160 52 185 40 215 40 c 0
 258 40 293 61 320 102 c 1
313 359 m 0
 313 378 307 393 296 406 c 0
 285 419 270 425 250 425 c 0
 215 425 183 406 156 370 c 0
 129 332 114 285 109 228 c 1
 128 228 143 228 156 230 c 0
 169 230 187 234 208 238 c 0
 230 244 248 250 261 258 c 0
 274 267 286 280 297 297 c 0
 308 314 313 335 313 359 c 0
EndSplineSet
Validated: 1
Substitution2: "'sups' Superscript in Latin lookup 2 subtable" e.superior
Substitution2: "'smcp' Lowercase to Small Capitals in Latin lookup 0 subtable" e.sc
EndChar

StartChar: f
Encoding: 102 102 71
Width: 316
GlyphClass: 2
Flags: MW
HStem: 409 56 657 57<273.5 305.5>
VStem: 368 48
LayerCount: 2
Fore
SplineSet
368 598 m 1
 357 637 328 657 283 657 c 0
 251 657 226 638 209 601 c 0
 192 563 181 517 178 464 c 1
 227 464 272 466 314 469 c 1
 316 462 317 455 317 449 c 0
 317 424 301 412 269 411 c 0
 254 410 221 410 172 410 c 1
 153 180 135 32 118 -34 c 0
 101 -99 78 -131 47 -131 c 0
 37 -131 28 -127 19 -118 c 0
 10 -110 4 -99 0 -84 c 1
 16 -79 30 -61 43 -28 c 0
 56 4 66 47 74 102 c 0
 82 156 88 206 92 251 c 0
 96 296 100 349 104 409 c 1
 83 408 62 407 41 404 c 1
 40 413 39 419 39 422 c 0
 39 451 58 465 97 465 c 2
 110 465 l 1
 115 540 133 600 164 645 c 0
 195 691 242 714 305 714 c 0
 334 714 359 708 382 697 c 0
 405 686 416 670 416 647 c 0
 416 620 400 603 368 598 c 1
EndSplineSet
Validated: 1
Substitution2: "'sups' Superscript in Latin lookup 2 subtable" f.superior
Substitution2: "'smcp' Lowercase to Small Capitals in Latin lookup 0 subtable" f.sc
EndChar

StartChar: g
Encoding: 103 103 72
Width: 455
GlyphClass: 2
Flags: MW
HStem: -253 50<131 166.5> -10 50<169.5 172.5> 424 51<229.5 270.5>
VStem: 28 78<161.5 207.5>
LayerCount: 2
Fore
SplineSet
181 40 m 0
 203 40 228 54 255 80 c 0
 282 108 306 144 326 189 c 1
 335 249 344 312 355 379 c 1
 323 409 289 424 252 424 c 0
 207 424 172 400 145 353 c 0
 119 306 106 249 106 183 c 0
 106 140 113 106 126 80 c 0
 140 53 158 40 181 40 c 0
251 475 m 0
 320 475 379 456 430 418 c 1
 399 287 377 161 364 40 c 0
 353 -65 331 -140 298 -185 c 0
 265 -230 207 -253 126 -253 c 0
 92 -253 63 -248 40 -237 c 0
 17 -226 5 -212 5 -194 c 0
 5 -173 20 -155 49 -141 c 1
 55 -160 66 -175 83 -186 c 0
 100 -197 120 -203 142 -203 c 0
 239 -203 293 -109 305 80 c 1
 285 49 262 26 235 12 c 0
 209 -3 184 -10 161 -10 c 0
 117 -10 84 7 61 41 c 0
 39 75 28 117 28 166 c 0
 28 249 49 322 92 383 c 0
 135 444 188 475 251 475 c 0
EndSplineSet
Validated: 1
Substitution2: "'sups' Superscript in Latin lookup 2 subtable" g.superior
Substitution2: "'smcp' Lowercase to Small Capitals in Latin lookup 0 subtable" g.sc
EndChar

StartChar: h
Encoding: 104 104 73
Width: 465
GlyphClass: 2
Flags: MW
HStem: -3 21G<72 93> 423 51<301.5 306> 722 20G<154.5 175.5>
VStem: 46 78<19.5 77.5> 128 76<629 700> 312 69<85.5 95.5> 349 70<344.5 358.5>
LayerCount: 2
Fore
SplineSet
164 382 m 1xfa
 184 411 208 433 235 450 c 0
 262 466 289 474 314 474 c 0
 347 474 373 463 391 440 c 0
 410 417 419 388 419 351 c 0xfa
 419 338 413 297 400 228 c 0
 387 158 381 115 381 99 c 0
 381 72 392 51 413 36 c 1
 404 5 387 -10 362 -10 c 0
 329 -10 312 20 312 81 c 0xfc
 312 110 318 158 330 226 c 0
 343 293 349 334 349 347 c 0
 349 370 344 389 335 403 c 0
 326 416 314 423 298 423 c 0
 272 423 243 408 212 378 c 0
 181 347 158 312 145 273 c 1
 131 166 124 95 124 60 c 0
 124 40 125 22 127 5 c 1
 115 0 101 -3 85 -3 c 0
 59 -3 46 8 46 31 c 0
 46 54 60 156 87 337 c 0
 114 518 128 619 128 639 c 0
 128 670 121 688 108 691 c 1
 109 700 115 711 126 724 c 0
 137 736 148 742 161 742 c 0
 190 742 204 721 204 679 c 0
 204 638 191 539 164 382 c 1xfa
EndSplineSet
Validated: 1
Substitution2: "'sups' Superscript in Latin lookup 2 subtable" h.superior
Substitution2: "'smcp' Lowercase to Small Capitals in Latin lookup 0 subtable" h.sc
EndChar

StartChar: i
Encoding: 105 105 74
Width: 201
GlyphClass: 2
Flags: MW
HStem: -10 21G<75.5 104.5> 454 20G<113.5 134.5> 521 107<137.5 138.5>
VStem: 42 69<85.5 96.5> 87 76<357 432> 89 99<571 576.5>
LayerCount: 2
Fore
SplineSet
132 521 m 0xe4
 119 521 109 525 101 534 c 0
 93 543 89 554 89 568 c 0
 89 585 95 599 106 610 c 0
 117 622 130 628 145 628 c 0
 157 628 167 623 176 614 c 0
 184 605 188 593 188 579 c 0
 188 563 182 549 170 538 c 0
 158 527 145 521 132 521 c 0xe4
120 474 m 0
 149 474 163 453 163 411 c 0xe8
 163 386 154 332 137 248 c 0
 120 164 111 114 111 99 c 0
 111 72 122 51 143 36 c 1
 134 5 117 -10 92 -10 c 0
 59 -10 42 20 42 81 c 0xf0
 42 112 49 162 64 229 c 0
 79 296 87 343 87 371 c 0xe8
 87 402 80 420 67 423 c 1
 68 432 74 443 85 455 c 0
 96 468 107 474 120 474 c 0
EndSplineSet
Validated: 1
Substitution2: "'sups' Superscript in Latin lookup 2 subtable" i.superior
Substitution2: "'smcp' Lowercase to Small Capitals in Latin lookup 0 subtable" i.sc
EndChar

StartChar: j
Encoding: 106 106 75
Width: 218
GlyphClass: 2
Flags: MW
HStem: -253 50<-86 -57.5> 454 20G<126.5 147.5> 521 107<150.5 151.5>
VStem: 100 76<345 432> 102 99<571 576.5>
LayerCount: 2
Fore
SplineSet
145 521 m 0xe8
 132 521 122 525 114 534 c 0
 106 543 102 554 102 568 c 0
 102 585 108 599 119 610 c 0
 130 622 143 628 158 628 c 0
 170 628 180 623 188 614 c 0
 197 605 201 593 201 579 c 0
 201 563 195 549 183 538 c 0
 171 527 158 521 145 521 c 0xe8
133 474 m 0
 162 474 176 453 176 411 c 0
 176 363 157 223 120 -9 c 0
 108 -86 86 -145 55 -188 c 0
 24 -231 -25 -253 -90 -253 c 0
 -120 -253 -146 -248 -167 -237 c 0
 -188 -226 -198 -212 -198 -194 c 0
 -198 -173 -183 -155 -154 -141 c 1
 -149 -160 -140 -175 -126 -186 c 0
 -111 -197 -95 -203 -77 -203 c 0
 -13 -203 28 -145 47 -30 c 0
 82 185 100 319 100 371 c 0xf0
 100 402 93 420 80 423 c 1
 81 432 87 443 98 455 c 0
 109 468 120 474 133 474 c 0
EndSplineSet
Validated: 1
Substitution2: "'sups' Superscript in Latin lookup 2 subtable" j.superior
Substitution2: "'smcp' Lowercase to Small Capitals in Latin lookup 0 subtable" j.sc
EndChar

StartChar: k
Encoding: 107 107 76
Width: 452
GlyphClass: 2
Flags: MW
HStem: -10 65<371.5 373.5> -3 21G<72 93> 424 50<287.5 305.5> 722 20G<149.5 170.5>
VStem: 46 78<19.5 77.5> 123 76<621.5 700> 354 79<352.5 362.5>
LayerCount: 2
Fore
SplineSet
158 371 m 1x76
 202 440 256 474 319 474 c 0
 356 474 384 465 404 446 c 0
 423 427 433 402 433 373 c 0
 433 332 418 293 387 256 c 0
 356 219 318 198 271 195 c 1
 296 137 314 100 326 84 c 0
 340 65 359 55 384 55 c 0
 393 55 402 56 412 58 c 1
 415 45 416 36 416 32 c 0
 416 4 395 -10 352 -10 c 0xb6
 341 -10 331 -8 321 -3 c 0
 311 1 302 8 293 17 c 0
 285 26 278 36 271 45 c 0
 264 54 257 66 250 81 c 0
 243 96 238 109 233 119 c 0
 229 129 223 143 216 160 c 0
 209 177 204 190 201 198 c 1
 186 203 178 210 178 219 c 0
 178 227 182 236 191 246 c 1
 210 237 229 233 246 233 c 0
 277 233 303 245 323 269 c 0
 344 293 354 321 354 352 c 0
 354 373 349 390 339 404 c 0
 330 417 315 424 296 424 c 0
 273 424 246 409 214 380 c 0
 182 350 159 314 145 273 c 1
 131 166 124 95 124 60 c 0
 124 40 125 22 127 5 c 1
 115 0 101 -3 85 -3 c 0
 59 -3 46 8 46 31 c 0x7a
 46 39 48 60 53 94 c 0
 58 128 64 170 71 221 c 0
 79 272 85 310 88 335 c 0
 111 502 123 604 123 639 c 0
 123 670 116 688 103 691 c 1
 104 700 110 711 121 724 c 0
 132 736 143 742 156 742 c 0
 185 742 199 721 199 679 c 0
 199 663 196 634 190 591 c 0
 185 548 178 504 171 456 c 0
 164 410 159 381 158 371 c 1x76
EndSplineSet
Validated: 1
Substitution2: "'sups' Superscript in Latin lookup 2 subtable" k.superior
Substitution2: "'smcp' Lowercase to Small Capitals in Latin lookup 0 subtable" k.sc
EndChar

StartChar: l
Encoding: 108 108 77
Width: 204
GlyphClass: 2
Flags: MW
HStem: -10 21G<79.5 108.5> 722 20G<144.5 165.5>
VStem: 46 69<85.5 96.5> 118 76<625.5 700>
LayerCount: 2
Fore
SplineSet
151 742 m 0
 180 742 194 721 194 679 c 0
 194 654 181 555 154 382 c 0
 128 209 115 114 115 99 c 0
 115 72 126 51 147 36 c 1
 138 5 121 -10 96 -10 c 0
 63 -10 46 20 46 81 c 0
 46 112 58 206 82 363 c 0
 106 520 118 612 118 639 c 0
 118 670 111 688 98 691 c 1
 99 700 105 711 116 724 c 0
 127 736 138 742 151 742 c 0
EndSplineSet
Validated: 1
Substitution2: "'sups' Superscript in Latin lookup 2 subtable" l.superior
Substitution2: "'smcp' Lowercase to Small Capitals in Latin lookup 0 subtable" l.sc
EndChar

StartChar: m
Encoding: 109 109 78
Width: 705
GlyphClass: 2
Flags: MW
HStem: -3 21G<72 93 322 343> 423 51<294.5 296 546 548.5>
VStem: 46 78<19.5 77.5> 296 78<19.5 77.5> 552 71<85 95.5> 589 70<344.5 358.5>
LayerCount: 2
Fore
SplineSet
395 273 m 1xf4
 381 166 374 95 374 60 c 0
 374 40 375 22 377 5 c 1
 365 0 351 -3 335 -3 c 0
 309 -3 296 8 296 31 c 0
 296 42 303 95 317 188 c 0
 331 282 338 335 338 348 c 0
 338 373 333 391 324 404 c 0
 315 417 303 423 289 423 c 0
 264 423 237 408 208 378 c 0
 178 347 157 312 145 273 c 1
 131 166 124 95 124 60 c 0
 124 40 125 22 127 5 c 1
 115 0 101 -3 85 -3 c 0
 59 -3 46 8 46 31 c 0
 46 42 53 97 68 196 c 0
 83 294 90 352 90 369 c 0
 90 401 83 419 69 423 c 1
 70 432 76 443 87 456 c 0
 98 468 109 474 122 474 c 0
 149 474 163 453 163 412 c 0
 163 400 162 388 160 376 c 1
 179 407 203 432 230 448 c 0
 257 466 282 474 307 474 c 0
 336 474 360 464 377 444 c 0
 394 424 403 398 406 366 c 1
 424 399 448 426 477 445 c 0
 506 464 533 474 559 474 c 0
 590 474 615 462 633 439 c 0
 650 416 659 387 659 351 c 0xf4
 659 338 653 297 641 227 c 0
 629 158 623 115 623 99 c 0
 623 71 633 50 653 36 c 1
 644 5 627 -10 602 -10 c 0
 569 -10 552 20 552 81 c 0xf8
 552 110 558 158 571 225 c 0
 583 293 589 334 589 347 c 0
 589 370 585 389 576 402 c 0
 567 416 556 423 541 423 c 0
 516 423 489 408 458 377 c 0
 428 347 407 312 395 273 c 1xf4
EndSplineSet
Validated: 1
Substitution2: "'sups' Superscript in Latin lookup 2 subtable" m.superior
Substitution2: "'smcp' Lowercase to Small Capitals in Latin lookup 0 subtable" m.sc
EndChar

StartChar: n
Encoding: 110 110 79
Width: 465
GlyphClass: 2
Flags: MW
HStem: -3 21G<72 93> 423 51<301 306>
VStem: 46 78<19.5 77.5> 312 69<85.5 95.5> 349 70<344.5 358.5>
LayerCount: 2
Fore
SplineSet
145 273 m 1xe8
 131 166 124 95 124 60 c 0
 124 40 125 22 127 5 c 1
 115 0 101 -3 85 -3 c 0
 59 -3 46 8 46 31 c 0
 46 40 53 95 68 195 c 0
 83 294 90 352 90 368 c 0
 90 399 83 417 69 423 c 1
 70 432 76 443 87 456 c 0
 98 468 109 474 122 474 c 0
 149 474 163 453 163 412 c 0
 163 400 162 388 160 376 c 1
 180 407 204 432 232 448 c 0
 261 466 288 474 314 474 c 0
 347 474 373 463 391 440 c 0
 410 417 419 388 419 351 c 0xe8
 419 338 413 297 400 227 c 0
 387 158 381 115 381 99 c 0
 381 72 392 51 413 36 c 1
 404 5 387 -10 362 -10 c 0
 329 -10 312 20 312 81 c 0xf0
 312 110 318 158 330 225 c 0
 343 293 349 334 349 347 c 0
 349 370 344 389 335 402 c 0
 326 416 314 423 298 423 c 0
 272 423 243 408 212 377 c 0
 181 347 158 312 145 273 c 1xe8
EndSplineSet
Validated: 1
Substitution2: "'sups' Superscript in Latin lookup 2 subtable" n.superior
Substitution2: "'smcp' Lowercase to Small Capitals in Latin lookup 0 subtable" n.sc
EndChar

StartChar: o
Encoding: 111 111 80
Width: 475
GlyphClass: 2
Flags: MW
HStem: -10 50<196 237 196 237.5> 424 50<238 279>
VStem: 29 78<171.5 222> 367 79<240.5 289>
LayerCount: 2
Fore
SplineSet
203 -10 m 0
 148 -10 106 7 75 41 c 0
 44 75 29 122 29 181 c 0
 29 263 51 332 96 389 c 0
 141 446 199 474 268 474 c 0
 323 474 367 457 398 422 c 0
 430 388 446 341 446 281 c 0
 446 200 423 131 376 74 c 0
 330 18 272 -10 203 -10 c 0
262 424 m 0
 214 424 176 401 148 354 c 0
 121 308 107 255 107 194 c 0
 107 149 116 112 134 83 c 0
 153 54 179 40 213 40 c 0
 261 40 299 63 326 108 c 0
 353 153 367 206 367 266 c 0
 367 312 358 350 340 379 c 0
 322 409 296 424 262 424 c 0
EndSplineSet
Validated: 1
Substitution2: "'sups' Superscript in Latin lookup 2 subtable" o.superior
Substitution2: "'smcp' Lowercase to Small Capitals in Latin lookup 0 subtable" o.sc
EndChar

StartChar: p
Encoding: 112 112 81
Width: 475
GlyphClass: 2
Flags: MW
HStem: -253 21G<46.5 64.5> -10 49<198.5 235 196.5 248.5> 424 50<279.5 300.5>
VStem: 13 69<-157.5 -155.5> 90 76<356 433> 368 78<253.5 302.5>
LayerCount: 2
Fore
SplineSet
151 294 m 1
 148 275 145 254 141 232 c 0
 137 208 132 182 127 152 c 0
 122 123 119 100 116 84 c 1
 147 54 179 39 214 39 c 0
 256 39 292 61 322 104 c 0
 353 147 368 206 368 281 c 0
 368 324 361 359 346 385 c 0
 332 411 313 424 288 424 c 0
 268 424 245 412 219 388 c 0
 193 364 170 333 151 294 c 1
123 475 m 0
 152 475 166 454 166 412 c 0
 166 409 165 399 164 383 c 1
 203 444 251 474 308 474 c 0
 349 474 382 460 407 431 c 0
 433 402 446 358 446 298 c 0
 446 209 423 136 376 78 c 0
 330 19 278 -10 219 -10 c 0
 178 -10 141 5 108 34 c 1
 91 -65 82 -126 82 -147 c 0
 82 -168 91 -190 109 -211 c 1
 92 -239 74 -253 55 -253 c 0
 38 -253 26 -246 21 -233 c 0
 16 -220 13 -200 13 -175 c 0
 13 -136 26 -42 51 106 c 0
 77 254 90 342 90 370 c 0
 90 403 83 421 70 424 c 1
 71 433 77 444 88 456 c 0
 99 469 110 475 123 475 c 0
EndSplineSet
Validated: 1
Substitution2: "'sups' Superscript in Latin lookup 2 subtable" p.superior
Substitution2: "'smcp' Lowercase to Small Capitals in Latin lookup 0 subtable" p.sc
EndChar

StartChar: q
Encoding: 113 113 82
Width: 456
GlyphClass: 2
Flags: MW
HStem: -254 21G<301.5 330.5> -10 50<170 190.5> 424 50<232 270.5>
VStem: 29 78<163 208> 268 69<-158.5 -148>
LayerCount: 2
Fore
SplineSet
327 189 m 1
 336 249 345 312 356 379 c 1
 322 409 288 424 253 424 c 0
 211 424 176 402 148 357 c 0
 121 312 107 254 107 183 c 0
 107 143 114 109 126 82 c 0
 140 54 158 40 182 40 c 0
 204 40 229 54 257 82 c 0
 285 109 308 145 327 189 c 1
431 417 m 1
 418 366 399 265 374 116 c 0
 349 -34 337 -121 337 -145 c 0
 337 -172 348 -193 369 -208 c 1
 360 -239 343 -254 318 -254 c 0
 285 -254 268 -224 268 -163 c 0
 268 -133 281 -52 306 80 c 1
 267 20 219 -10 162 -10 c 0
 123 -10 91 5 66 36 c 0
 41 66 29 109 29 166 c 0
 29 250 50 322 93 383 c 0
 136 444 189 474 252 474 c 0
 320 474 380 455 431 417 c 1
EndSplineSet
Validated: 1
Substitution2: "'sups' Superscript in Latin lookup 2 subtable" q.superior
Substitution2: "'smcp' Lowercase to Small Capitals in Latin lookup 0 subtable" q.sc
EndChar

StartChar: r
Encoding: 114 114 83
Width: 332
GlyphClass: 2
Flags: MW
HStem: -3 21G<71 92> 402 72
VStem: 45 78<19.5 77> 90 74<366 432.5>
LayerCount: 2
Fore
SplineSet
142 256 m 1xd0
 129 159 123 94 123 60 c 0
 123 40 124 22 126 5 c 1
 114 0 100 -3 84 -3 c 0
 58 -3 45 8 45 31 c 0xe0
 45 42 57 128 81 289 c 0
 87 334 90 361 90 371 c 0xd0
 90 402 83 420 70 423 c 1
 71 432 77 443 88 455 c 0
 99 468 110 474 123 474 c 0xe0
 150 474 164 453 164 412 c 0
 164 399 162 380 158 356 c 1
 169 381 189 407 218 434 c 0
 247 461 275 474 302 474 c 0
 329 474 343 462 343 437 c 0
 343 416 334 398 317 383 c 1
 305 396 291 402 275 402 c 0
 255 402 235 392 215 373 c 0
 195 354 180 334 168 314 c 0
 158 293 149 274 142 256 c 1xd0
EndSplineSet
Validated: 1
Substitution2: "'sups' Superscript in Latin lookup 2 subtable" r.superior
Substitution2: "'smcp' Lowercase to Small Capitals in Latin lookup 0 subtable" r.sc
EndChar

StartChar: s
Encoding: 115 115 84
Width: 368
GlyphClass: 2
Flags: MW
HStem: -10 56<152.5 167> 419 56<201.5 207.5>
VStem: 48 58<329.5 347.5> 268 57<115.5 130>
LayerCount: 2
Fore
SplineSet
296 354 m 1
 292 373 280 389 261 401 c 0
 241 413 219 419 196 419 c 0
 172 419 151 412 133 398 c 0
 115 384 106 364 106 339 c 0
 106 320 114 304 129 293 c 0
 144 282 162 274 184 269 c 0
 205 264 227 258 248 251 c 0
 269 244 288 232 303 213 c 0
 318 195 325 171 325 140 c 0
 325 91 308 53 273 28 c 0
 238 3 194 -10 140 -10 c 0
 104 -10 73 -3 46 11 c 0
 19 25 5 42 5 63 c 0
 5 88 21 104 52 112 c 1
 56 91 69 74 91 63 c 0
 112 52 138 46 167 46 c 0
 198 46 223 53 241 68 c 0
 259 82 268 99 268 120 c 0
 268 140 261 156 246 168 c 0
 231 180 212 189 191 196 c 0
 169 202 147 209 126 216 c 0
 104 223 86 236 70 253 c 0
 56 271 48 294 48 322 c 0
 48 373 65 411 100 436 c 0
 135 462 177 475 226 475 c 0
 254 475 280 469 306 456 c 0
 330 444 343 427 343 404 c 0
 343 379 327 362 296 354 c 1
EndSplineSet
Validated: 1
Substitution2: "'sups' Superscript in Latin lookup 2 subtable" s.superior
Substitution2: "'smcp' Lowercase to Small Capitals in Latin lookup 0 subtable" s.sc
EndChar

StartChar: t
Encoding: 116 116 85
Width: 314
GlyphClass: 2
Flags: MW
HStem: -10 53<187.5 205.5> 410 55<98 104>
VStem: 68 66<104.5 132.5 104.5 132.5> 123 71
LayerCount: 2
Fore
SplineSet
76 465 m 2xe0
 109 465 l 1
 110 474 112 493 116 521 c 0
 120 550 122 568 123 576 c 1
 135 579 146 580 155 580 c 0
 181 580 194 570 194 549 c 0xd0
 194 545 193 538 191 527 c 0
 189 516 187 504 184 491 c 0
 182 478 181 469 180 464 c 1
 240 464 293 466 338 469 c 1
 340 462 341 455 341 449 c 0
 341 424 325 412 293 411 c 0
 272 410 231 410 171 410 c 1
 146 241 134 145 134 120 c 0
 134 89 139 69 149 58 c 0
 160 48 176 43 199 43 c 0
 222 43 246 53 271 73 c 1
 282 62 287 51 287 39 c 0
 287 23 278 11 259 2 c 0
 240 -6 218 -10 193 -10 c 0
 110 -10 68 35 68 125 c 0
 68 140 70 162 74 193 c 0
 78 224 83 262 90 307 c 0
 97 353 101 387 104 410 c 1
 92 410 64 408 20 404 c 1
 19 413 18 419 18 422 c 0
 18 451 37 465 76 465 c 2xe0
EndSplineSet
Validated: 1
Substitution2: "'sups' Superscript in Latin lookup 2 subtable" t.superior
Substitution2: "'smcp' Lowercase to Small Capitals in Latin lookup 0 subtable" t.sc
EndChar

StartChar: u
Encoding: 117 117 86
Width: 473
GlyphClass: 2
Flags: MW
HStem: -10 51<166 174.5> 454 20G<116.5 131.5>
VStem: 53 70<105.5 119.5> 91 72<379.5 381.5> 317 66<43.5 104.5> 361 72
LayerCount: 2
Fore
SplineSet
318 104 m 1xc8
 301 72 279 45 250 23 c 0
 222 1 191 -10 158 -10 c 0
 125 -10 99 1 80 24 c 0
 62 47 53 76 53 113 c 0xe8
 53 126 59 167 72 237 c 0
 85 306 91 349 91 365 c 0xd0
 91 398 84 418 70 423 c 1
 73 434 79 446 89 457 c 0
 99 468 110 474 123 474 c 0xe0
 140 474 150 468 155 455 c 0
 160 442 163 421 163 394 c 0xd0
 163 365 156 317 143 250 c 0
 130 182 123 138 123 117 c 0
 123 94 127 75 136 62 c 0
 145 48 158 41 174 41 c 0
 200 41 229 56 260 87 c 0
 291 117 314 152 327 191 c 1
 347 324 358 415 361 464 c 1
 373 467 384 469 394 469 c 0
 420 469 433 458 433 437 c 0xe4
 433 430 425 377 408 277 c 0
 391 177 383 116 383 93 c 0
 383 68 394 49 415 36 c 1
 412 25 406 14 397 5 c 0
 389 -5 378 -10 365 -10 c 0
 333 -10 317 17 317 70 c 0
 317 85 317 97 318 104 c 1xc8
EndSplineSet
Validated: 1
Substitution2: "'sups' Superscript in Latin lookup 2 subtable" u.superior
Substitution2: "'smcp' Lowercase to Small Capitals in Latin lookup 0 subtable" u.sc
EndChar

StartChar: v
Encoding: 118 118 87
Width: 402
GlyphClass: 2
Flags: MW
HStem: -10 21G<120.5 146> 454 20G<98.5 120.5 355.5 376>
VStem: 51 67<110.5 147 110.5 147> 71 79<346.5 429.5> 329 73<353 430.5>
LayerCount: 2
Fore
SplineSet
71 366 m 0xd8
 71 400 65 430 52 457 c 1
 73 468 91 474 106 474 c 0
 135 474 150 452 150 407 c 0xd8
 150 383 145 339 134 274 c 0
 123 209 118 162 118 132 c 0
 118 89 124 59 137 40 c 1
 164 43 190 56 215 81 c 0
 240 106 260 135 276 169 c 0
 292 203 305 238 315 273 c 0
 324 309 329 340 329 366 c 0
 329 407 324 438 314 459 c 1
 331 469 348 474 363 474 c 0
 389 474 402 452 402 409 c 0
 402 378 395 339 382 293 c 0
 368 247 350 201 326 155 c 0
 304 110 274 71 238 38 c 0
 202 6 165 -10 127 -10 c 0
 114 -10 102 -7 91 -2 c 1
 64 27 51 71 51 132 c 0xe8
 51 162 54 199 61 242 c 0
 68 286 71 327 71 366 c 0xd8
EndSplineSet
Validated: 1
Substitution2: "'sups' Superscript in Latin lookup 2 subtable" v.superior
Substitution2: "'smcp' Lowercase to Small Capitals in Latin lookup 0 subtable" v.sc
EndChar

StartChar: w
Encoding: 119 119 88
Width: 627
GlyphClass: 2
Flags: MW
HStem: -10 21G<117.5 153.5 354.5 379.5> 454 20G<98.5 120.5 580 601>
VStem: 51 67<111 147 111 147> 71 79<346.5 429.5> 317 73<329 406.5> 554 73<348 430.5>
LayerCount: 2
Fore
SplineSet
71 366 m 0xdc
 71 400 65 430 52 457 c 1
 73 468 91 474 106 474 c 0
 135 474 150 452 150 407 c 0xdc
 150 383 145 339 134 274 c 0
 123 209 118 162 118 132 c 0
 118 90 124 59 136 40 c 1
 169 43 201 63 230 102 c 0
 259 140 280 182 295 227 c 0
 310 272 317 312 317 346 c 0
 317 384 312 413 302 433 c 1
 319 443 336 448 351 448 c 0
 377 448 390 427 390 386 c 0
 390 349 380 302 360 245 c 0
 360 238 359 222 358 197 c 0
 356 172 355 152 355 138 c 0
 355 93 361 61 373 40 c 1
 406 43 438 65 466 106 c 0
 496 147 517 191 532 239 c 0
 547 288 554 330 554 366 c 0
 554 407 549 438 539 459 c 1
 556 469 572 474 588 474 c 0
 614 474 627 452 627 409 c 0
 627 378 620 339 607 293 c 0
 594 247 576 201 554 155 c 0
 532 110 504 71 469 38 c 0
 434 6 398 -10 361 -10 c 0
 348 -10 337 -7 327 -2 c 0
 305 22 292 56 289 101 c 1
 238 27 183 -10 124 -10 c 0
 111 -10 100 -7 90 -2 c 1
 64 27 51 71 51 132 c 0xec
 51 162 54 199 61 242 c 0
 68 286 71 327 71 366 c 0xdc
EndSplineSet
Validated: 1
Substitution2: "'sups' Superscript in Latin lookup 2 subtable" w.superior
Substitution2: "'smcp' Lowercase to Small Capitals in Latin lookup 0 subtable" w.sc
EndChar

StartChar: x
Encoding: 120 120 89
Width: 398
GlyphClass: 2
Flags: MW
HStem: -10 74<317 363> 400 74<48 108.5>
VStem: 11 52 315 56
LayerCount: 2
Fore
SplineSet
48 400 m 1
 45 409 44 417 44 424 c 0
 44 438 48 450 57 460 c 0
 65 469 75 474 87 474 c 0
 130 474 175 412 220 287 c 1
 277 361 309 423 315 473 c 0
 318 474 322 474 328 474 c 0
 341 474 352 471 360 464 c 0
 367 457 371 449 371 438 c 0
 371 407 327 341 240 241 c 1
 245 230 251 216 258 197 c 0
 265 178 271 164 275 154 c 0
 279 144 285 132 292 119 c 0
 299 106 305 96 311 89 c 0
 317 82 325 77 334 72 c 0
 343 67 352 64 363 64 c 1
 366 55 367 47 367 40 c 0
 367 26 363 14 355 5 c 0
 346 -5 336 -10 324 -10 c 0
 310 -10 296 -3 282 10 c 0
 268 23 254 43 241 68 c 0
 228 93 218 113 212 128 c 0
 205 142 197 161 187 185 c 1
 110 101 69 37 63 -6 c 0
 60 -7 57 -7 52 -7 c 0
 39 -7 29 -3 22 4 c 0
 15 11 11 20 11 31 c 0
 11 64 63 131 168 231 c 1
 165 238 162 248 157 261 c 0
 152 274 148 284 145 290 c 0
 142 297 139 305 134 316 c 0
 129 327 126 335 122 340 c 0
 120 345 116 352 111 360 c 0
 106 367 102 373 98 377 c 0
 94 381 89 385 84 389 c 0
 79 393 73 396 67 398 c 0
 61 399 55 400 48 400 c 1
EndSplineSet
Validated: 1
Substitution2: "'sups' Superscript in Latin lookup 2 subtable" x.superior
Substitution2: "'smcp' Lowercase to Small Capitals in Latin lookup 0 subtable" x.sc
EndChar

StartChar: y
Encoding: 121 121 90
Width: 411
GlyphClass: 2
Flags: MW
HStem: -230 50<-58.5 -40.5> 454 20G<61 82 347 368>
VStem: 321 75<383 404.5>
LayerCount: 2
Fore
SplineSet
204 72 m 1
 282 201 321 308 321 395 c 0
 321 414 316 435 307 459 c 1
 324 469 340 474 354 474 c 0
 382 474 396 452 396 408 c 0
 396 358 379 294 345 216 c 0
 311 139 270 64 222 -7 c 0
 169 -86 122 -143 81 -178 c 0
 40 -213 -10 -230 -71 -230 c 0
 -101 -230 -127 -225 -148 -214 c 0
 -169 -203 -180 -189 -180 -171 c 0
 -180 -150 -165 -132 -136 -118 c 1
 -131 -137 -120 -152 -103 -163 c 0
 -87 -174 -69 -180 -48 -180 c 0
 -28 -180 -8 -175 11 -166 c 0
 30 -156 49 -142 66 -123 c 0
 83 -104 98 -87 111 -70 c 0
 123 -54 137 -34 152 -10 c 1
 148 45 132 126 104 233 c 0
 76 340 46 407 13 435 c 1
 32 461 51 474 71 474 c 0
 93 474 110 458 121 426 c 0
 145 359 173 241 204 72 c 1
EndSplineSet
Validated: 1
Substitution2: "'sups' Superscript in Latin lookup 2 subtable" y.superior
Substitution2: "'smcp' Lowercase to Small Capitals in Latin lookup 0 subtable" y.sc
EndChar

StartChar: z
Encoding: 122 122 91
Width: 391
GlyphClass: 2
Flags: MW
HStem: -10 60<266.5 287.5 266 297.5> -1 21G 8 60<83.5 121.5> 401 54<285.5 325> 414 60<87.5 134.5>
LayerCount: 2
Fore
SplineSet
103 474 m 0x08
 118 474 150 471 201 464 c 0
 251 458 288 455 312 455 c 0
 338 455 357 458 369 464 c 1
 380 453 386 439 386 422 c 0
 386 404 380 389 369 377 c 0
 242 242 151 139 96 67 c 1
 100 68 106 68 113 68 c 0x30
 130 68 158 65 195 59 c 0
 232 53 258 50 274 50 c 0
 301 50 322 54 338 62 c 1
 343 53 346 43 346 31 c 0
 346 4 322 -10 273 -10 c 0x80
 260 -10 233 -7 192 -1 c 0x40
 151 5 120 8 97 8 c 0x20
 70 8 48 5 30 -1 c 1
 17 16 11 30 11 41 c 0
 11 53 15 67 24 82 c 0
 54 133 144 239 295 401 c 1x50
 276 401 248 403 211 407 c 0
 174 412 145 414 124 414 c 0
 103 414 83 409 64 400 c 1
 59 413 56 424 56 435 c 0
 56 461 72 474 103 474 c 0x08
EndSplineSet
Validated: 1
Substitution2: "'sups' Superscript in Latin lookup 2 subtable" z.superior
Substitution2: "'smcp' Lowercase to Small Capitals in Latin lookup 0 subtable" z.sc
EndChar

StartChar: braceleft
Encoding: 123 123 92
Width: 417
GlyphClass: 2
Flags: MW
HStem: -142 59<260.5 281.5> 261 50<73 83.5> 656 59<366 400>
VStem: 138 66<-54.5 -52.5> 169 66<188.5 195.5>
LayerCount: 2
Fore
SplineSet
181 286 m 1xe8
 195 281 208 269 219 250 c 0
 230 232 235 213 235 193 c 0xe8
 235 184 230 143 220 72 c 0
 209 0 204 -40 204 -48 c 0
 204 -61 209 -70 219 -75 c 0
 228 -80 247 -83 274 -83 c 0
 304 -83 319 -92 319 -110 c 0
 319 -120 316 -130 310 -141 c 1
 301 -142 289 -142 274 -142 c 0
 223 -142 188 -135 168 -122 c 0
 148 -109 138 -88 138 -59 c 0xf0
 138 -46 143 -2 154 72 c 0
 164 145 169 183 169 186 c 0
 169 205 161 223 144 238 c 0
 127 253 101 261 66 261 c 1
 73 311 l 1
 110 311 140 320 162 338 c 0
 183 356 196 375 199 395 c 2
 199 395 201 411 206 441 c 0
 210 472 215 506 220 542 c 0
 225 578 228 599 229 604 c 0
 234 643 249 671 273 688 c 0
 296 706 337 715 395 715 c 0
 410 715 422 715 431 714 c 0
 432 712 432 709 432 705 c 0
 432 672 416 656 384 656 c 0
 348 656 325 652 314 644 c 0
 303 635 296 618 293 592 c 2
 264 393 l 2
 261 372 251 350 234 328 c 0
 216 306 198 292 181 286 c 1xe8
EndSplineSet
Validated: 1
EndChar

StartChar: bar
Encoding: 124 124 93
Width: 574
GlyphClass: 2
Flags: MW
HStem: 716 20G<274.5 294.5>
VStem: 250 76 257 61<136 351>
LayerCount: 2
Fore
SplineSet
257 136 m 2xa0
 257 444 l 2
 257 601 254 698 249 733 c 1
 260 735 270 736 279 736 c 0
 310 736 325 723 325 698 c 0
 325 695 324 677 324 644 c 0
 322 611 321 568 320 513 c 0
 319 459 318 405 318 351 c 2
 318 43 l 2xa0
 318 -114 321 -211 326 -246 c 1
 315 -248 305 -249 296 -249 c 0
 265 -249 250 -236 250 -211 c 0xc0
 250 -208 251 -190 252 -158 c 0
 253 -124 254 -81 256 -26 c 0
 256 28 257 82 257 136 c 2xa0
EndSplineSet
Validated: 1
EndChar

StartChar: braceright
Encoding: 125 125 94
Width: 417
GlyphClass: 2
Flags: MW
HStem: -142 59<27.5 50> 261 50<332.5 343> 656 59<134.5 154.5>
VStem: 180 67<377.5 382.5> 211 67<626.5 627.5>
LayerCount: 2
Fore
SplineSet
234 286 m 1xf0
 220 291 208 304 197 323 c 0
 186 342 180 362 180 381 c 0xf0
 180 384 185 422 196 496 c 0
 206 570 211 612 211 621 c 0
 211 634 206 643 197 648 c 0
 187 653 168 656 141 656 c 0
 112 656 97 665 97 683 c 0
 97 693 100 703 106 714 c 1
 115 715 127 715 142 715 c 0
 193 715 228 708 248 695 c 0
 268 682 278 661 278 632 c 0xe8
 278 621 273 579 263 505 c 0
 252 431 247 392 247 387 c 0
 247 368 256 350 273 335 c 0
 290 319 315 311 350 311 c 1
 343 261 l 1
 306 261 276 252 255 235 c 0
 233 217 220 198 217 178 c 2
 217 178 215 162 210 132 c 0
 205 100 201 67 196 32 c 2
 187 -31 l 2
 182 -70 167 -98 144 -116 c 0
 120 -133 79 -142 21 -142 c 0
 6 -142 -5 -142 -14 -141 c 0
 -15 -139 -15 -136 -15 -131 c 0
 -15 -113 -11 -100 -3 -94 c 0
 5 -86 18 -83 37 -83 c 0
 72 -83 94 -79 103 -70 c 0
 112 -62 119 -45 122 -19 c 2
 151 180 l 2
 154 201 165 222 182 244 c 0
 200 266 217 280 234 286 c 1xf0
EndSplineSet
Validated: 1
EndChar

StartChar: asciitilde
Encoding: 126 126 95
Width: 546
GlyphClass: 2
Flags: MW
HStem: 213 76<374.5 401.5> 253 76<139 155 105.5 174.5>
LayerCount: 2
Fore
SplineSet
40 267 m 0x40
 40 308 73 329 138 329 c 0x40
 172 329 216 322 269 309 c 0
 322 296 360 289 385 289 c 0
 429 289 463 301 487 324 c 1
 500 307 506 291 506 275 c 0
 506 254 494 238 470 228 c 0
 446 218 418 213 385 213 c 0x80
 364 213 329 220 278 233 c 0
 227 246 188 253 161 253 c 0
 117 253 83 241 59 218 c 1
 46 235 40 251 40 267 c 0x40
EndSplineSet
Validated: 1
EndChar

StartChar: exclamdown
Encoding: 161 161 97
Width: 296
GlyphClass: 2
Flags: MW
HStem: 348 127<177 178.5>
VStem: 60 93<-191.5 -175.5> 121 115<394.5 430> 123 70<215.5 251.5>
LayerCount: 2
Fore
SplineSet
186 475 m 0xa0
 200 475 212 470 221 461 c 0
 231 451 236 438 236 422 c 0
 236 403 229 386 216 371 c 0
 203 356 187 348 170 348 c 0
 156 348 144 353 135 364 c 0
 126 374 121 387 121 402 c 0
 121 422 127 439 140 454 c 0
 153 468 168 475 186 475 c 0xa0
60 -181 m 0xc0
 60 -170 63 -152 68 -125 c 0
 74 -98 81 -64 90 -21 c 0
 98 21 105 61 110 98 c 0
 119 168 123 209 123 222 c 0
 123 239 122 253 119 266 c 1
 134 273 147 276 158 276 c 0
 181 276 193 264 193 239 c 0x90
 193 234 186 174 173 57 c 0
 160 -60 153 -141 153 -185 c 0
 153 -198 153 -206 154 -211 c 1
 133 -216 115 -219 101 -219 c 0
 74 -219 60 -206 60 -181 c 0xc0
EndSplineSet
Validated: 1
Substitution2: "'c2sc' Capitals to Small Capitals in Latin lookup 1 subtable" exclamdown.sc
EndChar

StartChar: cent
Encoding: 162 162 98
Width: 574
GlyphClass: 2
Flags: MW
HStem: 70 56<297 314 297 314> 518 59 525 56<368 370 360 376>
VStem: 85 71<266.5 318.5 266.5 318.5> 248 42<-14 12> 338 42<663.5 681>
LayerCount: 2
Fore
SplineSet
156 288 m 0xdc
 156 245 166 211 186 185 c 0
 207 159 233 141 265 132 c 1
 320 518 l 1
 274 506 235 480 204 440 c 0
 172 399 156 349 156 288 c 0xdc
356 684 m 0
 372 684 380 677 380 664 c 0
 380 663 379 659 378 652 c 0
 377 645 376 634 373 619 c 0
 371 604 369 592 368 581 c 1
 376 581 l 2
 395 581 415 579 436 574 c 0
 458 569 478 561 496 549 c 0
 514 537 523 523 523 506 c 0
 523 494 519 484 510 474 c 0
 501 466 489 459 474 456 c 1
 447 502 413 525 370 525 c 2
 360 525 l 1xbc
 304 126 l 1
 314 126 l 2
 357 126 398 149 437 195 c 1
 462 190 474 177 474 156 c 0
 474 137 463 121 441 107 c 0
 419 93 396 83 371 78 c 0
 346 73 324 70 304 70 c 2
 297 70 l 1
 294 43 291 15 290 -14 c 1
 274 -16 l 2
 257 -16 248 -8 248 9 c 0
 248 15 251 36 257 73 c 1
 206 81 165 102 133 135 c 0
 101 168 85 215 85 276 c 0
 85 361 108 429 155 482 c 0
 202 534 259 566 328 577 c 1
 335 632 338 666 338 681 c 1
 346 683 352 684 356 684 c 0
EndSplineSet
Validated: 1
Substitution2: "'onum' Oldstyle Figures lookup 5 subtable" centoldstyle
Substitution2: "'c2sc' Capitals to Small Capitals in Latin lookup 1 subtable" cent.sc
EndChar

StartChar: sterling
Encoding: 163 163 99
Width: 574
GlyphClass: 2
Flags: MW
HStem: -3 49<319 330.5 304.5 353.5> 17 105 332 60 336 40<202 221 219 221 219 234> 608 67<344.5 349.5>
VStem: 188 70<494.5 541> 238 79<303.5 306.5> 411 59<63.5 122>
LayerCount: 2
Fore
SplineSet
447 392 m 1x2d
 448 383 449 376 449 372 c 0
 449 357 444 347 434 341 c 0
 425 335 409 332 387 332 c 0
 375 332 352 333 317 334 c 1
 317 328 l 2
 317 279 306 236 282 199 c 0
 260 162 214 118 147 69 c 1
 158 68 182 64 220 57 c 0
 256 50 290 46 319 46 c 0xab
 342 46 364 54 382 69 c 0
 402 84 411 101 411 122 c 1
 417 122 l 2
 452 122 470 107 470 77 c 0
 470 50 456 30 428 17 c 0x4b
 401 4 370 -3 337 -3 c 0
 301 -3 261 2 218 11 c 0
 174 20 140 25 117 25 c 0
 112 25 108 24 104 23 c 0
 92 6 78 -3 61 -3 c 0
 54 -3 48 -1 42 4 c 0
 38 9 35 15 35 22 c 0
 35 33 41 43 52 53 c 0
 64 62 82 69 106 73 c 1
 154 122 188 163 208 196 c 0
 228 228 238 263 238 300 c 0
 238 313 237 325 234 336 c 1
 214 336 l 2x9b
 190 336 156 335 112 332 c 1x2b
 111 336 111 341 111 347 c 0
 114 362 126 371 149 373 c 0
 157 373 170 374 188 375 c 0
 206 376 217 376 221 376 c 1x1d
 219 383 216 393 211 407 c 0
 206 420 202 431 199 439 c 0
 196 447 194 457 192 468 c 0
 189 479 188 490 188 499 c 0
 188 541 206 581 242 619 c 0
 277 656 320 675 369 675 c 0
 388 675 405 670 420 661 c 0
 435 651 442 638 442 621 c 0
 442 598 428 580 399 568 c 1
 387 595 365 608 334 608 c 0
 313 608 296 601 281 587 c 0
 266 572 258 553 258 529 c 0
 258 512 266 485 281 450 c 0
 296 414 306 391 309 380 c 1
 362 383 408 387 447 392 c 1x2d
EndSplineSet
Validated: 1
Substitution2: "'onum' Oldstyle Figures lookup 5 subtable" sterlingoldstyle
Substitution2: "'c2sc' Capitals to Small Capitals in Latin lookup 1 subtable" sterling.sc
EndChar

StartChar: yen
Encoding: 165 165 100
Width: 574
GlyphClass: 2
Flags: MW
HStem: -3 21G<227.5 247> 196 39<180.5 213 213 222 290 305 305 338> 306 39<194 224 104 227 104 237 336 364.5> 648 20G<124 140.5>
VStem: 200 73<21 70> 477 52
LayerCount: 2
Fore
SplineSet
222 196 m 1
 213 196 l 2
 148 196 97 194 61 191 c 0
 60 194 60 197 60 201 c 0
 60 224 70 235 89 235 c 2
 227 235 l 1
 237 306 l 1
 227 306 l 2
 161 306 111 304 76 301 c 0
 75 304 75 308 75 313 c 0
 75 334 85 345 104 345 c 2
 224 345 l 1
 221 352 205 392 175 463 c 0
 144 539 111 594 75 628 c 1
 94 655 114 668 134 668 c 0
 147 668 159 656 171 632 c 0
 218 537 258 448 289 363 c 1
 324 405 363 461 406 530 c 0
 449 599 472 646 477 671 c 0
 479 672 484 672 491 672 c 0
 516 672 529 662 529 642 c 0
 529 624 508 584 468 523 c 0
 426 462 383 402 336 345 c 1
 393 345 439 347 473 350 c 1
 473 343 l 2
 473 318 463 306 443 306 c 2
 300 306 l 1
 290 235 l 1
 305 235 l 2
 371 235 422 237 458 240 c 1
 458 232 l 2
 458 208 448 196 429 196 c 2
 286 196 l 1
 277 128 273 82 273 58 c 0
 273 40 274 22 277 5 c 1
 265 0 253 -3 241 -3 c 0
 214 -3 200 9 200 33 c 0
 200 38 201 46 202 59 c 0
 204 72 207 92 211 119 c 0
 215 146 219 171 222 196 c 1
EndSplineSet
Validated: 1
Substitution2: "'onum' Oldstyle Figures lookup 5 subtable" yenoldstyle
Substitution2: "'c2sc' Capitals to Small Capitals in Latin lookup 1 subtable" yen.sc
EndChar

StartChar: brokenbar
Encoding: 166 166 101
Width: 574
GlyphClass: 2
Flags: MW
HStem: 717 20G<274.5 294.5>
VStem: 249 76 257 61<-94 22>
LayerCount: 2
Fore
SplineSet
257 534 m 2xa0
 257 564 l 2xa0
 257 642 254 699 249 734 c 1
 260 736 270 737 279 737 c 0
 310 737 325 724 325 699 c 0xc0
 325 696 324 672 322 627 c 0
 319 582 318 549 318 528 c 2
 318 489 l 2
 318 409 321 345 326 297 c 1
 315 295 305 294 296 294 c 0
 265 294 250 307 250 332 c 0
 250 335 251 364 254 419 c 0
 256 474 257 512 257 534 c 2xa0
257 -9 m 2
 257 22 l 2xa0
 257 100 254 157 249 192 c 1
 260 194 270 195 279 195 c 0
 310 195 325 182 325 157 c 0xc0
 325 154 324 130 322 86 c 0
 319 41 318 8 318 -14 c 2
 318 -54 l 2
 318 -134 321 -198 326 -246 c 1
 315 -248 305 -249 296 -249 c 0
 265 -249 250 -236 250 -211 c 0
 250 -208 251 -179 254 -124 c 0
 256 -69 257 -31 257 -9 c 2
EndSplineSet
Validated: 1
EndChar

StartChar: section
Encoding: 167 167 102
Width: 415
GlyphClass: 2
Flags: MW
HStem: -78 57<150.5 182> 616 56<271.5 277.5>
VStem: 21 48 72 60<327.5 336.5> 119 58<518.5 532.5> 281 59<68 83> 326 60<258.5 269>
LayerCount: 2
Fore
SplineSet
132 339 m 0xf2
 132 316 142 296 161 281 c 0
 180 266 205 250 236 234 c 0
 267 219 289 203 304 188 c 1
 319 207 326 230 326 257 c 0
 326 281 316 300 297 315 c 0
 278 330 253 344 222 359 c 0
 191 374 169 389 154 406 c 1
 139 387 132 365 132 339 c 0xf2
72 311 m 0
 72 362 92 405 132 440 c 1xf4
 123 459 119 482 119 507 c 0
 119 558 136 598 171 627 c 0
 205 657 247 672 296 672 c 0
 324 672 351 666 377 653 c 0
 402 640 415 623 415 600 c 0
 415 576 399 560 367 551 c 1
 363 570 351 586 331 598 c 0
 311 610 289 616 266 616 c 0
 241 616 220 609 203 594 c 0
 186 579 177 558 177 530 c 0
 177 507 184 488 199 471 c 0
 213 455 230 442 251 431 c 0
 272 421 292 410 313 399 c 0
 333 388 350 372 364 353 c 0
 379 334 386 311 386 284 c 0xea
 386 233 366 190 327 155 c 1
 336 138 340 118 340 96 c 0
 340 40 322 -3 286 -33 c 0
 250 -63 207 -78 157 -78 c 0
 120 -78 88 -71 62 -57 c 0
 34 -42 21 -24 21 -3 c 0
 21 20 37 35 69 44 c 1
 77 1 116 -21 185 -21 c 0
 212 -21 235 -13 253 2 c 0
 272 18 281 41 281 72 c 0xe4
 281 94 274 113 259 128 c 0
 245 144 228 157 207 167 c 0
 186 178 166 188 145 199 c 0
 125 210 108 224 94 243 c 0
 79 262 72 284 72 311 c 0
EndSplineSet
Validated: 1
EndChar

StartChar: dieresis
Encoding: 168 168 103
Width: 257
GlyphClass: 2
Flags: MW
HStem: 521 107<87.5 88.5 254.5 255.5>
VStem: 39 99<571 576.5> 206 99<571 576.5>
LayerCount: 2
Fore
SplineSet
82 521 m 0
 69 521 59 525 51 534 c 0
 43 543 39 554 39 568 c 0
 39 585 45 599 56 610 c 0
 67 622 80 628 95 628 c 0
 107 628 117 623 126 614 c 0
 134 605 138 593 138 579 c 0
 138 563 132 549 120 538 c 0
 108 527 95 521 82 521 c 0
249 521 m 0
 236 521 226 525 218 534 c 0
 210 543 206 554 206 568 c 0
 206 585 212 599 223 610 c 0
 234 622 247 628 262 628 c 0
 274 628 284 623 292 614 c 0
 301 605 305 593 305 579 c 0
 305 563 299 549 287 538 c 0
 275 527 262 521 249 521 c 0
EndSplineSet
Validated: 1
EndChar

StartChar: copyright
Encoding: 169 169 104
Width: 888
GlyphClass: 2
Flags: MW
HStem: -34 57<438.5 515 438.5 525> 98 59<483.5 509.5> 489 59<464 490.5> 617 57<438.5 515>
VStem: 130 72<275.5 364.5 275.5 370.5> 283 84<300 353.5 300 355.5> 575 43 750 72<275.5 364>
LayerCount: 2
Fore
SplineSet
617 157 m 0
 617 141 605 127 580 116 c 0
 555 104 526 98 493 98 c 0
 468 98 443 102 419 110 c 0
 396 117 373 129 352 146 c 0
 331 162 315 185 302 214 c 0
 289 244 283 279 283 318 c 0
 283 393 304 450 345 490 c 0
 387 528 434 548 487 548 c 0
 505 548 523 545 542 540 c 0
 561 535 579 526 594 512 c 0
 610 500 618 484 618 467 c 0
 618 444 604 431 575 427 c 1
 569 448 557 463 538 474 c 0
 520 484 501 489 480 489 c 0
 448 489 421 474 399 445 c 0
 378 416 367 377 367 330 c 0
 367 270 380 226 407 199 c 0
 434 171 465 157 502 157 c 0
 541 157 570 170 588 195 c 1
 607 184 617 172 617 157 c 0
750 320 m 0
 750 408 723 480 670 535 c 0
 617 590 553 617 477 617 c 0
 400 617 334 590 281 535 c 0
 228 480 202 409 202 320 c 0
 202 231 228 160 281 105 c 0
 334 50 400 23 477 23 c 0
 553 23 617 50 670 105 c 0
 723 160 750 231 750 320 c 0
822 320 m 0
 822 220 788 136 721 68 c 0
 654 0 573 -34 477 -34 c 0
 379 -34 297 0 230 68 c 0
 163 135 130 219 130 320 c 0
 130 421 163 506 230 573 c 0
 297 640 379 674 477 674 c 0
 574 674 655 640 722 573 c 0
 789 506 822 421 822 320 c 0
EndSplineSet
Validated: 1
EndChar

StartChar: ordfeminine
Encoding: 170 170 105
Width: 309
GlyphClass: 2
Flags: MW
HStem: 256 52 264 37<101.5 163> 376 33<122 135.5> 609 34<163 171.5>
VStem: 48 48<433.5 448.5 433.5 458.5> 196 46<396 421 409.5 434> 215 45<558.5 589.5>
LayerCount: 2
Fore
SplineSet
140 301 m 0x7c
 186 301 220 303 242 308 c 0
 243 305 243 302 243 297 c 0
 243 286 239 276 232 268 c 0
 225 260 215 256 204 256 c 0xbc
 199 256 186 257 166 260 c 0
 147 263 132 264 122 264 c 0x7c
 81 264 45 261 13 256 c 0
 12 259 12 262 12 267 c 0
 12 294 25 308 51 308 c 0xbc
 52 308 64 307 84 304 c 0
 106 302 124 301 140 301 c 0x7c
103 573 m 1
 85 578 76 585 76 595 c 0
 76 610 86 621 108 630 c 0
 128 639 151 643 175 643 c 0
 204 643 225 638 239 629 c 0
 253 619 260 602 260 577 c 0x3a
 260 566 257 540 251 498 c 0
 245 458 242 429 242 413 c 0
 242 406 243 396 244 384 c 1
 239 381 231 380 220 380 c 0
 204 380 196 388 196 404 c 1x3c
 172 385 148 376 123 376 c 0
 73 376 48 397 48 438 c 0
 48 479 68 505 107 516 c 0
 136 524 171 529 212 530 c 1
 214 543 215 554 215 563 c 0x3a
 215 580 211 592 203 598 c 0
 195 606 181 609 162 609 c 0
 135 609 116 597 103 573 c 1
208 503 m 1
 203 502 196 501 187 500 c 0
 178 499 172 499 167 498 c 0
 163 497 157 496 150 495 c 0
 143 494 137 492 134 491 c 0
 131 490 126 489 122 487 c 0
 116 485 113 483 110 480 c 0
 108 477 106 474 103 471 c 0
 100 468 98 465 98 460 c 0
 96 456 96 451 96 446 c 0
 96 421 109 409 135 409 c 0
 158 409 178 417 196 434 c 1x3c
 200 459 l 2
 204 484 207 498 208 503 c 1
EndSplineSet
Validated: 1
EndChar

StartChar: guillemotleft
Encoding: 171 171 106
Width: 472
GlyphClass: 2
Flags: W
LayerCount: 2
Fore
SplineSet
328 235 m 1
 347 206 365 175 384 141 c 0
 402 107 411 85 411 74 c 0
 411 64 403 54 387 44 c 1
 345 83 299 147 249 235 c 1
 327 326 391 389 440 426 c 1
 451 417 457 410 457 403 c 0
 457 384 414 328 328 235 c 1
139 235 m 1
 158 206 176 175 194 141 c 0
 213 107 222 85 222 74 c 0
 222 64 214 54 198 44 c 1
 156 83 110 147 60 235 c 1
 138 326 202 389 251 426 c 1
 262 417 268 410 268 403 c 0
 268 384 225 328 139 235 c 1
EndSplineSet
Validated: 1
EndChar

StartChar: logicalnot
Encoding: 172 172 107
Width: 574
GlyphClass: 2
Flags: MW
HStem: 272 52<164.5 183 183 414>
VStem: 414 61
LayerCount: 2
Fore
SplineSet
473 324 m 1
 475 102 l 2
 475 83 472 70 466 62 c 0
 460 55 448 51 431 51 c 0
 419 51 408 54 397 59 c 1
 408 96 414 155 414 236 c 2
 414 272 l 1
 183 272 l 2
 146 272 112 267 83 257 c 1
 78 268 76 278 76 287 c 0
 76 312 90 324 118 324 c 2
 473 324 l 1
EndSplineSet
Validated: 1
EndChar

StartChar: registered
Encoding: 174 174 108
Width: 607
GlyphClass: 2
Flags: MW
HStem: 207 50<305 352.5 305 360.5> 323 29<401 432> 420 25<311 328> 531 32<312.5 335.5> 623 50<305 352.5>
VStem: 100 59<412.5 467.5 412.5 473.5> 242 51<408 423 449 472.5> 377 50<483 504.5> 498 59<412.5 467.5>
LayerCount: 2
Fore
SplineSet
498 440 m 0
 498 495 482 539 449 573 c 0
 416 606 376 623 329 623 c 0
 281 623 241 606 208 573 c 0
 175 539 159 495 159 440 c 0
 159 385 175 341 208 307 c 0
 241 274 281 257 329 257 c 0
 376 257 416 274 449 307 c 0
 482 341 498 385 498 440 c 0
557 440 m 0
 557 374 535 319 490 274 c 0
 446 229 392 207 329 207 c 0
 264 207 210 229 166 274 c 0
 122 319 100 374 100 440 c 0
 100 507 122 562 166 606 c 0
 210 651 264 673 329 673 c 0
 392 673 446 651 490 606 c 0
 535 561 557 506 557 440 c 0
410 360 m 0
 415 355 423 352 432 352 c 0
 433 349 434 346 434 341 c 0
 434 329 426 323 410 323 c 0
 392 323 377 331 366 348 c 0
 364 351 356 362 343 380 c 0
 329 399 320 412 315 420 c 1
 307 420 300 421 293 423 c 1
 293 397 l 2
 293 368 296 345 301 330 c 1
 295 327 285 325 271 325 c 0
 250 325 240 333 240 348 c 0
 240 350 240 359 241 374 c 0
 242 389 242 401 242 408 c 2
 242 477 l 2
 242 512 241 539 238 558 c 1
 279 561 306 563 319 563 c 0
 391 563 427 539 427 491 c 0
 427 455 406 433 363 424 c 1
 376 401 392 380 410 360 c 0
320 445 m 0
 336 445 350 449 361 456 c 0
 372 463 377 475 377 491 c 0
 377 518 356 531 315 531 c 0
 310 531 303 530 292 529 c 1
 293 522 293 496 293 449 c 1
 306 446 315 445 320 445 c 0
EndSplineSet
Validated: 1
EndChar

StartChar: macron
Encoding: 175 175 109
Width: 350
GlyphClass: 2
Flags: MW
HStem: 557 58<119.5 195>
VStem: 97 260<551 615>
LayerCount: 2
Fore
SplineSet
226 609 m 2
 247 609 l 2
 288 609 325 611 357 615 c 1
 357 572 345 551 322 551 c 0
 320 551 314 552 303 552 c 0
 292 554 279 554 262 556 c 0
 246 556 231 557 216 557 c 2
 195 557 l 2
 158 557 125 555 97 551 c 1
 97 594 108 615 131 615 c 0
 133 615 146 614 171 612 c 0
 196 610 214 609 226 609 c 2
EndSplineSet
Validated: 1
EndChar

StartChar: degree
Encoding: 176 176 110
Width: 356
GlyphClass: 2
Flags: MW
HStem: 387 56<172.5 199 172.5 200.5> 655 56<201.5 228.5>
VStem: 47 65<512.5 542 512.5 546> 287 66<556 585.5>
LayerCount: 2
Fore
SplineSet
217 655 m 0
 186 655 161 642 142 616 c 0
 122 589 112 559 112 525 c 0
 112 500 118 480 131 466 c 0
 143 450 161 443 184 443 c 0
 214 443 239 456 258 482 c 0
 277 509 287 539 287 573 c 0
 287 598 281 618 269 632 c 0
 257 648 240 655 217 655 c 0
226 711 m 0
 264 711 295 699 318 674 c 0
 341 649 353 618 353 579 c 0
 353 526 336 480 301 443 c 0
 266 406 225 387 176 387 c 0
 137 387 105 399 82 424 c 0
 59 449 47 481 47 520 c 0
 47 572 64 617 99 654 c 0
 134 692 176 711 226 711 c 0
EndSplineSet
Validated: 1
EndChar

StartChar: plusminus
Encoding: 177 177 111
Width: 574
GlyphClass: 2
Flags: MW
HStem: 6 72 14 57<267.5 293.5> 256 72
VStem: 251 72
LayerCount: 2
Fore
SplineSet
476 48 m 0xb0
 476 36 473 26 466 18 c 0
 459 10 451 6 440 6 c 0xb0
 429 6 405 7 368 10 c 0
 331 13 303 14 284 14 c 0x70
 208 14 141 11 82 6 c 1
 80 16 79 26 79 36 c 0
 79 47 82 56 88 65 c 0
 94 74 103 78 115 78 c 0xb0
 117 78 138 77 178 74 c 0
 218 72 253 71 282 71 c 0x70
 369 71 432 73 473 78 c 1
 475 72 476 62 476 48 c 0xb0
316 320 m 1
 388 320 447 323 493 328 c 1
 495 322 496 312 496 298 c 0
 496 286 493 276 486 268 c 0
 479 260 471 256 460 256 c 0
 449 256 426 257 391 260 c 0
 357 262 332 263 315 263 c 1
 315 224 318 175 323 116 c 1
 313 114 303 113 293 113 c 0
 282 113 272 116 263 123 c 0
 255 129 251 138 251 149 c 0
 251 153 252 166 254 187 c 0
 256 208 257 234 258 264 c 1
 200 263 141 261 82 256 c 1
 80 266 79 276 79 286 c 0
 79 297 82 306 88 315 c 0
 94 324 103 328 115 328 c 0
 120 328 138 327 170 325 c 0
 201 323 231 322 259 321 c 1
 259 380 256 432 251 478 c 1
 257 480 267 481 281 481 c 0
 293 481 303 478 311 471 c 0
 319 464 323 456 323 445 c 0
 323 434 322 414 320 386 c 0
 317 359 316 337 316 320 c 1
EndSplineSet
Validated: 1
EndChar

StartChar: two.superior
Encoding: 178 178 112
Width: 388
GlyphClass: 2
Flags: MW
HStem: 422 48<44 150.5> 832 46<196.5 207.5>
VStem: 264 55<747 792>
LayerCount: 2
Fore
SplineSet
95 776 m 1
 81 778 75 786 75 797 c 0
 75 816 90 833 120 851 c 0
 150 869 181 878 212 878 c 0
 242 878 267 869 288 851 c 0
 309 833 319 808 319 776 c 0
 319 763 319 750 316 738 c 0
 313 726 308 713 302 701 c 0
 296 689 290 677 284 667 c 0
 278 657 269 646 257 633 c 0
 245 620 235 610 227 602 c 0
 219 594 208 583 192 569 c 0
 176 555 164 545 155 538 c 0
 146 531 132 519 113 504 c 0
 94 489 81 479 72 472 c 1
 86 471 105 470 128 470 c 0
 173 470 206 471 227 473 c 0
 248 475 269 480 291 488 c 1
 295 479 297 470 297 461 c 0
 297 446 291 436 278 431 c 0
 261 424 226 421 174 421 c 0
 157 421 134 422 105 422 c 2
 44 422 l 2
 27 422 19 432 19 451 c 0
 19 456 20 462 21 469 c 1
 40 486 64 507 94 532 c 0
 124 557 146 576 162 591 c 0
 178 606 196 623 214 642 c 0
 232 661 244 681 252 699 c 0
 260 717 264 737 264 757 c 0
 264 780 258 798 245 812 c 0
 232 826 217 832 198 832 c 0
 181 832 163 827 144 817 c 0
 125 807 109 793 95 776 c 1
EndSplineSet
Validated: 1
EndChar

StartChar: three.superior
Encoding: 179 179 113
Width: 390
GlyphClass: 2
Flags: MW
HStem: 416 45<105.5 139.5 105.5 143> 641 38<123 134.5 113 146> 833 45<189 201>
VStem: 232 56<554 573.5> 249 56<777 784>
LayerCount: 2
Fore
SplineSet
216 670 m 1xe8
 264 647 288 616 288 575 c 0
 288 533 273 496 242 464 c 0
 211 432 169 416 117 416 c 0
 86 416 63 421 48 429 c 0
 33 437 25 447 25 458 c 0
 25 466 28 473 33 478 c 0
 38 483 44 486 52 487 c 1
 64 470 88 461 123 461 c 0
 156 461 182 471 202 492 c 0
 222 513 232 536 232 562 c 0xf0
 232 585 223 604 206 619 c 0
 189 634 163 641 129 641 c 0
 117 641 111 648 111 661 c 0
 111 667 111 673 113 679 c 1
 156 679 190 689 214 708 c 0
 238 727 249 750 249 776 c 0
 249 792 244 806 234 817 c 0
 224 828 210 833 192 833 c 0
 176 833 160 829 144 820 c 0
 128 811 114 799 103 783 c 1
 95 783 90 784 86 788 c 0
 82 792 79 796 79 802 c 0
 79 819 93 836 119 853 c 0
 145 870 174 878 204 878 c 0
 237 878 262 869 279 852 c 0
 296 835 305 814 305 789 c 0
 305 765 298 743 283 722 c 0
 268 701 245 684 216 670 c 1xe8
EndSplineSet
Validated: 1
EndChar

StartChar: acute
Encoding: 180 180 114
Width: 201
GlyphClass: 2
Flags: MW
HStem: 525 163
VStem: 0 201<548.5 650.5>
LayerCount: 2
Fore
SplineSet
172 604 m 0
 157 596 130 583 89 564 c 0
 48 545 23 532 13 525 c 1
 4 534 0 543 0 554 c 0
 0 567 7 577 21 584 c 0
 91 624 141 659 171 688 c 1
 191 673 201 658 201 643 c 0
 201 628 191 615 172 604 c 0
EndSplineSet
Validated: 1
EndChar

StartChar: mu
Encoding: 181 181 115
Width: 473
GlyphClass: 2
Flags: MW
HStem: -254 21G<42.5 71.5> -10 51<166 177> 455 20G<113.5 134.5>
VStem: 9 67<-193.5 -98.5> 309 74<31.5 104.5>
LayerCount: 2
Fore
SplineSet
312 88 m 1
 297 63 275 41 246 21 c 0
 217 0 190 -10 164 -10 c 0
 137 -10 116 2 100 26 c 1
 84 -29 76 -77 76 -120 c 0
 76 -168 87 -197 110 -208 c 1
 101 -239 84 -254 59 -254 c 0
 26 -254 9 -224 9 -163 c 0
 9 -132 22 -43 48 104 c 0
 74 251 87 340 87 370 c 0
 87 403 80 421 67 424 c 1
 68 433 74 444 85 456 c 0
 96 469 107 475 120 475 c 0
 149 475 163 455 163 414 c 0
 163 403 156 356 143 271 c 0
 130 187 123 136 123 117 c 0
 123 94 128 75 137 61 c 0
 146 48 158 41 174 41 c 0
 200 41 229 56 260 86 c 0
 291 117 314 152 327 191 c 1
 347 324 358 415 361 464 c 1
 373 467 384 469 394 469 c 0
 420 469 433 458 433 437 c 0
 433 433 432 427 431 418 c 0
 430 409 427 396 424 379 c 0
 421 362 418 346 416 331 c 0
 394 195 383 116 383 93 c 0
 383 62 390 44 403 41 c 1
 402 32 396 21 385 8 c 0
 374 -4 363 -10 350 -10 c 0
 323 -10 309 11 309 52 c 0
 309 64 310 76 312 88 c 1
EndSplineSet
Validated: 1
EndChar

StartChar: paragraph
Encoding: 182 182 116
Width: 472
GlyphClass: 2
Flags: MW
HStem: -119 65<176.5 194 176.5 230.5> 514 57<331.5 431.5 417 431.5 403.5 439 417 417>
VStem: 60 183
LayerCount: 2
Fore
SplineSet
243 235 m 0
 242 224 226 218 196 218 c 0
 157 218 125 231 99 258 c 0
 73 284 60 319 60 362 c 0
 60 424 81 475 122 515 c 0
 163 555 211 575 268 575 c 0
 272 575 293 574 330 573 c 0
 367 572 394 571 413 571 c 0
 450 571 479 571 500 572 c 1
 501 563 502 557 502 554 c 0
 502 527 481 514 439 514 c 2
 417 514 l 1
 384 359 362 226 349 115 c 0
 331 -41 276 -119 185 -119 c 0
 167 -119 152 -115 140 -107 c 0
 129 -99 123 -88 123 -75 c 0
 123 -65 126 -54 132 -42 c 1
 151 -50 168 -54 185 -54 c 0
 203 -54 218 -50 231 -41 c 0
 244 -32 253 -22 260 -8 c 0
 266 4 271 21 275 40 c 0
 279 59 282 77 283 93 c 0
 284 109 286 128 288 148 c 0
 289 170 291 185 292 196 c 0
 309 319 328 425 347 514 c 1
 316 514 298 515 292 516 c 1
 278 461 262 367 243 235 c 0
EndSplineSet
Validated: 1
EndChar

StartChar: periodcentered
Encoding: 183 183 117
Width: 175
GlyphClass: 2
Flags: MW
HStem: 197 127<92.5 94>
VStem: 35 115<242 277.5>
LayerCount: 2
Fore
SplineSet
85 197 m 0
 71 197 59 202 50 211 c 0
 40 221 35 234 35 250 c 0
 35 269 42 286 55 301 c 0
 68 316 84 324 101 324 c 0
 115 324 127 319 136 308 c 0
 145 298 150 285 150 270 c 0
 150 250 144 233 131 218 c 0
 118 204 103 197 85 197 c 0
EndSplineSet
Validated: 1
EndChar

StartChar: cedilla
Encoding: 184 184 118
Width: 350
GlyphClass: 2
Flags: MW
HStem: -232 45<92.5 100>
VStem: 102 51<-64.5 -31.5> 159 54<-136 -135.5>
LayerCount: 2
Fore
SplineSet
142 32 m 1
 179 27 l 1
 170 9 l 2
 165 -1 160 -10 158 -17 c 0
 154 -24 153 -30 153 -33 c 0
 153 -40 160 -49 175 -60 c 0
 200 -75 213 -96 213 -122 c 0
 213 -150 200 -175 174 -198 c 0
 149 -221 118 -232 82 -232 c 0
 61 -232 51 -224 51 -209 c 0
 51 -200 57 -189 70 -178 c 1
 79 -184 88 -187 97 -187 c 0
 114 -187 128 -183 140 -175 c 0
 153 -167 159 -156 159 -142 c 0
 159 -129 150 -114 130 -99 c 0
 112 -84 102 -70 102 -59 c 0
 102 -39 115 -9 142 32 c 1
EndSplineSet
Validated: 1
EndChar

StartChar: one.superior
Encoding: 185 185 119
Width: 407
GlyphClass: 2
Flags: MW
HStem: 422 45<74 167 118 219>
VStem: 73 222<443.5 446>
LayerCount: 2
Fore
SplineSet
221 465 m 1
 250 465 272 466 287 468 c 1
 292 463 295 458 295 455 c 0
 295 432 284 422 262 422 c 2
 219 422 l 2
 193 422 170 423 150 423 c 0
 114 423 88 422 74 422 c 1
 73 428 73 433 73 435 c 0
 73 457 88 467 118 467 c 2
 167 467 l 1
 179 554 l 2
 186 599 192 636 196 665 c 0
 209 740 217 796 222 833 c 1
 167 828 137 825 130 824 c 1
 130 838 l 2
 132 855 142 865 161 867 c 0
 211 874 241 878 250 878 c 0
 267 878 275 871 275 857 c 0
 275 853 273 840 269 820 c 0
 266 800 261 772 256 737 c 0
 250 702 244 668 240 636 c 2
 234 595 l 2
 227 544 222 501 221 465 c 1
EndSplineSet
Validated: 1
EndChar

StartChar: ordmasculine
Encoding: 186 186 120
Width: 343
GlyphClass: 2
Flags: MW
HStem: 256 52 264 37<109.5 171> 376 35<141 164.5 141 168> 608 35<164.5 188.5>
VStem: 43 46<482.5 505.5> 242 45<511.5 535.5>
LayerCount: 2
Fore
SplineSet
148 301 m 0x7c
 194 301 228 303 250 308 c 0
 251 305 251 302 251 297 c 0
 251 286 247 276 240 268 c 0
 233 260 223 256 212 256 c 0xbc
 207 256 194 257 174 260 c 0
 155 263 140 264 130 264 c 0x7c
 89 264 53 261 21 256 c 0
 20 259 20 262 20 267 c 0
 20 294 33 308 59 308 c 0xbc
 60 308 72 307 92 304 c 0
 114 302 132 301 148 301 c 0x7c
147 376 m 0
 115 376 90 386 71 405 c 0
 52 424 43 451 43 484 c 0
 43 527 55 565 80 596 c 0
 105 627 139 643 182 643 c 0
 215 643 240 633 259 614 c 0
 278 594 287 567 287 533 c 0
 287 490 274 454 248 422 c 0
 223 392 189 376 147 376 c 0
151 411 m 0
 178 411 200 422 217 443 c 0
 234 464 242 490 242 523 c 0
 242 548 236 569 225 585 c 0
 214 600 199 608 178 608 c 0
 151 608 129 597 113 576 c 0
 97 555 89 528 89 495 c 0
 89 470 94 449 105 434 c 0
 116 419 131 411 151 411 c 0
EndSplineSet
Validated: 1
EndChar

StartChar: guillemotright
Encoding: 187 187 121
Width: 473
GlyphClass: 2
Flags: W
LayerCount: 2
Fore
SplineSet
334 235 m 1
 315 262 297 293 278 328 c 0
 259 362 250 385 250 396 c 0
 250 404 258 414 274 426 c 1
 313 389 360 325 413 235 c 1
 331 142 267 78 221 44 c 1
 210 53 204 60 204 67 c 0
 204 87 247 143 334 235 c 1
145 235 m 1
 126 262 108 293 89 328 c 0
 70 362 61 385 61 396 c 0
 61 404 69 414 85 426 c 1
 124 389 171 325 224 235 c 1
 142 142 78 78 32 44 c 1
 21 53 15 60 15 67 c 0
 15 87 58 143 145 235 c 1
EndSplineSet
Validated: 1
EndChar

StartChar: onequarter
Encoding: 188 188 122
Width: 838
GlyphClass: 2
Flags: MW
HStem: -10 21G<655.5 673> 129 56 220 52 653 20G<215.5 236.5> 720 20G<631 636.5>
VStem: 630 65<13.5 60>
LayerCount: 2
Fore
SplineSet
512 185 m 1
 533 184 579 183 652 183 c 1
 657 218 662 255 667 293 c 0
 672 331 676 357 678 372 c 1
 640 334 l 2
 622 317 609 303 600 294 c 0
 591 285 579 270 562 250 c 0
 545 231 529 209 512 185 c 1
684 441 m 0
 692 448 707 452 729 452 c 0
 733 452 740 451 751 450 c 0
 751 449 749 436 744 414 c 0
 740 390 735 358 728 318 c 0
 721 276 715 233 709 188 c 1
 739 190 761 194 774 200 c 1
 777 191 778 182 778 175 c 0
 778 166 776 159 774 154 c 0
 770 148 767 144 764 140 c 0
 761 138 755 135 747 134 c 0
 738 132 732 131 727 130 c 2
 701 130 l 1
 697 97 695 70 695 50 c 0
 695 29 696 12 699 -2 c 1
 688 -7 678 -10 668 -10 c 0
 643 -10 630 2 630 25 c 0
 630 37 632 54 636 78 c 0
 640 100 643 118 644 129 c 1
 607 129 l 2
 551 129 505 131 469 136 c 0
 460 137 455 145 455 160 c 0
 455 171 457 183 460 195 c 1
 487 234 523 278 569 328 c 0
 615 378 653 416 684 441 c 0
206 277 m 2
 206 268 l 1
 230 268 254 269 278 272 c 0
 279 269 279 265 279 259 c 0
 279 232 267 219 242 219 c 0
 238 219 224 219 199 220 c 0
 174 221 150 221 125 221 c 0
 94 221 69 221 52 220 c 1
 51 228 50 233 50 236 c 0
 50 260 67 272 102 272 c 2
 141 272 l 1
 158 388 167 451 168 462 c 0
 176 520 182 572 186 617 c 1
 153 614 123 607 98 598 c 1
 96 604 95 610 95 615 c 0
 95 638 108 653 133 659 c 0
 174 668 205 673 226 673 c 0
 247 673 257 664 257 646 c 0
 257 643 255 632 251 612 c 0
 247 591 242 564 236 531 c 0
 231 497 226 466 222 437 c 0
 211 355 206 302 206 277 c 2
158 -57 m 2
 510 528 l 2
 563 617 604 687 631 740 c 1
 642 740 653 738 662 733 c 0
 671 728 676 722 676 713 c 0
 676 705 673 697 668 690 c 2
 316 105 l 2
 259 11 219 -60 195 -107 c 1
 165 -106 150 -96 150 -78 c 0
 150 -73 153 -66 158 -57 c 2
EndSplineSet
Validated: 1
EndChar

StartChar: onehalf
Encoding: 189 189 123
Width: 892
GlyphClass: 2
Flags: MW
HStem: -1 54<617.5 666.5 613.5 674.5> 220 52 401 51<675 684.5> 653 20G<215.5 236.5> 720 20G<631 636.5>
VStem: 141 65<272 272> 741 66<327 345.5>
LayerCount: 2
Fore
SplineSet
570 328 m 1
 551 330 542 338 542 352 c 0
 542 373 558 395 591 418 c 0
 623 441 657 452 693 452 c 0
 728 452 756 442 776 424 c 0
 797 404 807 380 807 349 c 0
 807 305 784 256 738 202 c 0
 692 147 629 98 550 54 c 1
 568 53 595 53 632 53 c 0
 701 53 753 61 789 77 c 1
 794 68 797 57 797 45 c 0
 797 28 788 17 771 11 c 0
 750 3 707 -1 642 -1 c 0
 593 -1 553 0 522 1 c 0
 499 1 488 12 488 33 c 0
 488 45 489 53 491 58 c 0
 567 102 628 149 673 200 c 0
 718 251 741 296 741 336 c 0
 741 355 735 371 723 383 c 0
 711 395 695 401 674 401 c 0
 658 401 640 394 620 380 c 0
 601 367 584 349 570 328 c 1
206 277 m 2
 206 268 l 1
 230 268 254 269 278 272 c 0
 279 269 279 265 279 259 c 0
 279 232 267 219 242 219 c 0
 238 219 224 219 199 220 c 0
 174 221 150 221 125 221 c 0
 94 221 69 221 52 220 c 1
 51 228 50 233 50 236 c 0
 50 260 67 272 102 272 c 2
 141 272 l 1
 158 388 167 451 168 462 c 0
 176 520 182 572 186 617 c 1
 153 614 123 607 98 598 c 1
 96 604 95 610 95 615 c 0
 95 638 108 653 133 659 c 0
 174 668 205 673 226 673 c 0
 247 673 257 664 257 646 c 0
 257 643 255 632 251 612 c 0
 247 591 242 564 237 531 c 0
 231 497 226 466 222 437 c 0
 211 355 206 302 206 277 c 2
158 -57 m 2
 510 528 l 2
 563 617 604 687 631 740 c 1
 642 740 653 738 662 733 c 0
 671 728 676 722 676 713 c 0
 676 705 673 697 668 690 c 2
 316 105 l 2
 259 11 219 -60 195 -107 c 1
 165 -106 150 -96 150 -78 c 0
 150 -73 153 -66 158 -57 c 2
EndSplineSet
Validated: 1
EndChar

StartChar: threequarters
Encoding: 190 190 124
Width: 852
GlyphClass: 2
Flags: MW
HStem: -10 21G<669.5 687> 129 56 208 51<145.5 180.5 145.5 183> 434 37<171.5 201> 622 51<226 248.5> 720 20G<655 660.5>
VStem: 270 65<346.5 385.5 341.5 386> 291 67<553 586.5> 644 65<13.5 60>
LayerCount: 2
Fore
SplineSet
182 -57 m 2xfc80
 534 528 l 2
 587 617 628 687 655 740 c 1
 666 740 677 738 686 733 c 0
 695 728 700 722 700 713 c 0
 700 705 697 697 692 690 c 2
 340 105 l 2
 283 11 243 -60 219 -107 c 1
 189 -106 174 -96 174 -78 c 0
 174 -73 177 -66 182 -57 c 2xfc80
151 433 m 1
 151 471 l 1
 156 471 l 2
 246 471 291 504 291 569 c 0
 291 604 270 622 227 622 c 0
 195 622 163 604 130 569 c 1
 111 573 102 582 102 597 c 0
 102 618 118 636 149 650 c 0
 180 666 211 673 241 673 c 0
 319 673 358 644 358 585 c 0xfd80
 358 521 326 479 261 458 c 1
 310 441 335 409 335 362 c 0
 335 321 319 286 287 254 c 0
 255 224 211 208 155 208 c 0
 125 208 99 213 78 223 c 0
 56 233 45 247 45 264 c 0
 45 281 56 293 77 300 c 1
 97 273 126 259 165 259 c 0
 196 259 222 268 241 287 c 0
 260 306 270 331 270 362 c 0xfe80
 270 410 239 434 177 434 c 0
 166 434 157 434 151 433 c 1
526 185 m 1
 547 184 593 183 666 183 c 1
 671 218 676 255 681 293 c 0
 686 331 690 357 692 372 c 1
 654 334 l 2
 636 317 623 303 614 294 c 0
 605 285 593 270 576 250 c 0
 559 231 543 209 526 185 c 1
698 441 m 0
 706 448 721 452 743 452 c 0
 747 452 754 451 765 450 c 0
 765 449 763 436 759 414 c 0
 754 390 749 358 742 318 c 0
 735 276 729 233 723 188 c 1
 753 190 775 194 788 200 c 1
 791 191 792 182 792 175 c 0
 792 166 791 159 788 154 c 0
 785 148 781 144 778 140 c 0
 775 138 769 135 761 134 c 0
 752 132 746 131 741 130 c 2
 715 130 l 1
 711 97 709 70 709 50 c 0
 709 29 710 12 713 -2 c 1
 702 -7 692 -10 682 -10 c 0
 657 -10 644 2 644 25 c 0
 644 37 646 54 650 78 c 0
 654 100 657 118 658 129 c 1
 621 129 l 2
 565 129 519 131 483 136 c 0
 474 137 469 145 469 160 c 0
 469 171 471 183 474 195 c 1
 501 234 537 278 583 328 c 0
 629 378 667 416 698 441 c 0
EndSplineSet
Validated: 1
EndChar

StartChar: questiondown
Encoding: 191 191 125
Width: 362
GlyphClass: 2
Flags: MW
HStem: -219 56<131.5 154.5 131.5 169> 348 127<228.5 230>
VStem: 0 73<-111.5 -84.5 -111.5 -71.5> 171 115<393 428.5> 188 73<217.5 234.5>
LayerCount: 2
Fore
SplineSet
221 348 m 0xf0
 207 348 195 353 186 362 c 0
 176 372 171 385 171 401 c 0
 171 420 178 437 191 452 c 0
 204 467 220 475 237 475 c 0
 251 475 263 470 272 459 c 0
 281 449 286 436 286 421 c 0
 286 401 280 384 267 370 c 0
 254 355 239 348 221 348 c 0xf0
184 266 m 1
 199 273 213 276 224 276 c 0
 249 276 261 260 261 227 c 0
 261 204 256 182 245 160 c 0
 234 139 223 121 210 106 c 0
 197 92 180 75 160 54 c 0
 140 34 125 17 115 4 c 0
 87 -33 73 -68 73 -101 c 0
 73 -122 79 -137 92 -148 c 0
 105 -158 121 -163 142 -163 c 0
 167 -163 192 -156 216 -142 c 0
 239 -128 255 -110 262 -88 c 1
 289 -93 302 -105 302 -125 c 0
 302 -152 287 -175 256 -193 c 0
 225 -210 189 -219 149 -219 c 0
 108 -219 73 -209 44 -188 c 0
 15 -167 0 -136 0 -95 c 0
 0 -48 20 -3 59 40 c 0
 68 49 82 63 101 80 c 0
 120 97 135 111 146 122 c 0
 156 133 166 148 175 167 c 0
 184 186 188 207 188 228 c 0xe8
 188 241 187 253 184 266 c 1
EndSplineSet
Validated: 1
EndChar

StartChar: Agrave
Encoding: 192 192 126
Width: 528
GlyphClass: 2
Flags: MW
HStem: -13 21G 209 59 716 21G
VStem: -10 87 425 86
LayerCount: 2
Fore
SplineSet
192 810 m 0
 175 821 167 833 167 846 c 0
 167 864 179 879 202 892 c 1
 210 882 221 871 235 858 c 0
 249 845 262 834 274 825 c 0
 286 816 299 806 313 795 c 0
 327 784 335 778 338 776 c 0
 351 767 357 757 357 748 c 0
 357 737 352 727 341 716 c 1
 332 723 309 738 272 760 c 0
 235 783 208 799 192 810 c 0
313 569 m 1
 306 553 294 526 278 488 c 0
 261 450 245 413 228 376 c 0
 211 339 195 303 178 268 c 1
 226 267 263 266 288 266 c 0
 325 266 353 267 371 268 c 1
 359 322 340 422 313 569 c 1
384 209 m 1
 317 208 277 207 264 207 c 0
 249 207 211 208 150 209 c 1
 143 193 131 168 116 134 c 0
 101 100 88 71 77 48 c 0
 66 24 58 4 53 -13 c 1
 38 -12 24 -8 11 -2 c 0
 -3 6 -10 15 -10 28 c 0
 -10 34 -3 51 11 79 c 0
 24 107 45 148 72 202 c 0
 99 256 122 301 139 336 c 0
 216 497 263 604 278 659 c 1
 302 662 317 663 323 663 c 0
 339 663 351 659 358 652 c 0
 365 645 371 631 375 610 c 0
 377 601 382 573 390 525 c 0
 399 477 407 433 415 394 c 0
 423 354 431 316 440 280 c 0
 469 151 493 61 511 10 c 1
 492 -3 476 -10 462 -10 c 0
 441 -10 429 -1 425 17 c 0
 416 59 402 123 384 209 c 1
EndSplineSet
Validated: 1
Substitution2: "'c2sc' Capitals to Small Capitals in Latin lookup 1 subtable" agrave.sc
EndChar

StartChar: Aacute
Encoding: 193 193 127
Width: 528
GlyphClass: 2
Flags: MW
HStem: -13 21G 209 59 716 21G
VStem: -10 87 425 86
LayerCount: 2
Fore
SplineSet
404 795 m 0
 389 787 362 774 321 755 c 0
 280 736 255 723 245 716 c 1
 236 725 232 734 232 745 c 0
 232 758 239 768 253 775 c 0
 323 815 373 850 403 879 c 1
 423 864 433 849 433 834 c 0
 433 819 423 806 404 795 c 0
313 569 m 1
 306 553 294 526 278 488 c 0
 261 450 245 412 228 375 c 0
 211 338 195 303 178 268 c 1
 226 267 263 266 288 266 c 0
 325 266 353 267 371 268 c 1
 359 322 340 422 313 569 c 1
384 209 m 1
 317 208 277 207 264 207 c 0
 249 207 211 208 150 209 c 1
 143 193 131 168 116 134 c 0
 101 100 88 71 77 47 c 0
 66 24 58 4 53 -13 c 1
 38 -12 24 -9 11 -2 c 0
 -3 5 -10 15 -10 28 c 0
 -10 34 -3 51 11 79 c 0
 24 107 45 148 72 202 c 0
 99 256 122 301 139 336 c 0
 216 497 263 604 278 659 c 1
 302 662 317 663 323 663 c 0
 339 663 351 659 358 652 c 0
 365 645 371 631 375 610 c 0
 377 601 382 573 391 525 c 0
 399 477 407 433 415 393 c 0
 423 354 431 316 440 280 c 0
 469 151 493 61 511 10 c 1
 492 -3 476 -10 462 -10 c 0
 441 -10 429 -1 425 17 c 0
 416 59 402 123 384 209 c 1
EndSplineSet
Validated: 1
Substitution2: "'c2sc' Capitals to Small Capitals in Latin lookup 1 subtable" aacute.sc
EndChar

StartChar: Acircumflex
Encoding: 194 194 128
Width: 528
GlyphClass: 2
Flags: MW
HStem: -13 21G 209 59 718 21G<205 214>
VStem: -10 87 425 86
LayerCount: 2
Fore
SplineSet
339 870 m 1
 410 817 445 774 445 743 c 0
 445 728 436 717 418 710 c 1
 409 726 396 741 381 756 c 0
 366 771 353 781 342 788 c 2
 327 799 l 1
 258 745 219 718 209 718 c 0
 201 718 194 724 187 736 c 1
 232 786 283 831 339 870 c 1
313 569 m 1
 306 553 294 526 278 488 c 0
 261 450 245 412 228 375 c 0
 211 338 195 303 178 268 c 1
 226 267 263 266 288 266 c 0
 325 266 353 267 371 268 c 1
 359 322 340 422 313 569 c 1
384 209 m 1
 317 208 277 207 264 207 c 0
 249 207 211 208 150 209 c 1
 143 193 131 168 116 134 c 0
 101 100 88 71 77 47 c 0
 66 24 58 4 53 -13 c 1
 38 -12 24 -9 11 -2 c 0
 -3 5 -10 15 -10 28 c 0
 -10 34 -3 51 11 79 c 0
 24 107 45 148 72 202 c 0
 99 256 122 301 139 336 c 0
 216 497 263 604 278 659 c 1
 302 662 317 663 323 663 c 0
 339 663 351 659 358 652 c 0
 365 645 371 631 375 610 c 0
 377 601 382 573 390 525 c 0
 399 477 407 433 415 393 c 0
 423 354 431 316 440 280 c 0
 469 151 493 61 511 10 c 1
 492 -3 476 -10 462 -10 c 0
 441 -10 429 -1 425 17 c 0
 416 59 402 123 384 209 c 1
EndSplineSet
Validated: 1
Substitution2: "'c2sc' Capitals to Small Capitals in Latin lookup 1 subtable" acircumflex.sc
EndChar

StartChar: Atilde
Encoding: 195 195 129
Width: 528
GlyphClass: 2
Flags: MW
HStem: -13 21G 209 59 721 59<356 396.5> 766 59<249.5 293>
VStem: -10 87 425 86
LayerCount: 2
Fore
SplineSet
313 569 m 1xcc
 306 553 294 526 278 488 c 0
 261 450 245 412 228 376 c 0
 211 338 195 303 178 268 c 1
 226 267 263 266 288 266 c 0
 325 266 353 267 371 268 c 1
 359 322 340 422 313 569 c 1xcc
384 209 m 1
 317 208 277 207 264 207 c 0
 249 207 211 208 150 209 c 1
 143 193 131 168 116 134 c 0
 101 100 88 71 77 48 c 0
 66 24 58 4 53 -13 c 1
 38 -12 24 -9 11 -2 c 0
 -3 5 -10 15 -10 28 c 0
 -10 34 -3 51 11 79 c 0
 24 107 45 148 72 202 c 0
 99 256 122 301 139 336 c 0
 216 497 263 604 278 659 c 1
 302 662 317 663 323 663 c 0
 339 663 351 659 358 652 c 0
 365 645 371 631 375 610 c 0
 377 601 382 573 390 525 c 0
 399 477 407 433 415 394 c 0
 423 354 431 316 440 280 c 0
 469 151 493 61 511 10 c 1
 492 -3 476 -10 462 -10 c 0
 441 -10 429 -1 425 17 c 0
 416 59 402 123 384 209 c 1
393 780 m 0xec
 400 780 411 784 424 793 c 0
 437 802 448 811 458 822 c 1
 467 819 471 813 471 805 c 0
 471 786 459 768 435 749 c 0
 411 730 387 721 363 721 c 0xec
 349 721 331 728 308 743 c 0
 285 758 268 766 256 766 c 0
 243 766 222 752 191 724 c 1
 182 728 178 734 178 741 c 0
 178 760 190 778 214 797 c 0
 238 816 262 825 287 825 c 0xdc
 299 825 317 818 341 802 c 0
 364 788 382 780 393 780 c 0xec
EndSplineSet
Validated: 1
Substitution2: "'c2sc' Capitals to Small Capitals in Latin lookup 1 subtable" atilde.sc
EndChar

StartChar: Adieresis
Encoding: 196 196 130
Width: 528
GlyphClass: 2
Flags: MW
HStem: -13 21G 209 59 712 107<240.5 241.5 407.5 408.5>
VStem: -10 87 192 99<762 767.5> 359 99<762 767.5> 425 86
LayerCount: 2
Fore
SplineSet
313 569 m 1xf8
 306 553 294 526 278 488 c 0
 261 450 245 412 228 376 c 0
 211 338 195 303 178 268 c 1
 226 267 263 266 288 266 c 0
 325 266 353 267 371 268 c 1
 359 322 340 422 313 569 c 1xf8
384 209 m 1
 317 208 277 207 264 207 c 0
 249 207 211 208 150 209 c 1
 143 193 131 168 116 134 c 0
 101 100 88 71 77 48 c 0
 66 24 58 4 53 -13 c 1
 38 -12 24 -9 11 -2 c 0
 -3 5 -10 15 -10 28 c 0
 -10 34 -3 51 11 79 c 0
 24 107 45 148 72 202 c 0
 99 256 122 301 139 336 c 0
 216 497 263 604 278 659 c 1
 302 662 317 663 323 663 c 0
 339 663 351 659 358 652 c 0
 365 645 371 631 375 610 c 0
 377 601 382 573 390 525 c 0
 399 477 407 433 415 394 c 0
 423 354 431 316 440 280 c 0
 469 151 493 61 511 10 c 1
 492 -3 476 -10 462 -10 c 0
 441 -10 429 -1 425 17 c 0xfa
 416 59 402 123 384 209 c 1
235 712 m 0
 222 712 212 716 204 725 c 0
 196 734 192 745 192 759 c 0
 192 776 198 790 209 802 c 0
 220 813 233 819 248 819 c 0
 260 819 270 814 279 805 c 0
 287 796 291 784 291 770 c 0
 291 754 285 740 273 729 c 0
 261 718 248 712 235 712 c 0
402 712 m 0
 389 712 379 716 371 725 c 0
 363 734 359 745 359 759 c 0
 359 776 365 790 376 801 c 0
 387 813 400 819 415 819 c 0
 427 819 437 814 446 805 c 0
 454 796 458 784 458 770 c 0xfc
 458 754 452 740 440 729 c 0
 428 718 415 712 402 712 c 0
EndSplineSet
Validated: 1
Substitution2: "'c2sc' Capitals to Small Capitals in Latin lookup 1 subtable" adieresis.sc
EndChar

StartChar: Aring
Encoding: 197 197 131
Width: 528
GlyphClass: 2
Flags: MW
HStem: -13 21G 209 59 711 33<317 331 317 332.5> 856 33<329.5 343.5>
VStem: -10 87 244 42<783 799.5 783 800.5> 373 43<799.5 816> 425 86
LayerCount: 2
Fore
SplineSet
319 711 m 0
 296 711 277 718 264 731 c 0
 251 744 244 763 244 786 c 0
 244 815 254 840 272 859 c 0
 292 879 315 889 342 889 c 0
 365 889 383 882 396 869 c 0
 409 856 416 837 416 814 c 0
 416 785 407 760 388 740 c 0
 369 721 346 711 319 711 c 0
338 856 m 0
 321 856 308 850 299 837 c 0
 290 825 286 809 286 790 c 0
 286 776 289 765 295 756 c 0
 302 748 311 744 323 744 c 0
 339 744 351 750 360 762 c 0
 369 775 373 790 373 809 c 0
 373 823 370 834 363 843 c 0
 357 852 349 856 338 856 c 0
313 569 m 1
 306 553 294 526 278 488 c 0
 261 450 245 412 228 375 c 0
 211 338 195 303 178 268 c 1
 226 267 263 266 288 266 c 0
 325 266 353 267 371 268 c 1
 359 322 340 422 313 569 c 1
384 209 m 1
 317 208 277 207 264 207 c 0
 249 207 211 208 150 209 c 1
 143 193 131 168 116 134 c 0
 101 100 88 71 77 47 c 0
 66 24 58 4 53 -13 c 1
 38 -12 24 -9 11 -2 c 0
 -3 5 -10 15 -10 28 c 0
 -10 34 -3 51 11 79 c 0
 24 107 45 148 72 202 c 0
 99 256 122 301 139 336 c 0
 216 497 263 604 278 659 c 1
 302 662 317 663 323 663 c 0
 339 663 351 659 358 652 c 0
 365 645 371 631 375 610 c 0
 377 601 382 573 390 525 c 0
 399 477 407 433 415 393 c 0
 423 354 431 316 440 280 c 0
 469 151 493 61 511 10 c 1
 492 -3 476 -10 462 -10 c 0
 441 -10 429 -1 425 17 c 0
 416 59 402 123 384 209 c 1
EndSplineSet
Validated: 1
Substitution2: "'c2sc' Capitals to Small Capitals in Latin lookup 1 subtable" aring.sc
EndChar

StartChar: AE
Encoding: 198 198 132
Width: 716
GlyphClass: 2
Flags: MW
HStem: -10 21G -3 62<454.5 471 445.5 521.5> 207 59<257.5 346> 323 63<439 467.5> 601 64<543.5 591.5>
VStem: 318 85<28 78>
LayerCount: 2
Fore
SplineSet
299 266 m 2x3c
 346 266 l 1
 365 402 377 502 382 565 c 1
 373 550 346 508 302 439 c 0
 259 370 222 313 192 268 c 1
 237 267 273 266 299 266 c 2x3c
717 580 m 1
 685 594 630 601 553 601 c 0
 527 601 497 600 463 598 c 1
 462 567 454 496 439 386 c 1
 530 386 587 387 609 390 c 1
 610 379 611 372 611 368 c 0
 611 341 596 326 566 324 c 0
 550 323 505 323 430 323 c 1
 412 182 403 95 403 61 c 1
 422 60 438 59 453 59 c 0
 489 59 525 61 562 66 c 0
 599 71 624 76 636 82 c 1
 641 64 644 50 644 40 c 0
 644 21 633 9 612 4 c 0
 591 -1 551 -3 492 -3 c 0x7c
 417 -3 371 -2 354 -1 c 0
 341 0 331 3 326 8 c 0
 321 13 318 22 318 34 c 0
 318 57 324 115 337 208 c 1
 319 207 295 207 264 207 c 0
 251 207 213 208 152 209 c 1
 76 95 30 22 14 -10 c 1xbc
 -22 -4 -40 8 -40 26 c 0
 -40 33 -26 58 2 99 c 0
 14 116 36 147 67 192 c 0
 98 237 123 272 140 298 c 0
 235 438 309 557 362 654 c 1
 432 661 505 665 582 665 c 0
 668 665 716 660 726 650 c 0
 729 646 731 640 731 631 c 0
 731 614 726 597 717 580 c 1
EndSplineSet
Validated: 1
Substitution2: "'c2sc' Capitals to Small Capitals in Latin lookup 1 subtable" ae.sc
EndChar

StartChar: Ccedilla
Encoding: 199 199 133
Width: 517
GlyphClass: 2
Flags: MW
HStem: -232 45<220.5 228> -10 61 612 61<329.5 368.5>
VStem: 48 83<252.5 324.5> 230 51<-64.5 -30.5> 287 54<-136 -135.5> 473 59
LayerCount: 2
Fore
SplineSet
427 134 m 1
 456 122 470 106 470 87 c 0
 470 62 452 40 416 21 c 0
 380 1 337 -9 288 -10 c 1
 283 -21 281 -28 281 -33 c 0
 281 -40 288 -49 303 -60 c 0
 328 -75 341 -96 341 -122 c 0
 341 -150 328 -175 303 -198 c 0
 277 -221 246 -232 210 -232 c 0
 189 -232 179 -224 179 -209 c 0
 179 -200 185 -189 198 -178 c 1
 207 -184 216 -187 225 -187 c 0
 242 -187 256 -183 269 -175 c 0
 281 -167 287 -156 287 -142 c 0
 287 -129 278 -114 259 -99 c 0
 240 -84 230 -70 230 -59 c 0
 230 -48 235 -30 246 -7 c 1
 184 1 136 29 101 78 c 0
 66 126 48 188 48 264 c 0
 48 385 79 483 140 559 c 0
 201 635 281 673 378 673 c 0
 422 673 459 664 488 644 c 0
 517 626 532 602 532 574 c 0
 532 557 526 544 516 534 c 0
 504 523 490 517 473 514 c 1
 466 547 451 571 429 588 c 0
 407 604 382 612 355 612 c 0
 290 612 236 579 194 514 c 0
 152 449 131 373 131 287 c 0
 131 218 145 161 172 117 c 0
 200 73 241 51 294 51 c 0
 349 51 393 79 427 134 c 1
EndSplineSet
Validated: 1
Substitution2: "'c2sc' Capitals to Small Capitals in Latin lookup 1 subtable" ccedilla.sc
EndChar

StartChar: Egrave
Encoding: 200 200 134
Width: 458
GlyphClass: 2
Flags: MW
HStem: -3 62<196.5 213 187.5 263.5> 323 63<181 209.5> 601 64<290.5 333.5> 716 21G
VStem: 60 85<28 78> 127 78
LayerCount: 2
Fore
SplineSet
459 580 m 1xf4
 427 594 372 601 295 601 c 0
 269 601 239 600 205 598 c 1xf4
 204 567 196 496 181 386 c 1
 272 386 329 387 351 390 c 1
 352 379 353 372 353 368 c 0
 353 341 338 326 308 324 c 0
 292 323 247 323 172 323 c 1
 154 182 145 95 145 61 c 1
 164 60 180 59 195 59 c 0
 231 59 267 61 304 66 c 0
 341 71 366 76 378 82 c 1
 383 64 386 50 386 40 c 0
 386 21 375 9 354 4 c 0
 333 -1 293 -3 234 -3 c 0
 159 -3 113 -2 96 -1 c 0
 83 0 73 3 68 8 c 0
 63 13 60 22 60 34 c 0xf8
 60 53 71 143 94 306 c 0
 116 469 127 577 127 631 c 0
 127 643 127 651 126 656 c 1
 191 662 257 665 324 665 c 0
 410 665 458 660 468 650 c 0
 471 646 473 640 473 631 c 0
 473 614 468 597 459 580 c 1xf4
188 810 m 0
 171 821 163 833 163 846 c 0
 163 864 175 879 198 892 c 1
 206 882 217 871 231 858 c 0
 245 845 258 834 270 825 c 0
 282 816 295 806 309 795 c 0
 323 784 331 778 334 776 c 0
 347 767 353 757 353 748 c 0
 353 737 348 727 337 716 c 1
 328 723 305 738 268 760 c 0
 231 783 204 799 188 810 c 0
EndSplineSet
Validated: 1
Substitution2: "'c2sc' Capitals to Small Capitals in Latin lookup 1 subtable" egrave.sc
EndChar

StartChar: Eacute
Encoding: 201 201 135
Width: 458
GlyphClass: 2
Flags: MW
HStem: -3 62<196.5 213 187.5 263.5> 323 63<181 209.5> 601 64<290.5 333.5> 715 21G
VStem: 60 85<28 78> 127 78
LayerCount: 2
Fore
SplineSet
459 580 m 1xf4
 427 594 372 601 295 601 c 0
 269 601 239 600 205 598 c 1xf4
 204 567 196 496 181 386 c 1
 272 386 329 387 351 390 c 1
 352 379 353 372 353 368 c 0
 353 341 338 326 308 324 c 0
 292 323 247 323 172 323 c 1
 154 182 145 95 145 61 c 1
 164 60 180 59 195 59 c 0
 231 59 267 61 304 66 c 0
 341 71 366 76 378 82 c 1
 383 64 386 50 386 40 c 0
 386 21 375 9 354 4 c 0
 333 -1 293 -3 234 -3 c 0
 159 -3 113 -2 96 -1 c 0
 83 0 73 3 68 8 c 0
 63 13 60 22 60 34 c 0xf8
 60 53 71 143 94 306 c 0
 116 469 127 577 127 631 c 0
 127 643 127 651 126 656 c 1
 191 662 257 665 324 665 c 0
 410 665 458 660 468 650 c 0
 471 646 473 640 473 631 c 0
 473 614 468 597 459 580 c 1xf4
420 794 m 0
 405 786 378 773 337 754 c 0
 296 735 271 722 261 715 c 1
 252 724 248 733 248 744 c 0
 248 757 255 767 269 774 c 0
 339 814 389 849 419 878 c 1
 439 863 449 848 449 833 c 0
 449 818 439 805 420 794 c 0
EndSplineSet
Validated: 1
Substitution2: "'c2sc' Capitals to Small Capitals in Latin lookup 1 subtable" eacute.sc
EndChar

StartChar: Ecircumflex
Encoding: 202 202 136
Width: 458
GlyphClass: 2
Flags: MW
HStem: -3 62<196.5 213 187.5 263.5> 323 63<181 209.5> 601 64<290.5 333.5> 718 21G<195 200.5>
VStem: 60 85<28 78> 127 78
LayerCount: 2
Fore
SplineSet
329 870 m 1xf0
 400 817 435 774 435 743 c 0
 435 728 426 717 408 710 c 1
 399 726 386 741 371 756 c 0
 356 771 343 781 332 788 c 2
 317 799 l 1
 313 796 307 790 298 783 c 0
 289 776 282 771 277 767 c 0
 272 763 265 758 258 752 c 0
 250 746 244 741 239 738 c 0
 234 735 228 731 223 728 c 0
 217 725 212 722 209 720 c 0
 205 719 202 718 199 718 c 0
 191 718 184 724 177 736 c 1
 222 786 273 831 329 870 c 1xf0
459 580 m 1
 427 594 372 601 295 601 c 0
 269 601 239 600 205 598 c 1xf4
 204 567 196 496 181 386 c 1
 272 386 329 387 351 390 c 1
 352 379 353 372 353 368 c 0
 353 341 338 326 308 324 c 0
 292 323 247 323 172 323 c 1
 154 182 145 95 145 61 c 1
 164 60 180 59 195 59 c 0
 231 59 268 61 304 66 c 0
 342 71 366 76 378 82 c 1
 383 64 386 50 386 40 c 0
 386 21 376 9 354 4 c 0
 334 -1 293 -3 234 -3 c 0
 159 -3 113 -2 96 -1 c 0
 83 0 73 3 68 8 c 0
 63 13 60 22 60 34 c 0xf8
 60 53 71 143 94 306 c 0
 116 469 127 577 127 631 c 0xf4
 127 643 127 651 126 656 c 1
 191 662 257 665 324 665 c 0
 410 665 458 660 468 650 c 0
 471 646 473 640 473 631 c 0
 473 614 468 597 459 580 c 1
EndSplineSet
Validated: 1
Substitution2: "'c2sc' Capitals to Small Capitals in Latin lookup 1 subtable" ecircumflex.sc
EndChar

StartChar: Edieresis
Encoding: 203 203 137
Width: 453
GlyphClass: 2
Flags: MW
HStem: -3 62<206 227 197 277.5> 323 63<181 209.5> 601 64<287.5 328.5> 712 107<223.5 224.5 390.5 391.5>
VStem: 60 85<28 78> 127 78 175 99<762 767.5> 342 99<762 767.5>
LayerCount: 2
Fore
SplineSet
454 580 m 1xf5
 422 594 367 601 290 601 c 0
 267 601 239 600 205 598 c 1xf5
 204 567 196 496 181 386 c 1
 272 386 329 387 351 390 c 1
 352 379 353 372 353 368 c 0
 353 341 338 326 308 324 c 0
 292 323 247 323 172 323 c 1
 154 182 145 95 145 61 c 1
 164 60 185 59 209 59 c 0
 245 59 282 61 318 66 c 0
 356 71 380 76 392 82 c 1
 397 64 400 50 400 40 c 0
 400 21 390 9 368 4 c 0
 348 -1 307 -3 248 -3 c 0
 164 -3 113 -2 96 -1 c 0
 83 0 73 3 68 8 c 0
 63 13 60 22 60 34 c 0xf9
 60 53 71 143 94 306 c 0
 116 469 127 577 127 631 c 0
 127 643 127 651 126 656 c 1
 191 662 256 665 319 665 c 0
 405 665 453 660 463 650 c 0
 466 646 468 640 468 631 c 0
 468 614 463 597 454 580 c 1xf5
218 712 m 0
 205 712 195 716 187 725 c 0
 179 734 175 745 175 759 c 0
 175 776 181 790 192 801 c 0
 203 813 216 819 231 819 c 0
 243 819 253 814 262 805 c 0
 270 796 274 784 274 770 c 0xf3
 274 754 268 740 256 729 c 0
 244 718 231 712 218 712 c 0
385 712 m 0
 372 712 362 716 354 725 c 0
 346 734 342 745 342 759 c 0
 342 776 348 790 359 801 c 0
 370 813 383 819 398 819 c 0
 410 819 420 814 428 805 c 0
 437 796 441 784 441 770 c 0
 441 754 435 740 423 729 c 0
 411 718 398 712 385 712 c 0
EndSplineSet
Validated: 1
Substitution2: "'c2sc' Capitals to Small Capitals in Latin lookup 1 subtable" edieresis.sc
EndChar

StartChar: Igrave
Encoding: 204 204 138
Width: 236
GlyphClass: 2
Flags: MW
HStem: -3 21G<88 112> 646 20G<166.5 189.5> 716 21G
VStem: 60 86<25 82.5> 134 85
LayerCount: 2
Fore
SplineSet
175 666 m 0xe8
 204 666 219 655 219 633 c 0xe8
 219 630 217 619 214 601 c 0
 211 582 206 555 200 518 c 0
 194 481 189 443 184 404 c 2
 158 203 l 2
 150 144 146 99 146 66 c 0
 146 43 147 23 150 5 c 1
 138 0 122 -3 102 -3 c 0
 74 -3 60 11 60 39 c 0xf0
 60 44 62 58 65 83 c 0
 68 107 74 152 83 219 c 0
 92 285 102 356 111 431 c 0
 124 531 131 608 134 663 c 1
 145 665 158 666 175 666 c 0xe8
71 810 m 0
 54 821 46 833 46 846 c 0
 46 864 58 879 81 892 c 1
 89 882 100 871 114 858 c 0
 128 845 141 834 153 825 c 0
 165 816 178 806 192 795 c 0
 206 784 214 778 217 776 c 0
 230 767 236 757 236 748 c 0
 236 737 231 727 220 716 c 1
 211 723 188 738 151 761 c 0
 114 783 87 799 71 810 c 0
EndSplineSet
Validated: 1
Substitution2: "'c2sc' Capitals to Small Capitals in Latin lookup 1 subtable" igrave.sc
EndChar

StartChar: Iacute
Encoding: 205 205 139
Width: 236
GlyphClass: 2
Flags: MW
HStem: -3 21G<88 112> 646 20G<166.5 189.5> 716 21G
VStem: 60 86<25 82.5> 134 85
LayerCount: 2
Fore
SplineSet
175 666 m 0xe8
 204 666 219 655 219 633 c 0xe8
 219 630 217 619 214 601 c 0
 211 582 206 555 200 518 c 0
 194 481 189 443 184 404 c 2
 158 203 l 2
 150 144 146 99 146 66 c 0
 146 43 147 23 150 5 c 1
 138 0 122 -3 102 -3 c 0
 74 -3 60 11 60 39 c 0xf0
 60 44 62 58 65 83 c 0
 68 107 74 152 83 219 c 0
 92 285 102 356 111 431 c 0
 124 531 131 608 134 663 c 1
 145 665 158 666 175 666 c 0xe8
283 795 m 0
 268 787 241 774 200 755 c 0
 159 736 134 723 124 716 c 1
 115 725 111 734 111 745 c 0
 111 758 118 768 132 775 c 0
 202 815 252 850 282 879 c 1
 302 864 312 849 312 834 c 0
 312 819 302 806 283 795 c 0
EndSplineSet
Validated: 1
Substitution2: "'c2sc' Capitals to Small Capitals in Latin lookup 1 subtable" iacute.sc
EndChar

StartChar: Icircumflex
Encoding: 206 206 140
Width: 236
GlyphClass: 2
Flags: MW
HStem: -3 21G<88 112> 646 20G<166.5 189.5> 718 21G<68 73.5>
VStem: 60 86<25 82.5> 134 85
LayerCount: 2
Fore
SplineSet
202 870 m 1xe0
 273 817 308 774 308 743 c 0
 308 728 299 717 281 710 c 1
 272 726 259 741 244 756 c 0
 229 771 216 781 206 788 c 2
 190 799 l 1
 186 796 180 790 171 783 c 0
 162 776 155 771 150 767 c 0
 145 763 138 758 131 752 c 0
 123 746 117 741 112 738 c 0
 107 735 101 731 96 728 c 0
 90 725 85 722 82 720 c 0
 78 719 75 718 72 718 c 0
 64 718 57 724 50 736 c 1
 95 786 146 831 202 870 c 1xe0
175 666 m 0
 204 666 219 655 219 633 c 0xe8
 219 630 217 619 214 600 c 0
 211 582 206 554 200 518 c 0
 194 480 189 443 184 404 c 2
 158 203 l 2
 150 144 146 99 146 66 c 0
 146 43 147 23 150 5 c 1
 138 0 122 -3 102 -3 c 0
 74 -3 60 11 60 39 c 0xf0
 60 44 62 58 65 82 c 0
 68 107 74 152 83 218 c 0
 92 285 102 356 111 431 c 0
 124 531 131 608 134 663 c 1xe8
 145 665 158 666 175 666 c 0
EndSplineSet
Validated: 1
Substitution2: "'c2sc' Capitals to Small Capitals in Latin lookup 1 subtable" icircumflex.sc
EndChar

StartChar: Idieresis
Encoding: 207 207 141
Width: 236
GlyphClass: 2
Flags: MW
HStem: -3 21G<88 112> 646 20G<166.5 189.5> 712 107<102.5 103.5 269.5 270.5>
VStem: 54 99<762 767.5> 60 86<25 82.5> 134 85 221 99<762 767.5>
LayerCount: 2
Fore
SplineSet
175 666 m 0xe6
 204 666 219 655 219 633 c 0xe6
 219 630 217 619 214 601 c 0
 211 582 206 555 200 518 c 0
 194 481 189 443 184 404 c 2
 158 203 l 2
 150 144 146 99 146 66 c 0
 146 43 147 23 150 5 c 1
 138 0 122 -3 102 -3 c 0
 74 -3 60 11 60 39 c 0xea
 60 44 62 58 65 83 c 0
 68 107 74 152 83 219 c 0
 92 285 102 356 111 431 c 0
 124 531 131 608 134 663 c 1
 145 665 158 666 175 666 c 0xe6
97 712 m 0
 84 712 74 716 66 725 c 0
 58 734 54 745 54 759 c 0
 54 776 60 790 71 802 c 0
 82 813 95 819 110 819 c 0
 122 819 132 814 140 805 c 0
 149 796 153 784 153 770 c 0xf2
 153 754 147 740 135 729 c 0
 123 718 110 712 97 712 c 0
264 712 m 0
 251 712 241 716 233 725 c 0
 225 734 221 745 221 759 c 0
 221 776 227 790 238 802 c 0
 249 813 262 819 277 819 c 0
 289 819 299 814 307 805 c 0
 316 796 320 784 320 770 c 0
 320 754 314 740 302 729 c 0
 290 718 277 712 264 712 c 0
EndSplineSet
Validated: 1
Substitution2: "'c2sc' Capitals to Small Capitals in Latin lookup 1 subtable" idieresis.sc
EndChar

StartChar: Eth
Encoding: 208 208 142
Width: 605
GlyphClass: 2
Flags: MW
HStem: -10 61<246.5 290 246.5 291.5> 323 63<104.5 122 207 236.5> 612 61<281 321.5>
VStem: 502 84<368 420.5>
LayerCount: 2
Fore
SplineSet
231 608 m 1
 225 534 217 460 207 386 c 1
 299 386 356 387 377 390 c 1
 378 379 379 372 379 368 c 0
 379 341 364 326 334 324 c 0
 320 323 275 323 198 323 c 1
 185 238 172 160 157 87 c 1
 186 63 224 51 269 51 c 0
 311 51 348 62 380 84 c 0
 412 105 436 133 453 168 c 0
 470 202 482 237 490 274 c 0
 498 310 502 346 502 382 c 0
 502 459 484 516 446 554 c 0
 410 593 356 612 287 612 c 0
 275 612 256 611 231 608 c 1
74 53 m 1
 93 142 109 232 122 323 c 1
 87 323 60 322 42 319 c 1
 41 330 40 337 40 341 c 0
 40 371 55 386 86 386 c 2
 131 386 l 1
 144 495 152 587 154 661 c 1
 190 669 237 673 296 673 c 0
 489 673 586 583 586 404 c 0
 586 332 574 265 549 204 c 0
 524 142 487 91 436 51 c 0
 385 10 325 -10 258 -10 c 0
 175 -10 114 11 74 53 c 1
EndSplineSet
Validated: 1
Substitution2: "'c2sc' Capitals to Small Capitals in Latin lookup 1 subtable" eth.sc
EndChar

StartChar: Ntilde
Encoding: 209 209 143
Width: 580
GlyphClass: 2
Flags: MW
HStem: -3 21G<94 108.5 439.5 456> 647 20G<160.5 179.5> 721 59<393 433.5> 766 59<286.5 330>
VStem: 60 76<28.5 68.5> 489 74
LayerCount: 2
Fore
SplineSet
483 1 m 1xcc
 473 -2 462 -3 450 -3 c 0
 429 -3 414 6 406 24 c 0
 389 63 357 140 311 254 c 0
 265 367 225 461 192 534 c 1
 187 499 181 452 173 392 c 0
 165 332 159 285 154 251 c 0
 149 216 145 180 141 143 c 0
 138 106 136 78 136 59 c 0
 136 46 137 28 140 5 c 1
 128 0 115 -3 102 -3 c 0
 86 -3 75 0 69 6 c 0
 63 12 60 22 60 35 c 0
 60 41 61 55 64 76 c 0
 67 97 71 124 75 155 c 0
 80 186 83 212 86 231 c 0
 91 268 96 309 102 355 c 0
 108 401 112 436 115 459 c 0
 118 482 121 507 123 534 c 0
 126 560 127 583 127 604 c 0
 127 625 126 644 123 659 c 1
 136 664 151 667 170 667 c 0
 189 667 205 657 218 638 c 0
 269 561 340 401 432 157 c 1
 466 431 l 2
 477 518 485 596 489 663 c 1
 499 665 510 666 521 666 c 0
 549 666 563 655 563 632 c 0
 563 627 561 614 557 592 c 0
 553 571 548 542 542 506 c 0
 537 469 532 435 528 404 c 0
 524 371 518 324 510 262 c 0
 502 201 496 150 492 112 c 0
 488 72 485 36 483 1 c 1xcc
430 780 m 0xec
 437 780 448 784 461 793 c 0
 474 802 485 811 495 822 c 1
 504 819 508 813 508 805 c 0
 508 786 496 768 472 749 c 0
 448 730 424 721 400 721 c 0xec
 386 721 368 729 345 744 c 0
 322 759 305 766 293 766 c 0
 280 766 259 752 228 724 c 1
 219 728 215 734 215 741 c 0
 215 760 227 778 251 797 c 0
 275 816 299 825 324 825 c 0xdc
 336 825 354 818 378 803 c 0
 401 788 419 780 430 780 c 0xec
EndSplineSet
Validated: 1
Substitution2: "'c2sc' Capitals to Small Capitals in Latin lookup 1 subtable" ntilde.sc
EndChar

StartChar: Ograve
Encoding: 210 210 144
Width: 628
GlyphClass: 2
Flags: MW
HStem: -10 60<265.5 317.5 265.5 332.5> 612 62<326.5 390> 716 21G
VStem: 48 83<253.5 321.5> 525 84<352 414>
LayerCount: 2
Fore
SplineSet
284 -10 m 0
 210 -10 152 14 110 63 c 0
 69 112 48 179 48 263 c 0
 48 380 78 477 138 556 c 0
 197 635 275 674 370 674 c 0
 445 674 503 650 546 602 c 0
 588 553 609 487 609 402 c 0
 609 287 579 190 519 110 c 0
 459 30 381 -10 284 -10 c 0
362 612 m 0
 291 612 235 581 194 518 c 0
 152 455 131 379 131 288 c 0
 131 219 144 162 171 117 c 0
 197 72 238 50 293 50 c 0
 342 50 385 66 421 98 c 0
 457 131 483 171 500 220 c 0
 517 269 525 323 525 381 c 0
 525 447 512 502 486 546 c 0
 459 590 418 612 362 612 c 0
250 810 m 0
 233 821 225 833 225 846 c 0
 225 864 237 879 260 892 c 1
 268 882 279 871 293 858 c 0
 307 845 320 834 332 825 c 0
 344 816 357 806 371 795 c 0
 385 784 393 778 396 776 c 0
 409 767 415 757 415 748 c 0
 415 737 410 727 399 716 c 1
 390 723 367 738 330 760 c 0
 293 783 266 799 250 810 c 0
EndSplineSet
Validated: 1
Substitution2: "'c2sc' Capitals to Small Capitals in Latin lookup 1 subtable" ograve.sc
EndChar

StartChar: Oacute
Encoding: 211 211 145
Width: 628
GlyphClass: 2
Flags: MW
HStem: -10 60<265.5 317.5 265.5 332.5> 612 62<326.5 390> 716 21G
VStem: 48 83<253.5 321.5> 525 84<352 414>
LayerCount: 2
Fore
SplineSet
284 -10 m 0
 210 -10 152 14 110 63 c 0
 69 112 48 179 48 263 c 0
 48 380 78 477 138 556 c 0
 197 635 275 674 370 674 c 0
 445 674 503 650 546 602 c 0
 588 553 609 487 609 402 c 0
 609 287 579 190 519 110 c 0
 459 30 381 -10 284 -10 c 0
362 612 m 0
 291 612 235 581 194 518 c 0
 152 455 131 379 131 288 c 0
 131 219 144 162 171 117 c 0
 197 72 238 50 293 50 c 0
 342 50 385 66 421 98 c 0
 457 131 483 171 500 220 c 0
 517 269 525 323 525 381 c 0
 525 447 512 502 486 546 c 0
 459 590 418 612 362 612 c 0
482 795 m 0
 467 787 440 774 399 755 c 0
 358 736 333 723 323 716 c 1
 314 725 310 734 310 745 c 0
 310 758 317 768 331 775 c 0
 401 815 451 850 481 879 c 1
 501 864 511 849 511 834 c 0
 511 819 501 806 482 795 c 0
EndSplineSet
Validated: 1
Substitution2: "'c2sc' Capitals to Small Capitals in Latin lookup 1 subtable" oacute.sc
EndChar

StartChar: Ocircumflex
Encoding: 212 212 146
Width: 628
GlyphClass: 2
Flags: MW
HStem: -10 60<265.5 317.5 265.5 332.5> 612 62<326.5 390> 718 21G<257 266>
VStem: 48 83<253.5 321.5> 525 84<352 414>
LayerCount: 2
Fore
SplineSet
391 870 m 1
 462 817 497 774 497 743 c 0
 497 728 488 717 470 710 c 1
 461 726 448 741 433 756 c 0
 418 771 405 781 394 788 c 2
 379 799 l 1
 310 745 271 718 261 718 c 0
 253 718 246 724 239 736 c 1
 284 786 335 831 391 870 c 1
284 -10 m 0
 210 -10 152 14 110 63 c 0
 69 112 48 179 48 263 c 0
 48 380 78 477 137 556 c 0
 197 635 275 674 370 674 c 0
 445 674 503 650 545 601 c 0
 588 553 609 487 609 402 c 0
 609 287 579 190 519 110 c 0
 459 30 381 -10 284 -10 c 0
362 612 m 0
 291 612 235 581 194 518 c 0
 152 455 131 379 131 288 c 0
 131 219 144 162 170 117 c 0
 197 72 238 50 293 50 c 0
 342 50 385 66 421 98 c 0
 457 131 483 171 500 220 c 0
 517 269 525 323 525 381 c 0
 525 447 512 502 485 546 c 0
 459 590 418 612 362 612 c 0
EndSplineSet
Validated: 1
Substitution2: "'c2sc' Capitals to Small Capitals in Latin lookup 1 subtable" ocircumflex.sc
EndChar

StartChar: Otilde
Encoding: 213 213 147
Width: 628
GlyphClass: 2
Flags: MW
HStem: -10 60<265.5 317.5 265.5 332.5> 612 62<326.5 390> 721 59<418 458.5> 766 59<311.5 355>
VStem: 48 83<253.5 321.5> 525 84<352 414>
LayerCount: 2
Fore
SplineSet
284 -10 m 0xcc
 210 -10 152 14 110 63 c 0
 69 112 48 179 48 263 c 0
 48 380 78 477 138 556 c 0
 197 635 275 674 370 674 c 0
 445 674 503 650 546 602 c 0
 588 553 609 487 609 402 c 0
 609 287 579 190 519 110 c 0
 459 30 381 -10 284 -10 c 0xcc
362 612 m 0
 291 612 235 581 194 518 c 0
 152 455 131 379 131 288 c 0
 131 219 144 162 171 117 c 0
 197 72 238 50 293 50 c 0
 342 50 385 66 421 98 c 0
 457 131 483 171 500 220 c 0
 517 269 525 323 525 381 c 0
 525 447 512 502 486 546 c 0
 459 590 418 612 362 612 c 0
455 780 m 0xec
 462 780 473 784 486 793 c 0
 499 802 510 811 520 822 c 1
 529 819 533 813 533 805 c 0
 533 786 521 768 497 749 c 0
 473 730 449 721 425 721 c 0xec
 411 721 393 728 370 743 c 0
 347 758 330 766 318 766 c 0
 305 766 284 752 253 724 c 1
 244 728 240 734 240 741 c 0
 240 760 252 778 276 797 c 0
 300 816 324 825 349 825 c 0xdc
 361 825 379 818 403 802 c 0
 426 788 444 780 455 780 c 0xec
EndSplineSet
Validated: 1
Substitution2: "'c2sc' Capitals to Small Capitals in Latin lookup 1 subtable" otilde.sc
EndChar

StartChar: Odieresis
Encoding: 214 214 148
Width: 628
GlyphClass: 2
Flags: MW
HStem: -10 60<265.5 317.5 265.5 332.5> 612 62<326.5 390> 712 107<293.5 294.5 460.5 461.5>
VStem: 48 83<253.5 321.5> 245 99<762 767.5> 412 99<762 767.5> 525 84<352 414>
LayerCount: 2
Fore
SplineSet
284 -10 m 0
 210 -10 152 14 110 63 c 0
 69 112 48 179 48 263 c 0
 48 380 78 477 138 556 c 0
 197 635 275 674 370 674 c 0
 445 674 503 650 546 602 c 0
 588 553 609 487 609 402 c 0
 609 287 579 190 519 110 c 0
 459 30 381 -10 284 -10 c 0
362 612 m 0
 291 612 235 581 194 518 c 0
 152 455 131 379 131 288 c 0
 131 219 144 162 171 117 c 0
 197 72 238 50 293 50 c 0
 342 50 385 66 421 98 c 0
 457 131 483 171 500 220 c 0
 517 269 525 323 525 381 c 0
 525 447 512 502 486 546 c 0
 459 590 418 612 362 612 c 0
288 712 m 0
 275 712 265 716 257 725 c 0
 249 734 245 745 245 759 c 0
 245 776 251 790 262 802 c 0
 273 813 286 819 301 819 c 0
 313 819 323 814 332 805 c 0
 340 796 344 784 344 770 c 0
 344 754 338 740 326 729 c 0
 314 718 301 712 288 712 c 0
455 712 m 0
 442 712 432 716 424 725 c 0
 416 734 412 745 412 759 c 0
 412 776 418 790 429 801 c 0
 440 813 453 819 468 819 c 0
 480 819 490 814 499 805 c 0
 507 796 511 784 511 770 c 0
 511 754 505 740 493 729 c 0
 481 718 468 712 455 712 c 0
EndSplineSet
Validated: 1
Substitution2: "'c2sc' Capitals to Small Capitals in Latin lookup 1 subtable" odieresis.sc
EndChar

StartChar: multiply
Encoding: 215 215 149
Width: 574
GlyphClass: 2
Flags: W
LayerCount: 2
Fore
SplineSet
327 252 m 1
 400 179 456 127 493 97 c 1
 478 72 461 60 442 60 c 0
 433 60 426 63 419 70 c 0
 410 79 389 102 354 140 c 0
 319 177 297 201 286 212 c 1
 220 147 168 92 131 46 c 1
 106 63 93 80 93 97 c 0
 93 106 96 113 103 120 c 0
 104 120 151 164 246 253 c 1
 163 333 108 385 81 408 c 1
 97 433 114 446 131 446 c 0
 140 446 148 442 155 435 c 0
 159 431 168 421 183 406 c 0
 197 390 214 371 235 349 c 0
 256 327 273 308 287 293 c 1
 360 366 412 422 442 459 c 1
 451 454 460 446 468 437 c 0
 475 428 479 418 479 408 c 0
 479 399 476 392 469 385 c 0
 460 376 437 355 400 320 c 0
 362 285 338 263 327 252 c 1
EndSplineSet
Validated: 1
EndChar

StartChar: Oslash
Encoding: 216 216 150
Width: 632
GlyphClass: 2
Flags: MW
HStem: -10 60<275.5 317.5 275.5 332.5> 612 62<326.5 383.5>
VStem: 48 83<251.5 321.5> 525 84<352 409.5>
LayerCount: 2
Fore
SplineSet
293 50 m 0
 342 50 385 66 421 99 c 0
 457 131 483 172 500 221 c 0
 517 270 525 323 525 381 c 0
 525 438 515 487 496 526 c 1
 205 78 l 1
 229 59 258 50 293 50 c 0
362 612 m 0
 291 612 235 581 194 518 c 0
 152 455 131 379 131 288 c 0
 131 215 144 158 171 116 c 1
 467 570 l 1
 440 598 405 612 362 612 c 0
284 -10 m 0
 239 -10 200 -1 166 18 c 1
 153 -2 133 -36 105 -84 c 1
 94 -83 84 -80 77 -75 c 0
 70 -70 66 -63 66 -55 c 0
 66 -49 69 -42 74 -33 c 2
 126 47 l 1
 74 95 48 167 48 263 c 0
 48 380 78 477 138 556 c 0
 197 635 275 674 370 674 c 0
 424 674 470 661 508 634 c 1
 531 670 553 707 574 744 c 1
 600 743 613 733 613 715 c 0
 613 708 610 700 605 693 c 2
 545 602 l 1
 588 554 609 487 609 402 c 0
 609 287 579 190 519 110 c 0
 459 30 381 -10 284 -10 c 0
EndSplineSet
Validated: 1
Substitution2: "'c2sc' Capitals to Small Capitals in Latin lookup 1 subtable" oslash.sc
EndChar

StartChar: Ugrave
Encoding: 217 217 151
Width: 596
GlyphClass: 2
Flags: MW
HStem: -10 72<219 237.5> -3 21G<448 472> 646 20G<166.5 189.5 526.5 549.5> 716 21G
VStem: 79 77<150 165.5> 134 85 420 86<25 82.5>
LayerCount: 2
Fore
SplineSet
450 274 m 1xba
 477 477 491 607 494 663 c 1
 505 665 518 666 535 666 c 0
 564 666 579 655 579 633 c 0
 579 630 577 619 574 601 c 0
 571 582 566 555 560 518 c 0
 554 481 549 443 544 404 c 2
 518 203 l 2
 510 144 506 99 506 66 c 0
 506 43 507 23 510 5 c 1
 498 0 482 -3 462 -3 c 0x7a
 434 -3 420 11 420 39 c 0
 420 45 424 76 432 132 c 1
 403 87 370 52 332 27 c 0
 293 2 256 -10 219 -10 c 0xb6
 174 -10 140 6 116 38 c 0
 91 70 79 110 79 157 c 0xba
 79 174 87 245 104 372 c 0
 121 498 131 595 134 663 c 1
 145 665 158 666 175 666 c 0
 204 666 219 655 219 633 c 0xb6
 219 631 218 621 215 603 c 0
 212 585 207 558 202 524 c 0
 196 488 191 454 186 421 c 0
 166 274 156 188 156 164 c 0
 156 136 162 112 174 92 c 0
 187 72 206 62 232 62 c 0
 269 62 309 82 352 122 c 0
 395 163 428 213 450 274 c 1xba
251 810 m 0
 234 821 226 833 226 846 c 0
 226 864 238 879 261 892 c 1
 269 882 280 871 294 858 c 0
 308 845 321 834 333 825 c 0
 345 816 358 806 372 795 c 0
 386 784 394 778 397 776 c 0
 410 767 416 757 416 748 c 0
 416 737 411 727 400 716 c 1
 391 723 368 738 331 760 c 0
 294 783 267 799 251 810 c 0
EndSplineSet
Validated: 1
Substitution2: "'c2sc' Capitals to Small Capitals in Latin lookup 1 subtable" ugrave.sc
EndChar

StartChar: Uacute
Encoding: 218 218 152
Width: 596
GlyphClass: 2
Flags: MW
HStem: -10 72<219 237.5> -3 21G<448 472> 646 20G<166.5 189.5 526.5 549.5> 716 21G
VStem: 79 77<150 165.5> 134 85 420 86<25 82.5>
LayerCount: 2
Fore
SplineSet
450 274 m 1xba
 477 477 491 607 494 663 c 1
 505 665 518 666 535 666 c 0
 564 666 579 655 579 633 c 0
 579 630 577 619 574 601 c 0
 571 582 566 555 560 518 c 0
 554 481 549 443 544 404 c 2
 518 203 l 2
 510 144 506 99 506 66 c 0
 506 43 507 23 510 5 c 1
 498 0 482 -3 462 -3 c 0x7a
 434 -3 420 11 420 39 c 0
 420 45 424 76 432 132 c 1
 403 87 370 52 332 27 c 0
 293 2 256 -10 219 -10 c 0xb6
 174 -10 140 6 116 38 c 0
 91 70 79 110 79 157 c 0xba
 79 174 87 245 104 372 c 0
 121 498 131 595 134 663 c 1
 145 665 158 666 175 666 c 0
 204 666 219 655 219 633 c 0xb6
 219 631 218 621 215 603 c 0
 212 585 207 558 202 524 c 0
 196 488 191 454 186 421 c 0
 166 274 156 188 156 164 c 0
 156 136 162 112 174 92 c 0
 187 72 206 62 232 62 c 0
 269 62 309 82 352 122 c 0
 395 163 428 213 450 274 c 1xba
483 795 m 0
 468 787 441 774 400 755 c 0
 359 736 334 723 324 716 c 1
 315 725 311 734 311 745 c 0
 311 758 318 768 332 775 c 0
 402 815 452 850 482 879 c 1
 502 864 512 849 512 834 c 0
 512 819 502 806 483 795 c 0
EndSplineSet
Validated: 1
Substitution2: "'c2sc' Capitals to Small Capitals in Latin lookup 1 subtable" uacute.sc
EndChar

StartChar: Ucircumflex
Encoding: 219 219 153
Width: 596
GlyphClass: 2
Flags: MW
HStem: -10 72<219 237.5> -3 21G<448 472> 646 20G<166.5 189.5 526.5 549.5> 718 21G<254 259.5>
VStem: 79 77<150 165.5> 134 85 420 86<25 82.5>
LayerCount: 2
Fore
SplineSet
388 870 m 1x32
 459 817 494 774 494 743 c 0
 494 728 485 717 467 710 c 1
 458 726 445 741 430 756 c 0
 415 771 402 781 392 788 c 2
 376 799 l 1
 372 796 366 790 357 783 c 0
 348 776 341 771 336 767 c 0
 331 763 324 758 317 752 c 0
 309 746 303 741 298 738 c 0
 293 735 287 731 282 728 c 0
 276 725 271 722 268 720 c 0
 264 719 261 718 258 718 c 0
 250 718 243 724 236 736 c 1
 281 786 332 831 388 870 c 1x32
450 274 m 1
 477 477 491 607 494 663 c 1
 505 665 518 666 535 666 c 0
 564 666 579 655 579 633 c 0
 579 630 577 619 574 600 c 0
 571 582 566 554 560 517 c 0
 554 480 549 443 544 404 c 2
 518 203 l 2
 510 144 506 99 506 66 c 0
 506 43 507 23 510 5 c 1
 498 0 482 -3 462 -3 c 0x7a
 434 -3 420 11 420 39 c 0
 420 45 424 76 432 132 c 1
 403 87 370 52 332 27 c 0
 293 2 256 -10 219 -10 c 0xb6
 174 -10 140 6 116 38 c 0
 91 70 79 110 79 157 c 0xba
 79 174 87 245 104 371 c 0
 121 498 131 595 134 663 c 1
 145 665 158 666 175 666 c 0
 204 666 219 655 219 633 c 0xb6
 219 631 218 621 215 603 c 0
 212 585 207 558 202 523 c 0
 196 488 191 454 186 421 c 0
 166 274 156 188 156 164 c 0
 156 136 162 112 175 92 c 0
 187 72 206 62 232 62 c 0xba
 269 62 309 82 352 122 c 0
 395 163 428 213 450 274 c 1
EndSplineSet
Validated: 1
Substitution2: "'c2sc' Capitals to Small Capitals in Latin lookup 1 subtable" ucircumflex.sc
EndChar

StartChar: Udieresis
Encoding: 220 220 154
Width: 596
GlyphClass: 2
Flags: MW
HStem: -10 72<219 237.5> -3 21G<448 472> 646 20G<166.5 189.5 526.5 549.5> 712 107<294.5 295.5 461.5 462.5>
VStem: 79 77<150 165.5> 134 85 246 99<762 767.5> 413 99<762 767.5> 420 86<25 82.5>
LayerCount: 2
Fore
SplineSet
450 274 m 1xba
 477 477 491 607 494 663 c 1
 505 665 518 666 535 666 c 0
 564 666 579 655 579 633 c 0
 579 630 577 619 574 601 c 0
 571 582 566 555 560 518 c 0
 554 481 549 443 544 404 c 2
 518 203 l 2
 510 144 506 99 506 66 c 0
 506 43 507 23 510 5 c 1
 498 0 482 -3 462 -3 c 0x7a80
 434 -3 420 11 420 39 c 0
 420 45 424 76 432 132 c 1
 403 87 370 52 332 27 c 0
 293 2 256 -10 219 -10 c 0xb680
 174 -10 140 6 116 38 c 0
 91 70 79 110 79 157 c 0xba
 79 174 87 245 104 372 c 0
 121 498 131 595 134 663 c 1
 145 665 158 666 175 666 c 0
 204 666 219 655 219 633 c 0xb6
 219 631 218 621 215 603 c 0
 212 585 207 558 202 524 c 0
 196 488 191 454 186 421 c 0
 166 274 156 188 156 164 c 0
 156 136 162 112 174 92 c 0
 187 72 206 62 232 62 c 0
 269 62 309 82 352 122 c 0
 395 163 428 213 450 274 c 1xba
289 712 m 0
 276 712 266 716 258 725 c 0
 250 734 246 745 246 759 c 0
 246 776 252 790 263 802 c 0
 274 813 287 819 302 819 c 0
 314 819 324 814 332 805 c 0
 341 796 345 784 345 770 c 0
 345 754 339 740 327 729 c 0
 315 718 302 712 289 712 c 0
456 712 m 0
 443 712 433 716 425 725 c 0
 417 734 413 745 413 759 c 0
 413 776 419 790 430 801 c 0
 441 813 454 819 469 819 c 0
 481 819 491 814 499 805 c 0
 508 796 512 784 512 770 c 0x33
 512 754 506 740 494 729 c 0
 482 718 469 712 456 712 c 0
EndSplineSet
Validated: 1
Substitution2: "'c2sc' Capitals to Small Capitals in Latin lookup 1 subtable" udieresis.sc
EndChar

StartChar: Yacute
Encoding: 221 221 155
Width: 461
GlyphClass: 2
Flags: MW
HStem: -3 21G<199 223> 647 20G<110.5 122> 716 21G
VStem: 171 86<25 82.5> 437 74
LayerCount: 2
Fore
SplineSet
50 619 m 1
 53 622 57 627 64 634 c 0
 70 641 74 646 77 648 c 2
 87 657 l 2
 92 661 96 664 100 665 c 0
 104 666 108 667 113 667 c 0
 131 667 145 656 154 633 c 0
 182 578 218 490 261 369 c 1
 295 412 332 467 371 534 c 0
 410 601 432 647 437 672 c 1
 486 672 511 658 511 631 c 0
 511 614 484 569 430 494 c 0
 376 419 327 355 282 302 c 1
 269 203 l 2
 261 144 257 99 257 66 c 0
 257 43 258 23 261 5 c 1
 249 0 233 -3 213 -3 c 0
 185 -3 171 11 171 39 c 0
 171 43 172 53 175 70 c 0
 177 87 181 118 188 163 c 0
 194 208 200 255 206 302 c 1
 143 479 91 584 50 619 c 1
404 795 m 0
 389 787 362 774 321 755 c 0
 280 736 255 723 245 716 c 1
 236 725 232 734 232 745 c 0
 232 758 239 768 253 775 c 0
 323 815 373 850 403 879 c 1
 423 864 433 849 433 834 c 0
 433 819 423 806 404 795 c 0
EndSplineSet
Validated: 1
Substitution2: "'c2sc' Capitals to Small Capitals in Latin lookup 1 subtable" yacute.sc
EndChar

StartChar: Thorn
Encoding: 222 222 156
Width: 473
GlyphClass: 2
Flags: MW
HStem: -3 21G<79 103> 127 61<223 255.5 216 271.5> 496 61<240.5 267.5> 646 20G<157.5 180.5>
VStem: 51 86<25 81.5> 125 85 381 82<350.5 400.5>
LayerCount: 2
Fore
SplineSet
231 188 m 0xf2
 280 188 317 206 342 242 c 0
 368 277 381 323 381 378 c 0
 381 423 369 454 346 470 c 0
 323 488 289 496 246 496 c 0
 227 496 207 495 187 493 c 1
 183 466 171 373 150 213 c 1
 174 196 201 188 231 188 c 0xf2
166 666 m 0
 195 666 210 655 210 633 c 0xf6
 210 624 206 598 197 555 c 1
 221 556 237 557 244 557 c 0
 390 557 463 498 463 380 c 0
 463 302 441 240 396 195 c 0
 351 150 300 127 243 127 c 0
 203 127 170 138 143 159 c 1
 139 128 137 97 137 66 c 0
 137 43 138 23 141 5 c 1
 129 0 113 -3 93 -3 c 0
 65 -3 51 11 51 39 c 0xfa
 51 44 55 74 62 130 c 2
 86 310 l 2
 95 374 100 415 102 431 c 0
 115 531 122 608 125 663 c 1xf6
 136 665 149 666 166 666 c 0
EndSplineSet
Validated: 1
EndChar

StartChar: germandbls
Encoding: 223 223 157
Width: 487
GlyphClass: 2
Flags: MW
HStem: -10 56<295 309> 617 56<284.5 305.5>
VStem: 182 52 216 62<356 359.5> 360 73<564.5 566.5> 375 72<121 133.5>
LayerCount: 2
Fore
SplineSet
234 112 m 1xe4
 235 91 242 74 256 63 c 0
 270 52 286 46 304 46 c 0
 324 46 341 54 354 69 c 0
 368 84 375 102 375 124 c 0xe4
 375 143 370 160 358 176 c 0
 348 192 334 206 319 218 c 0
 304 229 288 241 272 253 c 0
 257 265 244 279 232 296 c 0
 222 312 216 330 216 349 c 0
 216 370 224 389 238 407 c 0
 254 424 270 439 288 450 c 0
 306 461 322 476 338 495 c 0
 352 514 360 534 360 557 c 0
 360 576 354 591 342 602 c 0
 331 612 315 617 296 617 c 0
 266 617 238 607 210 587 c 0
 184 566 168 535 163 493 c 0
 130 190 106 15 92 -34 c 0
 75 -97 50 -128 19 -128 c 0
 -3 -128 -18 -112 -27 -79 c 1
 -3 -73 18 -31 36 48 c 0
 54 127 73 266 94 465 c 0
 101 533 127 585 170 620 c 0
 213 655 260 673 309 673 c 0
 344 673 374 665 397 648 c 0
 421 631 433 608 433 578 c 0
 433 551 428 528 417 508 c 0
 406 487 393 471 378 460 c 0
 363 448 348 437 333 428 c 0
 318 418 305 408 294 397 c 0
 283 386 278 375 278 362 c 0xd8
 278 350 284 338 295 325 c 0
 307 313 321 301 337 289 c 0
 354 277 370 264 387 251 c 0
 404 238 418 221 430 202 c 0
 441 183 447 163 447 141 c 0
 447 101 431 66 399 35 c 0
 367 5 330 -10 288 -10 c 0
 260 -10 235 -3 214 10 c 0
 193 24 182 41 182 62 c 0
 182 87 199 103 234 112 c 1xe4
EndSplineSet
Validated: 1
Substitution2: "'c2sc' Capitals to Small Capitals in Latin lookup 1 subtable" germandbls.sc
Substitution2: "'smcp' Lowercase to Small Capitals in Latin lookup 0 subtable" germandbls.sc
EndChar

StartChar: agrave
Encoding: 224 224 158
Width: 487
GlyphClass: 2
Flags: MW
HStem: -10 50<180 187> 424 50<242 280.5>
VStem: 39 78<163 208> 329 66<44 130.5>
LayerCount: 2
Fore
SplineSet
330 104 m 1
 311 67 287 39 259 20 c 0
 231 0 202 -10 172 -10 c 0
 133 -10 101 5 76 36 c 0
 51 66 39 109 39 166 c 0
 39 250 60 322 104 383 c 0
 146 444 199 474 262 474 c 0
 330 474 390 455 441 417 c 1
 410 268 395 162 395 99 c 0
 395 72 406 51 427 36 c 1
 418 5 401 -10 376 -10 c 0
 345 -10 329 17 329 71 c 0
 329 86 329 97 330 104 c 1
337 189 m 1
 346 249 355 312 366 379 c 1
 332 409 298 424 263 424 c 0
 221 424 186 402 158 357 c 0
 131 312 117 254 117 183 c 0
 117 143 124 109 136 82 c 0
 150 54 168 40 192 40 c 0
 214 40 239 54 267 82 c 0
 295 109 318 145 337 189 c 1
162 619 m 0
 145 630 137 642 137 655 c 0
 137 673 149 688 172 701 c 1
 180 691 191 680 205 667 c 0
 219 654 232 643 244 634 c 0
 256 625 269 615 283 604 c 0
 297 593 305 587 308 585 c 0
 321 576 327 566 327 557 c 0
 327 546 322 536 311 525 c 1
 302 532 279 547 242 570 c 0
 205 592 178 608 162 619 c 0
EndSplineSet
Validated: 1
Substitution2: "'smcp' Lowercase to Small Capitals in Latin lookup 0 subtable" agrave.sc
EndChar

StartChar: aacute
Encoding: 225 225 159
Width: 487
GlyphClass: 2
Flags: MW
HStem: -10 50<180 187> 424 50<242 280.5>
VStem: 39 78<163 208> 329 66<44 130.5>
LayerCount: 2
Fore
SplineSet
330 104 m 1
 311 67 287 39 259 20 c 0
 231 0 202 -10 172 -10 c 0
 133 -10 101 5 76 36 c 0
 51 66 39 109 39 166 c 0
 39 250 60 322 104 383 c 0
 146 444 199 474 262 474 c 0
 330 474 390 455 441 417 c 1
 410 268 395 162 395 99 c 0
 395 72 406 51 427 36 c 1
 418 5 401 -10 376 -10 c 0
 345 -10 329 17 329 71 c 0
 329 86 329 97 330 104 c 1
337 189 m 1
 346 249 355 312 366 379 c 1
 332 409 298 424 263 424 c 0
 221 424 186 402 158 357 c 0
 131 312 117 254 117 183 c 0
 117 143 124 109 136 82 c 0
 150 54 168 40 192 40 c 0
 214 40 239 54 267 82 c 0
 295 109 318 145 337 189 c 1
394 604 m 0
 379 596 352 583 311 564 c 0
 270 545 245 532 235 525 c 1
 226 534 222 543 222 554 c 0
 222 567 229 577 243 584 c 0
 313 624 363 659 393 688 c 1
 413 673 423 658 423 643 c 0
 423 628 413 615 394 604 c 0
EndSplineSet
Validated: 1
Substitution2: "'smcp' Lowercase to Small Capitals in Latin lookup 0 subtable" aacute.sc
EndChar

StartChar: acircumflex
Encoding: 226 226 160
Width: 487
GlyphClass: 2
Flags: MW
HStem: -10 50<180 187> 424 50<242 280.5>
VStem: 39 78<163 208> 329 66<44 130.5>
LayerCount: 2
Fore
SplineSet
303 679 m 1
 374 626 409 583 409 552 c 0
 409 537 400 526 382 519 c 1
 373 535 360 550 345 565 c 0
 330 580 317 591 306 598 c 2
 291 608 l 1
 222 554 183 527 173 527 c 0
 165 527 158 533 151 545 c 1
 196 595 247 640 303 679 c 1
330 104 m 1
 311 67 287 39 259 19 c 0
 231 0 202 -10 172 -10 c 0
 133 -10 101 5 76 35 c 0
 51 66 39 109 39 166 c 0
 39 250 60 322 103 383 c 0
 146 444 199 474 262 474 c 0
 330 474 390 455 441 417 c 1
 410 268 395 162 395 99 c 0
 395 72 406 51 427 36 c 1
 418 5 401 -10 376 -10 c 0
 345 -10 329 17 329 71 c 0
 329 86 329 97 330 104 c 1
337 189 m 1
 346 249 355 312 366 379 c 1
 332 409 298 424 263 424 c 0
 221 424 186 402 158 357 c 0
 131 312 117 254 117 183 c 0
 117 143 123 109 136 82 c 0
 149 54 168 40 192 40 c 0
 214 40 239 54 267 82 c 0
 295 109 318 145 337 189 c 1
EndSplineSet
Validated: 1
Substitution2: "'smcp' Lowercase to Small Capitals in Latin lookup 0 subtable" acircumflex.sc
EndChar

StartChar: atilde
Encoding: 227 227 161
Width: 487
GlyphClass: 2
Flags: MW
HStem: -10 50<180 187> 424 50<242 280.5> 530 59<322 362.5> 575 59<215.5 259>
VStem: 39 78<163 208> 329 66<44 130.5>
LayerCount: 2
Fore
SplineSet
330 104 m 1xcc
 311 67 287 39 259 20 c 0
 231 0 202 -10 172 -10 c 0
 133 -10 101 5 76 36 c 0
 51 66 39 109 39 166 c 0
 39 250 60 322 104 383 c 0
 146 444 199 474 262 474 c 0
 330 474 390 455 441 417 c 1
 410 268 395 162 395 99 c 0
 395 72 406 51 427 36 c 1
 418 5 401 -10 376 -10 c 0
 345 -10 329 17 329 71 c 0
 329 86 329 97 330 104 c 1xcc
337 189 m 1
 346 249 355 312 366 379 c 1
 332 409 298 424 263 424 c 0
 221 424 186 402 158 357 c 0
 131 312 117 254 117 183 c 0
 117 143 124 109 136 82 c 0
 150 54 168 40 192 40 c 0
 214 40 239 54 267 82 c 0
 295 109 318 145 337 189 c 1
359 589 m 0xec
 366 589 376 593 390 602 c 0
 402 611 414 620 424 631 c 1
 433 628 437 622 437 614 c 0
 437 595 425 577 401 558 c 0
 377 539 353 530 329 530 c 0xec
 315 530 297 537 274 552 c 0
 251 567 234 575 222 575 c 0
 209 575 188 561 157 533 c 1
 148 538 144 543 144 550 c 0
 144 569 156 587 180 606 c 0
 204 625 228 634 253 634 c 0xdc
 265 634 283 627 306 612 c 0
 330 597 348 589 359 589 c 0xec
EndSplineSet
Validated: 1
Substitution2: "'smcp' Lowercase to Small Capitals in Latin lookup 0 subtable" atilde.sc
EndChar

StartChar: adieresis
Encoding: 228 228 162
Width: 487
GlyphClass: 2
Flags: MW
HStem: -10 50<180 187> 424 50<242 280.5> 521 107<209.5 210.5 376.5 377.5>
VStem: 39 78<163 208> 161 99<571 576.5> 328 99<571 576.5> 329 66<44 130.5>
LayerCount: 2
Fore
SplineSet
330 104 m 1xfa
 311 67 287 39 259 20 c 0
 231 0 202 -10 172 -10 c 0
 133 -10 101 5 76 36 c 0
 51 66 39 109 39 166 c 0
 39 250 60 322 104 383 c 0
 146 444 199 474 262 474 c 0
 330 474 390 455 441 417 c 1
 410 268 395 162 395 99 c 0xfa
 395 72 406 51 427 36 c 1xfc
 418 5 401 -10 376 -10 c 0
 345 -10 329 17 329 71 c 0
 329 86 329 97 330 104 c 1xfa
337 189 m 1
 346 249 355 312 366 379 c 1
 332 409 298 424 263 424 c 0
 221 424 186 402 158 357 c 0
 131 312 117 254 117 183 c 0
 117 143 124 109 136 82 c 0
 150 54 168 40 192 40 c 0
 214 40 239 54 267 82 c 0
 295 109 318 145 337 189 c 1
204 521 m 0
 191 521 181 525 173 534 c 0
 165 543 161 554 161 568 c 0
 161 585 167 599 178 611 c 0
 189 622 202 628 217 628 c 0
 229 628 239 623 247 614 c 0
 256 605 260 593 260 579 c 0
 260 563 254 549 242 538 c 0
 230 527 217 521 204 521 c 0
371 521 m 0
 358 521 348 525 340 534 c 0
 332 543 328 554 328 568 c 0
 328 585 334 599 345 610 c 0
 356 622 369 628 384 628 c 0
 396 628 406 623 414 614 c 0
 423 605 427 593 427 579 c 0xfc
 427 563 421 549 409 538 c 0
 397 527 384 521 371 521 c 0
EndSplineSet
Validated: 1
Substitution2: "'smcp' Lowercase to Small Capitals in Latin lookup 0 subtable" adieresis.sc
EndChar

StartChar: aring
Encoding: 229 229 163
Width: 487
GlyphClass: 2
Flags: MW
HStem: -10 50<180 187> 424 50<242 280.5> 520 33<297 311 297 312.5> 665 33<309.5 323.5>
VStem: 39 78<163 208> 224 42<592 608.5 592 609.5> 329 66<44 130.5> 353 43<608.5 625>
LayerCount: 2
Fore
SplineSet
299 520 m 0xfd
 276 520 257 527 244 540 c 0
 231 553 224 572 224 595 c 0
 224 624 234 649 252 668 c 0
 272 688 295 698 322 698 c 0
 345 698 363 691 376 678 c 0
 389 665 396 646 396 623 c 0
 396 594 387 569 368 550 c 0
 349 530 326 520 299 520 c 0xfd
318 665 m 0
 301 665 288 659 279 646 c 0
 270 634 266 618 266 599 c 0
 266 585 269 574 275 566 c 0
 282 557 291 553 303 553 c 0
 319 553 331 559 340 572 c 0
 349 584 353 599 353 618 c 0
 353 632 350 643 343 652 c 0
 337 661 329 665 318 665 c 0
330 104 m 1
 311 67 287 39 259 19 c 0
 231 0 202 -10 172 -10 c 0
 133 -10 101 5 76 35 c 0
 51 66 39 109 39 166 c 0
 39 250 60 322 103 383 c 0
 146 444 199 474 262 474 c 0
 330 474 390 455 441 417 c 1
 410 268 395 162 395 99 c 0
 395 72 406 51 427 36 c 1
 418 5 401 -10 376 -10 c 0
 345 -10 329 17 329 71 c 0xfe
 329 86 329 97 330 104 c 1
337 189 m 1
 346 249 355 312 366 379 c 1
 332 409 298 424 263 424 c 0
 221 424 186 402 158 357 c 0
 131 312 117 254 117 183 c 0
 117 143 123 109 136 82 c 0
 149 54 168 40 192 40 c 0
 214 40 239 54 267 82 c 0
 295 109 318 145 337 189 c 1
EndSplineSet
Validated: 1
Substitution2: "'smcp' Lowercase to Small Capitals in Latin lookup 0 subtable" aring.sc
EndChar

StartChar: ae
Encoding: 230 230 164
Width: 708
GlyphClass: 2
Flags: MW
HStem: -10 50<180 201 180 203.5 487 517.5> 185 43<396 437> 424 50<242 280.5>
VStem: 39 78<163 208> 316 79 600 78<353.5 368.5>
LayerCount: 2
Fore
SplineSet
600 359 m 0
 600 378 594 393 584 406 c 0
 572 419 557 425 537 425 c 0
 502 425 470 407 444 370 c 0
 416 333 401 285 396 228 c 1
 415 228 430 229 444 230 c 0
 456 231 474 234 496 239 c 0
 517 244 535 250 548 259 c 0
 561 267 573 280 584 297 c 0
 595 314 600 335 600 359 c 0
192 40 m 0
 210 40 231 50 254 70 c 0
 277 89 298 116 317 149 c 1
 316 156 316 166 316 180 c 0
 316 259 336 326 376 379 c 1
 336 409 298 424 263 424 c 0
 221 424 186 402 158 357 c 0
 131 312 117 254 117 183 c 0
 117 143 124 109 136 82 c 0
 150 54 168 40 192 40 c 0
607 102 m 1
 628 89 638 75 638 60 c 0
 638 40 624 23 596 10 c 0
 568 -3 536 -10 499 -10 c 0
 410 -10 353 28 328 104 c 1
 287 28 235 -10 172 -10 c 0
 133 -10 101 5 76 36 c 0
 51 66 39 109 39 166 c 0
 39 250 60 322 103 383 c 0
 146 444 199 474 262 474 c 0
 321 474 373 457 420 424 c 1
 459 457 504 474 554 474 c 0
 594 474 625 464 646 444 c 0
 667 425 678 400 678 370 c 0
 678 337 671 309 658 285 c 0
 645 261 629 243 610 230 c 0
 592 218 570 208 545 201 c 0
 520 194 498 189 481 188 c 0
 464 186 446 185 428 185 c 0
 419 185 408 186 395 187 c 1
 398 137 409 100 428 76 c 0
 447 52 472 40 502 40 c 0
 545 40 580 61 607 102 c 1
EndSplineSet
Validated: 1
Substitution2: "'smcp' Lowercase to Small Capitals in Latin lookup 0 subtable" ae.sc
EndChar

StartChar: ccedilla
Encoding: 231 231 165
Width: 413
GlyphClass: 2
Flags: MW
HStem: -232 45<151.5 158.5> -10 50<219 238> 419 55<249 272>
VStem: 39 79<169 225.5 169 226.5> 161 51<-64.5 -31.5> 218 54<-136 -135.5>
LayerCount: 2
Fore
SplineSet
355 354 m 1
 349 376 337 392 318 403 c 0
 299 414 281 419 263 419 c 0
 219 419 184 397 158 353 c 0
 131 309 118 256 118 195 c 0
 118 143 128 104 149 79 c 0
 169 53 194 40 225 40 c 0
 268 40 303 61 330 102 c 1
 351 89 361 75 361 60 c 0
 361 40 347 23 319 10 c 0
 290 -3 257 -10 219 -10 c 1
 214 -23 212 -30 212 -33 c 0
 212 -40 219 -49 234 -60 c 0
 259 -75 272 -96 272 -122 c 0
 272 -150 259 -175 233 -198 c 0
 207 -221 176 -232 141 -232 c 0
 120 -232 110 -224 110 -209 c 0
 110 -200 116 -189 129 -178 c 1
 138 -184 147 -187 156 -187 c 0
 173 -187 187 -183 200 -175 c 0
 212 -167 218 -156 218 -142 c 0
 218 -129 209 -114 190 -99 c 0
 171 -84 161 -70 161 -59 c 0
 161 -46 167 -29 178 -6 c 1
 133 1 98 21 75 52 c 0
 51 84 39 127 39 180 c 0
 39 273 64 345 113 396 c 0
 162 448 218 474 280 474 c 0
 309 474 337 468 364 456 c 0
 390 444 403 426 403 403 c 0
 403 376 387 359 355 354 c 1
EndSplineSet
Validated: 1
Substitution2: "'smcp' Lowercase to Small Capitals in Latin lookup 0 subtable" ccedilla.sc
EndChar

StartChar: egrave
Encoding: 232 232 166
Width: 421
GlyphClass: 2
Flags: MW
HStem: -10 50<200 230.5> 185 43<109 150> 425 49<237.5 260>
VStem: 29 79 313 78<353.5 368.5>
LayerCount: 2
Fore
SplineSet
320 102 m 1
 341 89 351 75 351 60 c 0
 351 40 337 23 309 10 c 0
 281 -3 249 -10 212 -10 c 0
 153 -10 108 6 76 39 c 0
 45 72 29 119 29 180 c 0
 29 272 54 344 103 396 c 0
 153 448 208 474 267 474 c 0
 307 474 338 464 359 444 c 0
 380 425 391 400 391 370 c 0
 391 337 384 309 371 285 c 0
 358 261 342 243 323 230 c 0
 305 218 283 208 258 201 c 0
 233 194 211 189 194 188 c 0
 177 186 159 185 141 185 c 0
 132 185 121 186 108 187 c 1
 111 137 122 100 141 76 c 0
 160 52 185 40 215 40 c 0
 258 40 293 61 320 102 c 1
313 359 m 0
 313 378 307 393 296 406 c 0
 285 419 270 425 250 425 c 0
 215 425 183 406 156 370 c 0
 129 332 114 285 109 228 c 1
 128 228 143 228 156 230 c 0
 169 230 187 234 208 238 c 0
 230 244 248 250 261 258 c 0
 274 267 286 280 297 297 c 0
 308 314 313 335 313 359 c 0
132 619 m 0
 115 630 107 642 107 655 c 0
 107 673 119 688 142 701 c 1
 150 691 161 680 175 667 c 0
 189 654 202 643 214 634 c 0
 226 625 239 615 253 604 c 0
 267 593 275 587 278 585 c 0
 291 576 297 566 297 557 c 0
 297 546 292 536 281 525 c 1
 272 532 249 547 212 569 c 0
 175 592 148 608 132 619 c 0
EndSplineSet
Validated: 1
Substitution2: "'smcp' Lowercase to Small Capitals in Latin lookup 0 subtable" egrave.sc
EndChar

StartChar: eacute
Encoding: 233 233 167
Width: 424
GlyphClass: 2
Flags: MW
HStem: -10 50<200 230.5> 185 43<109 150> 425 49<237.5 260>
VStem: 29 79 313 78<353.5 368.5>
LayerCount: 2
Fore
SplineSet
320 102 m 1
 341 89 351 75 351 60 c 0
 351 40 337 23 309 10 c 0
 281 -3 249 -10 212 -10 c 0
 153 -10 108 6 76 39 c 0
 45 72 29 119 29 180 c 0
 29 272 54 344 103 396 c 0
 153 448 208 474 267 474 c 0
 307 474 338 464 359 444 c 0
 380 425 391 400 391 370 c 0
 391 337 384 309 371 285 c 0
 358 261 342 243 323 230 c 0
 305 218 283 208 258 201 c 0
 233 194 211 189 194 188 c 0
 177 186 159 185 141 185 c 0
 132 185 121 186 108 187 c 1
 111 137 122 100 141 76 c 0
 160 52 185 40 215 40 c 0
 258 40 293 61 320 102 c 1
313 359 m 0
 313 378 307 393 296 406 c 0
 285 419 270 425 250 425 c 0
 215 425 183 406 156 370 c 0
 129 332 114 285 109 228 c 1
 128 228 143 228 156 230 c 0
 169 230 187 234 208 238 c 0
 230 244 248 250 261 258 c 0
 274 267 286 280 297 297 c 0
 308 314 313 335 313 359 c 0
364 604 m 0
 349 596 322 583 281 564 c 0
 240 545 215 532 205 525 c 1
 196 534 192 543 192 554 c 0
 192 567 199 577 213 584 c 0
 283 624 333 659 363 688 c 1
 383 673 393 658 393 643 c 0
 393 628 383 615 364 604 c 0
EndSplineSet
Validated: 1
Substitution2: "'smcp' Lowercase to Small Capitals in Latin lookup 0 subtable" eacute.sc
EndChar

StartChar: ecircumflex
Encoding: 234 234 168
Width: 421
GlyphClass: 2
Flags: MW
HStem: -10 50<200 230.5> 185 43<109 150> 425 49<237.5 260>
VStem: 29 79 313 78<353.5 368.5>
LayerCount: 2
Fore
SplineSet
273 679 m 1
 344 626 379 583 379 552 c 0
 379 537 370 526 352 519 c 1
 343 535 330 550 315 565 c 0
 300 580 287 591 276 598 c 2
 261 608 l 1
 257 605 251 599 242 592 c 0
 233 585 226 580 221 576 c 0
 216 572 209 567 202 561 c 0
 194 555 188 550 183 547 c 0
 178 544 172 540 167 537 c 0
 161 534 156 531 153 530 c 0
 149 528 146 527 143 527 c 0
 135 527 128 533 121 545 c 1
 166 595 217 640 273 679 c 1
320 102 m 1
 341 89 351 75 351 60 c 0
 351 40 337 23 309 10 c 0
 281 -3 249 -10 212 -10 c 0
 153 -10 108 6 76 39 c 0
 45 72 29 119 29 180 c 0
 29 272 54 344 103 396 c 0
 153 448 208 474 267 474 c 0
 307 474 338 464 359 444 c 0
 380 425 391 400 391 370 c 0
 391 337 384 309 371 285 c 0
 358 261 342 243 323 230 c 0
 305 218 283 208 258 201 c 0
 233 194 211 189 194 187 c 0
 177 186 159 185 141 185 c 0
 132 185 121 186 108 187 c 1
 111 137 122 100 141 76 c 0
 160 52 185 40 215 40 c 0
 258 40 293 61 320 102 c 1
313 359 m 0
 313 378 307 393 296 406 c 0
 285 419 270 425 250 425 c 0
 215 425 183 406 156 369 c 0
 129 332 114 285 109 228 c 1
 128 228 143 228 156 229 c 0
 169 230 187 233 208 238 c 0
 230 243 248 250 261 258 c 0
 274 267 286 280 297 297 c 0
 308 314 313 335 313 359 c 0
EndSplineSet
Validated: 1
Substitution2: "'smcp' Lowercase to Small Capitals in Latin lookup 0 subtable" ecircumflex.sc
EndChar

StartChar: edieresis
Encoding: 235 235 169
Width: 421
GlyphClass: 2
Flags: MW
HStem: -10 50<200 230.5> 185 43<109 150> 425 49<237.5 260> 521 107<173.5 174.5 340.5 341.5>
VStem: 29 79 125 99<571 576.5> 292 99<571 576.5> 313 78<353.5 368.5>
LayerCount: 2
Fore
SplineSet
320 102 m 1xfd
 341 89 351 75 351 60 c 0
 351 40 337 23 309 10 c 0
 281 -3 249 -10 212 -10 c 0
 153 -10 108 6 76 39 c 0
 45 72 29 119 29 180 c 0
 29 272 54 344 103 396 c 0
 153 448 208 474 267 474 c 0
 307 474 338 464 359 444 c 0
 380 425 391 400 391 370 c 0
 391 337 384 309 371 285 c 0
 358 261 342 243 323 230 c 0
 305 218 283 208 258 201 c 0
 233 194 211 189 194 188 c 0
 177 186 159 185 141 185 c 0
 132 185 121 186 108 187 c 1
 111 137 122 100 141 76 c 0
 160 52 185 40 215 40 c 0
 258 40 293 61 320 102 c 1xfd
313 359 m 0
 313 378 307 393 296 406 c 0
 285 419 270 425 250 425 c 0
 215 425 183 406 156 370 c 0
 129 332 114 285 109 228 c 1
 128 228 143 228 156 230 c 0
 169 230 187 234 208 238 c 0
 230 244 248 250 261 258 c 0
 274 267 286 280 297 297 c 0
 308 314 313 335 313 359 c 0
168 521 m 0
 155 521 145 525 137 534 c 0
 129 543 125 554 125 568 c 0
 125 585 131 599 142 610 c 0
 153 622 166 628 181 628 c 0
 193 628 203 623 211 614 c 0
 220 605 224 593 224 579 c 0
 224 563 218 549 206 538 c 0
 194 527 181 521 168 521 c 0
335 521 m 0
 322 521 312 525 304 534 c 0
 296 543 292 554 292 568 c 0
 292 585 298 599 309 610 c 0
 320 622 333 628 348 628 c 0
 360 628 370 623 378 614 c 0
 387 605 391 593 391 579 c 0xfe
 391 563 385 549 373 538 c 0
 361 527 348 521 335 521 c 0
EndSplineSet
Validated: 1
Substitution2: "'smcp' Lowercase to Small Capitals in Latin lookup 0 subtable" edieresis.sc
EndChar

StartChar: igrave
Encoding: 236 236 170
Width: 200
GlyphClass: 2
Flags: MW
HStem: -10 21G<79.5 108.5> 454 20G<109.5 130.5>
VStem: 46 69<85.5 96.5> 83 76<357 432>
LayerCount: 2
Fore
SplineSet
116 474 m 0xd0
 145 474 159 453 159 411 c 0xd0
 159 386 152 332 137 248 c 0
 122 164 115 114 115 99 c 0
 115 72 126 51 147 36 c 1
 138 5 121 -10 96 -10 c 0
 63 -10 46 20 46 81 c 0xe0
 46 112 52 162 64 229 c 0
 77 296 83 343 83 371 c 0
 83 402 76 420 63 423 c 1
 64 432 70 443 81 456 c 0
 92 468 103 474 116 474 c 0xd0
24 619 m 0
 7 630 -1 642 -1 655 c 0
 -1 673 11 688 34 701 c 1
 42 691 53 680 67 667 c 0
 81 654 94 643 106 634 c 0
 118 625 131 615 145 604 c 0
 159 593 167 587 170 585 c 0
 183 576 189 566 189 557 c 0
 189 546 184 536 173 525 c 1
 164 532 141 547 104 570 c 0
 67 592 40 608 24 619 c 0
EndSplineSet
Validated: 1
Substitution2: "'smcp' Lowercase to Small Capitals in Latin lookup 0 subtable" igrave.sc
EndChar

StartChar: iacute
Encoding: 237 237 171
Width: 200
GlyphClass: 2
Flags: MW
HStem: -10 21G<79.5 108.5> 454 20G<109.5 130.5>
VStem: 46 69<85.5 96.5> 83 76<357 432>
LayerCount: 2
Fore
SplineSet
116 474 m 0xd0
 145 474 159 453 159 411 c 0xd0
 159 386 152 332 137 248 c 0
 122 164 115 114 115 99 c 0
 115 72 126 51 147 36 c 1
 138 5 121 -10 96 -10 c 0
 63 -10 46 20 46 81 c 0xe0
 46 112 52 162 64 229 c 0
 77 296 83 343 83 371 c 0
 83 402 76 420 63 423 c 1
 64 432 70 443 81 456 c 0
 92 468 103 474 116 474 c 0xd0
205 604 m 0
 190 596 163 583 122 564 c 0
 81 545 56 532 46 525 c 1xe0
 37 534 33 543 33 554 c 0
 33 567 40 577 54 584 c 0
 124 624 174 659 204 688 c 1
 224 673 234 658 234 643 c 0
 234 628 224 615 205 604 c 0
EndSplineSet
Validated: 1
Substitution2: "'smcp' Lowercase to Small Capitals in Latin lookup 0 subtable" iacute.sc
EndChar

StartChar: icircumflex
Encoding: 238 238 172
Width: 200
GlyphClass: 2
Flags: MW
HStem: -10 21G<79.5 108.5> 454 20G<109.5 130.5>
VStem: 46 69<85.5 96.5> 83 76<357 432>
LayerCount: 2
Fore
SplineSet
139 679 m 1xc0
 210 626 245 583 245 552 c 0
 245 537 236 526 218 519 c 1
 209 535 196 550 181 565 c 0
 166 580 153 591 142 598 c 2
 127 608 l 1
 58 554 19 527 9 527 c 0
 1 527 -6 533 -13 545 c 1
 32 595 83 640 139 679 c 1xc0
116 474 m 0
 145 474 159 453 159 411 c 0xd0
 159 386 152 332 137 248 c 0
 122 164 115 114 115 99 c 0
 115 72 126 51 147 36 c 1
 138 5 121 -10 96 -10 c 0
 63 -10 46 20 46 81 c 0xe0
 46 112 52 162 64 229 c 0
 77 296 83 343 83 371 c 0xd0
 83 402 76 420 63 423 c 1
 64 432 70 443 81 455 c 0
 92 468 103 474 116 474 c 0
EndSplineSet
Validated: 1
Substitution2: "'smcp' Lowercase to Small Capitals in Latin lookup 0 subtable" icircumflex.sc
EndChar

StartChar: idieresis
Encoding: 239 239 173
Width: 201
GlyphClass: 2
Flags: MW
HStem: -10 21G<75.5 104.5> 454 20G<113.5 134.5> 521 107<40.5 41.5 207.5 208.5>
VStem: -8 99<571 576.5> 42 69<85.5 96.5> 87 76<357 432> 159 99<571 576.5>
LayerCount: 2
Fore
SplineSet
120 474 m 0xe4
 149 474 163 453 163 411 c 0xe4
 163 386 154 332 137 248 c 0
 120 164 111 114 111 99 c 0
 111 72 122 51 143 36 c 1
 134 5 117 -10 92 -10 c 0
 59 -10 42 20 42 81 c 0xe8
 42 112 49 162 64 229 c 0
 79 296 87 343 87 371 c 0
 87 402 80 420 67 423 c 1
 68 432 74 443 85 456 c 0
 96 468 107 474 120 474 c 0xe4
35 521 m 0
 22 521 12 525 4 534 c 0
 -4 543 -8 554 -8 568 c 0
 -8 585 -2 599 9 611 c 0
 20 622 33 628 48 628 c 0
 60 628 70 623 78 614 c 0
 87 605 91 593 91 579 c 0xf0
 91 563 85 549 73 538 c 0
 61 527 48 521 35 521 c 0
202 521 m 0
 189 521 179 525 171 534 c 0
 163 543 159 554 159 568 c 0
 159 585 165 599 176 611 c 0
 187 622 200 628 215 628 c 0
 227 628 237 623 245 614 c 0
 254 605 258 593 258 579 c 0xe2
 258 563 252 549 240 538 c 0
 228 527 215 521 202 521 c 0
EndSplineSet
Validated: 1
Substitution2: "'smcp' Lowercase to Small Capitals in Latin lookup 0 subtable" idieresis.sc
EndChar

StartChar: eth
Encoding: 240 240 174
Width: 529
GlyphClass: 2
Flags: MW
HStem: -10 56<200.5 232.5> 419 55<243.5 287> 711 20G
VStem: 36 68<177.5 228.5> 383 74<233.5 409>
LayerCount: 2
Fore
SplineSet
269 419 m 0
 218 419 177 398 148 356 c 0
 119 313 104 262 104 201 c 0
 104 154 114 117 134 88 c 0
 153 60 182 46 219 46 c 0
 271 46 311 67 340 110 c 0
 369 152 383 203 383 264 c 0
 383 310 373 347 353 376 c 0
 333 405 305 419 269 419 c 0
197 570 m 0
 217 583 240 598 267 616 c 1
 234 637 194 652 148 661 c 0
 147 664 147 666 147 669 c 0
 147 688 156 698 174 698 c 0
 190 698 212 693 240 684 c 0
 269 675 294 663 316 649 c 1
 367 683 405 710 430 731 c 1
 440 720 445 708 445 696 c 0
 445 685 439 676 426 667 c 2
 354 619 l 1
 423 555 457 466 457 352 c 0
 457 306 452 262 444 221 c 0
 434 180 421 142 402 106 c 0
 384 71 358 42 326 21 c 0
 292 0 254 -10 211 -10 c 0
 157 -10 114 7 83 42 c 0
 52 77 36 124 36 185 c 0
 36 272 59 341 106 394 c 0
 153 447 205 474 264 474 c 0
 319 474 363 451 394 404 c 1
 380 481 351 542 306 586 c 1
 287 573 266 558 242 541 c 0
 219 524 204 513 198 509 c 1
 185 520 178 530 178 541 c 0
 178 552 184 561 197 570 c 0
EndSplineSet
Validated: 1
Substitution2: "'smcp' Lowercase to Small Capitals in Latin lookup 0 subtable" eth.sc
EndChar

StartChar: ntilde
Encoding: 241 241 175
Width: 475
GlyphClass: 2
Flags: MW
HStem: -3 21G<72 93> 423 51<301 306> 530 59<314 354.5> 575 59<207.5 251>
VStem: 46 78<19.5 77.5> 312 69<85.5 95.5> 349 70<344.5 358.5>
LayerCount: 2
Fore
SplineSet
145 273 m 1xca
 131 166 124 95 124 60 c 0
 124 40 125 22 127 5 c 1
 115 0 101 -3 85 -3 c 0
 59 -3 46 8 46 31 c 0
 46 40 53 95 68 195 c 0
 83 294 90 352 90 368 c 0
 90 399 83 417 69 423 c 1
 70 432 76 443 87 456 c 0
 98 468 109 474 122 474 c 0
 149 474 163 453 163 412 c 0
 163 400 162 388 160 376 c 1
 180 407 204 432 232 448 c 0
 261 466 288 474 314 474 c 0
 347 474 373 463 391 440 c 0
 410 417 419 388 419 351 c 0xca
 419 338 413 297 400 227 c 0
 387 158 381 115 381 99 c 0
 381 72 392 51 413 36 c 1
 404 5 387 -10 362 -10 c 0
 329 -10 312 20 312 81 c 0xcc
 312 110 318 158 330 225 c 0
 343 293 349 334 349 347 c 0
 349 370 344 389 335 402 c 0
 326 416 314 423 298 423 c 0
 272 423 243 408 212 377 c 0
 181 347 158 312 145 273 c 1xca
351 589 m 0xe8
 358 589 368 593 382 602 c 0
 394 611 406 620 416 631 c 1
 425 628 429 622 429 614 c 0
 429 595 417 577 393 558 c 0
 369 539 345 530 321 530 c 0xe8
 307 530 289 537 266 552 c 0
 243 567 226 575 214 575 c 0
 201 575 180 561 149 533 c 1
 140 538 136 543 136 550 c 0
 136 569 148 587 172 606 c 0
 196 625 220 634 245 634 c 0xd8
 257 634 275 627 298 612 c 0
 322 597 340 589 351 589 c 0xe8
EndSplineSet
Validated: 1
Substitution2: "'smcp' Lowercase to Small Capitals in Latin lookup 0 subtable" ntilde.sc
EndChar

StartChar: ograve
Encoding: 242 242 176
Width: 475
GlyphClass: 2
Flags: MW
HStem: -10 50<196 237 196 237.5> 424 50<238 279>
VStem: 29 78<171.5 222> 367 79<240.5 289>
LayerCount: 2
Fore
SplineSet
203 -10 m 0
 148 -10 106 7 75 41 c 0
 44 75 29 122 29 181 c 0
 29 263 51 332 96 389 c 0
 141 446 199 474 268 474 c 0
 323 474 367 457 398 422 c 0
 430 388 446 341 446 281 c 0
 446 200 423 131 376 74 c 0
 330 18 272 -10 203 -10 c 0
262 424 m 0
 214 424 176 401 148 354 c 0
 121 308 107 255 107 194 c 0
 107 149 116 112 134 83 c 0
 153 54 179 40 213 40 c 0
 261 40 299 63 326 108 c 0
 353 153 367 206 367 266 c 0
 367 312 358 350 340 379 c 0
 322 409 296 424 262 424 c 0
159 619 m 0
 142 630 134 642 134 655 c 0
 134 673 146 688 169 701 c 1
 177 691 188 680 202 667 c 0
 216 654 229 643 241 634 c 0
 253 625 266 615 280 604 c 0
 294 593 302 587 305 585 c 0
 318 576 324 566 324 557 c 0
 324 546 319 536 308 525 c 1
 299 532 276 547 239 569 c 0
 202 592 175 608 159 619 c 0
EndSplineSet
Validated: 1
Substitution2: "'smcp' Lowercase to Small Capitals in Latin lookup 0 subtable" ograve.sc
EndChar

StartChar: oacute
Encoding: 243 243 177
Width: 475
GlyphClass: 2
Flags: MW
HStem: -10 50<196 237 196 237.5> 424 50<238 279>
VStem: 29 78<171.5 222> 367 79<240.5 289>
LayerCount: 2
Fore
SplineSet
203 -10 m 0
 148 -10 106 7 75 41 c 0
 44 75 29 122 29 181 c 0
 29 263 51 332 96 389 c 0
 141 446 199 474 268 474 c 0
 323 474 367 457 398 422 c 0
 430 388 446 341 446 281 c 0
 446 200 423 131 376 74 c 0
 330 18 272 -10 203 -10 c 0
262 424 m 0
 214 424 176 401 148 354 c 0
 121 308 107 255 107 194 c 0
 107 149 116 112 134 83 c 0
 153 54 179 40 213 40 c 0
 261 40 299 63 326 108 c 0
 353 153 367 206 367 266 c 0
 367 312 358 350 340 379 c 0
 322 409 296 424 262 424 c 0
391 604 m 0
 376 596 349 583 308 564 c 0
 267 545 242 532 232 525 c 1
 223 534 219 543 219 554 c 0
 219 567 226 577 240 584 c 0
 310 624 360 659 390 688 c 1
 410 673 420 658 420 643 c 0
 420 628 410 615 391 604 c 0
EndSplineSet
Validated: 1
Substitution2: "'smcp' Lowercase to Small Capitals in Latin lookup 0 subtable" oacute.sc
EndChar

StartChar: ocircumflex
Encoding: 244 244 178
Width: 475
GlyphClass: 2
Flags: MW
HStem: -10 50<196 237 196 237.5> 424 50<238 279>
VStem: 29 78<171.5 222> 367 79<240.5 289>
LayerCount: 2
Fore
SplineSet
300 679 m 1
 371 626 406 583 406 552 c 0
 406 537 397 526 379 519 c 1
 370 535 357 550 342 565 c 0
 327 580 314 591 304 598 c 2
 288 608 l 1
 219 554 180 527 170 527 c 0
 162 527 155 533 148 545 c 1
 193 595 244 640 300 679 c 1
203 -10 m 0
 148 -10 106 7 75 41 c 0
 44 75 29 122 29 181 c 0
 29 263 51 332 96 389 c 0
 141 446 199 474 268 474 c 0
 323 474 367 457 398 422 c 0
 430 388 446 341 446 281 c 0
 446 200 423 131 376 74 c 0
 330 18 272 -10 203 -10 c 0
262 424 m 0
 214 424 176 401 148 354 c 0
 121 308 107 255 107 194 c 0
 107 149 116 112 134 83 c 0
 153 54 179 40 213 40 c 0
 261 40 299 63 326 108 c 0
 353 153 367 206 367 266 c 0
 367 312 358 350 340 379 c 0
 322 409 296 424 262 424 c 0
EndSplineSet
Validated: 1
Substitution2: "'smcp' Lowercase to Small Capitals in Latin lookup 0 subtable" ocircumflex.sc
EndChar

StartChar: otilde
Encoding: 245 245 179
Width: 475
GlyphClass: 2
Flags: MW
HStem: -10 50<196 237 196 237.5> 424 50<238 279> 530 59<319 359.5> 575 59<212.5 256>
VStem: 29 78<171.5 222> 367 79<240.5 289>
LayerCount: 2
Fore
SplineSet
203 -10 m 0xcc
 148 -10 106 7 75 41 c 0
 44 75 29 122 29 181 c 0
 29 263 51 332 96 389 c 0
 141 446 199 474 268 474 c 0
 323 474 367 457 398 422 c 0
 430 388 446 341 446 281 c 0
 446 200 423 131 376 74 c 0
 330 18 272 -10 203 -10 c 0xcc
262 424 m 0
 214 424 176 401 148 354 c 0
 121 308 107 255 107 194 c 0
 107 149 116 112 134 83 c 0
 153 54 179 40 213 40 c 0
 261 40 299 63 326 108 c 0
 353 153 367 206 367 266 c 0
 367 312 358 350 340 379 c 0
 322 409 296 424 262 424 c 0
356 589 m 0xec
 363 589 374 593 387 602 c 0
 400 611 411 620 421 631 c 1
 430 628 434 622 434 614 c 0
 434 595 422 577 398 558 c 0
 374 539 350 530 326 530 c 0xec
 312 530 294 537 271 552 c 0
 248 567 231 575 219 575 c 0
 206 575 185 561 154 533 c 1
 145 538 141 543 141 550 c 0
 141 569 153 587 177 606 c 0
 201 625 225 634 250 634 c 0xdc
 262 634 280 626 304 611 c 0
 327 596 345 589 356 589 c 0xec
EndSplineSet
Validated: 1
Substitution2: "'smcp' Lowercase to Small Capitals in Latin lookup 0 subtable" otilde.sc
EndChar

StartChar: odieresis
Encoding: 246 246 180
Width: 475
GlyphClass: 2
Flags: MW
HStem: -10 50<196 237 196 237.5> 424 50<238 279> 521 107<199.5 200.5 366.5 367.5>
VStem: 29 78<171.5 222> 151 99<571 576.5> 318 99<571 576.5> 367 79<240.5 289>
LayerCount: 2
Fore
SplineSet
203 -10 m 0xfa
 148 -10 106 7 75 41 c 0
 44 75 29 122 29 181 c 0
 29 263 51 332 96 389 c 0
 141 446 199 474 268 474 c 0
 323 474 367 457 398 422 c 0
 430 388 446 341 446 281 c 0
 446 200 423 131 376 74 c 0
 330 18 272 -10 203 -10 c 0xfa
262 424 m 0
 214 424 176 401 148 354 c 0
 121 308 107 255 107 194 c 0
 107 149 116 112 134 83 c 0
 153 54 179 40 213 40 c 0
 261 40 299 63 326 108 c 0
 353 153 367 206 367 266 c 0
 367 312 358 350 340 379 c 0
 322 409 296 424 262 424 c 0
194 521 m 0
 181 521 171 525 163 534 c 0
 155 543 151 554 151 568 c 0
 151 585 157 599 168 610 c 0
 179 622 192 628 207 628 c 0
 219 628 229 623 238 614 c 0
 246 605 250 593 250 579 c 0
 250 563 244 549 232 538 c 0
 220 527 207 521 194 521 c 0
361 521 m 0
 348 521 338 525 330 534 c 0
 322 543 318 554 318 568 c 0
 318 585 324 599 335 610 c 0
 346 622 359 628 374 628 c 0
 386 628 396 623 404 614 c 0
 413 605 417 593 417 579 c 0xfc
 417 563 411 549 399 538 c 0
 387 527 374 521 361 521 c 0
EndSplineSet
Validated: 1
Substitution2: "'smcp' Lowercase to Small Capitals in Latin lookup 0 subtable" odieresis.sc
EndChar

StartChar: divide
Encoding: 247 247 181
Width: 574
GlyphClass: 2
Flags: MW
HStem: 23 114<283.5 298.5> 216 72 224 57<277.5 303.5> 367 114<283.5 298.5>
VStem: 236 109<71.5 88 415.5 432>
LayerCount: 2
Fore
SplineSet
486 258 m 0xd8
 486 246 483 236 476 228 c 0
 469 220 461 216 450 216 c 0xd8
 439 216 415 217 378 220 c 0
 341 223 313 224 294 224 c 0xb8
 218 224 151 221 92 216 c 1
 90 226 89 236 89 246 c 0
 89 257 92 266 98 275 c 0
 104 284 113 288 125 288 c 0xd8
 127 288 148 287 188 284 c 0
 228 282 263 281 292 281 c 0xb8
 379 281 442 283 483 288 c 1
 485 282 486 272 486 258 c 0xd8
291 367 m 0
 276 367 263 372 252 383 c 0
 241 394 236 407 236 424 c 0
 236 440 241 454 252 464 c 0
 263 476 276 481 291 481 c 0
 306 481 319 476 329 464 c 0
 340 454 345 440 345 424 c 0
 345 407 340 394 329 383 c 0
 319 372 306 367 291 367 c 0
291 23 m 0
 276 23 263 28 252 39 c 0
 241 50 236 63 236 80 c 0
 236 96 241 110 252 120 c 0
 263 132 276 137 291 137 c 0
 306 137 319 132 329 120 c 0
 340 110 345 96 345 80 c 0
 345 63 340 50 329 39 c 0
 319 28 306 23 291 23 c 0
EndSplineSet
Validated: 1
EndChar

StartChar: oslash
Encoding: 248 248 182
Width: 485
GlyphClass: 2
Flags: MW
HStem: -10 50<202.5 237 202.5 237.5> 424 50<238 274>
VStem: 29 78<176 222> 367 79<240.5 281.5>
LayerCount: 2
Fore
SplineSet
351 356 m 1
 157 59 l 1
 173 46 192 40 213 40 c 0
 261 40 299 63 326 108 c 0
 353 153 367 206 367 266 c 0
 367 297 362 327 351 356 c 1
262 424 m 0
 214 424 176 401 148 354 c 0
 121 308 107 255 107 194 c 0
 107 158 113 127 125 102 c 1
 323 399 l 1
 306 416 286 424 262 424 c 0
203 -10 m 0
 175 -10 149 -5 124 6 c 1
 65 -85 l 1
 41 -84 29 -74 29 -57 c 0
 29 -51 32 -44 37 -35 c 2
 83 34 l 1
 47 70 29 119 29 181 c 0
 29 263 51 332 96 389 c 0
 141 446 199 474 268 474 c 0
 301 474 331 467 358 454 c 1
 380 490 401 524 420 557 c 1
 444 556 456 546 456 529 c 0
 456 522 453 514 448 507 c 2
 395 424 l 1
 429 388 446 340 446 281 c 0
 446 200 423 131 376 74 c 0
 330 18 272 -10 203 -10 c 0
EndSplineSet
Validated: 1
Substitution2: "'smcp' Lowercase to Small Capitals in Latin lookup 0 subtable" oslash.sc
EndChar

StartChar: ugrave
Encoding: 249 249 183
Width: 473
GlyphClass: 2
Flags: MW
HStem: -10 51<166 174.5> 454 20G<116.5 131.5>
VStem: 53 70<105.5 119.5> 91 72<379.5 381.5> 317 66<43.5 104.5> 361 72
LayerCount: 2
Fore
SplineSet
318 104 m 1xc8
 301 72 279 45 250 23 c 0
 222 1 191 -10 158 -10 c 0
 125 -10 99 1 80 24 c 0
 62 47 53 76 53 113 c 0xe8
 53 126 59 167 72 237 c 0
 85 306 91 349 91 365 c 0xd0
 91 398 84 418 70 423 c 1
 73 434 79 446 89 457 c 0
 99 468 110 474 123 474 c 0xe0
 140 474 150 468 155 455 c 0
 160 442 163 421 163 394 c 0xd0
 163 365 156 317 143 250 c 0
 130 182 123 138 123 117 c 0
 123 94 127 75 136 62 c 0
 145 48 158 41 174 41 c 0
 200 41 229 56 260 87 c 0
 291 117 314 152 327 191 c 1
 347 324 358 415 361 464 c 1
 373 467 384 469 394 469 c 0
 420 469 433 458 433 437 c 0xe4
 433 430 425 377 408 277 c 0
 391 177 383 116 383 93 c 0
 383 68 394 49 415 36 c 1
 412 25 406 14 397 5 c 0
 389 -5 378 -10 365 -10 c 0
 333 -10 317 17 317 70 c 0
 317 85 317 97 318 104 c 1xc8
165 619 m 0
 148 630 140 642 140 655 c 0
 140 673 152 688 175 701 c 1
 183 691 194 680 208 667 c 0
 222 654 235 643 247 634 c 0
 259 625 272 615 286 604 c 0
 300 593 308 587 311 585 c 0
 324 576 330 566 330 557 c 0
 330 546 325 536 314 525 c 1
 305 532 282 547 245 570 c 0
 208 592 181 608 165 619 c 0
EndSplineSet
Validated: 1
Substitution2: "'smcp' Lowercase to Small Capitals in Latin lookup 0 subtable" ugrave.sc
EndChar

